<svg width="26" height="26" viewBox="0 0 26 26" fill="none" xmlns="http://www.w3.org/2000/svg">
<path d="M0 6C0 2.68629 2.68629 0 6 0C9.31371 0 12 2.68629 12 6V12H6C2.68629 12 0 9.31371 0 6Z" fill="white"/>
<path d="M14 6C14 2.68629 16.6863 0 20 0C23.3137 0 26 2.68629 26 6C26 9.31371 23.3137 12 20 12H14V6Z" fill="white"/>
<path d="M0 20C0 16.6863 2.68629 14 6 14H12V20C12 23.3137 9.31371 26 6 26C2.68629 26 0 23.3137 0 20Z" fill="white"/>
<path d="M14 14H20C23.3137 14 26 16.6863 26 20C26 23.3137 23.3137 26 20 26C16.6863 26 14 23.3137 14 20V14Z" fill="white"/>
</svg>
