<svg width="100" height="100" viewBox="0 0 100 100" fill="none" xmlns="http://www.w3.org/2000/svg">
<path fill-rule="evenodd" clip-rule="evenodd" d="M68.18 36.3635C68.18 41.1856 66.2645 45.8102 62.8547 49.2199C59.445 52.6297 54.8203 54.5453 49.9982 54.5453C45.1761 54.5453 40.5515 52.6297 37.1417 49.2199C33.732 45.8102 31.8164 41.1856 31.8164 36.3635C31.8164 31.5413 33.732 26.9167 37.1417 23.507C40.5515 20.0972 45.1761 18.1816 49.9982 18.1816C54.8203 18.1816 59.445 20.0972 62.8547 23.507C66.2645 26.9167 68.18 31.5413 68.18 36.3635ZM59.0891 36.3635C59.0891 38.7745 58.1313 41.0868 56.4265 42.7917C54.7216 44.4966 52.4093 45.4544 49.9982 45.4544C47.5872 45.4544 45.2749 44.4966 43.57 42.7917C41.8651 41.0868 40.9073 38.7745 40.9073 36.3635C40.9073 33.9524 41.8651 31.6401 43.57 29.9352C45.2749 28.2303 47.5872 27.2725 49.9982 27.2725C52.4093 27.2725 54.7216 28.2303 56.4265 29.9352C58.1313 31.6401 59.0891 33.9524 59.0891 36.3635Z" fill="#DB0A2A"/>
<path fill-rule="evenodd" clip-rule="evenodd" d="M50 0C22.3864 0 0 22.3864 0 50C0 77.6136 22.3864 100 50 100C77.6136 100 100 77.6136 100 50C100 22.3864 77.6136 0 50 0ZM9.09091 50C9.09091 59.5 12.3318 68.2455 17.7636 75.1909C21.5783 70.1814 26.4995 66.1216 32.1429 63.3287C37.7862 60.5358 43.9988 59.0854 50.2955 59.0909C56.5106 59.085 62.6451 60.4978 68.2315 63.2217C73.8179 65.9456 78.7089 69.9087 82.5318 74.8091C86.4702 69.6436 89.122 63.6146 90.2677 57.2209C91.4134 50.8271 91.0201 44.2524 89.1204 38.0408C87.2207 31.8292 83.8692 26.1593 79.3431 21.5002C74.8171 16.841 69.2466 13.3266 63.0926 11.2478C56.9387 9.1689 50.3782 8.58533 43.9539 9.54533C37.5296 10.5053 31.4263 12.9813 26.149 16.7684C20.8716 20.5555 16.5719 25.5449 13.6056 31.3236C10.6393 37.1024 9.09173 43.5044 9.09091 50ZM50 90.9091C40.6089 90.9232 31.5012 87.6925 24.2182 81.7636C27.1497 77.567 31.0515 74.1405 35.5918 71.7758C40.132 69.4111 45.1763 68.1782 50.2955 68.1818C55.3507 68.1778 60.334 69.3799 64.8315 71.6883C69.3289 73.9967 73.2108 77.3448 76.1545 81.4545C68.815 87.5759 59.5572 90.9225 50 90.9091Z" fill="#DB0A2A"/>
</svg>
