<svg width="99" height="32" viewBox="0 0 99 32" fill="none" xmlns="http://www.w3.org/2000/svg">
<rect x="0.25" y="6.25" width="98.5" height="20.5" rx="10.25" fill="white" stroke="#A9A9A9" stroke-width="0.5"/>
<path d="M50.0156 16.6348C50.0156 18.0488 49.6309 19.1309 48.8613 19.8809C48.0957 20.627 46.9922 21 45.5508 21H43.1777V12.4336H45.8027C47.1348 12.4336 48.1699 12.8027 48.9082 13.541C49.6465 14.2793 50.0156 15.3105 50.0156 16.6348ZM48.9609 16.6699C48.9609 15.5527 48.6797 14.7109 48.1172 14.1445C47.5586 13.5781 46.7266 13.2949 45.6211 13.2949H44.1738V20.1387H45.3867C46.5742 20.1387 47.4668 19.8477 48.0645 19.2656C48.6621 18.6797 48.9609 17.8145 48.9609 16.6699ZM52.7578 21H51.7852V14.5781H52.7578V21ZM51.7031 12.8379C51.7031 12.6152 51.7578 12.4531 51.8672 12.3516C51.9766 12.2461 52.1133 12.1934 52.2773 12.1934C52.4336 12.1934 52.5684 12.2461 52.6816 12.3516C52.7949 12.457 52.8516 12.6191 52.8516 12.8379C52.8516 13.0566 52.7949 13.2207 52.6816 13.3301C52.5684 13.4355 52.4336 13.4883 52.2773 13.4883C52.1133 13.4883 51.9766 13.4355 51.8672 13.3301C51.7578 13.2207 51.7031 13.0566 51.7031 12.8379ZM55.7812 17.7129C55.9492 17.4746 56.2051 17.1621 56.5488 16.7754L58.623 14.5781H59.7773L57.1758 17.3145L59.959 21H58.7812L56.5137 17.9648L55.7812 18.5977V21H54.8203V11.8828H55.7812V16.7168C55.7812 16.9316 55.7656 17.2637 55.7344 17.7129H55.7812ZM62.0977 21H61.125V14.5781H62.0977V21ZM61.043 12.8379C61.043 12.6152 61.0977 12.4531 61.207 12.3516C61.3164 12.2461 61.4531 12.1934 61.6172 12.1934C61.7734 12.1934 61.9082 12.2461 62.0215 12.3516C62.1348 12.457 62.1914 12.6191 62.1914 12.8379C62.1914 13.0566 62.1348 13.2207 62.0215 13.3301C61.9082 13.4355 61.7734 13.4883 61.6172 13.4883C61.4531 13.4883 61.3164 13.4355 61.207 13.3301C61.0977 13.2207 61.043 13.0566 61.043 12.8379ZM67.0898 14.4609C67.375 14.4609 67.6309 14.4844 67.8574 14.5312L67.7227 15.4336C67.457 15.375 67.2227 15.3457 67.0195 15.3457C66.5 15.3457 66.0547 15.5566 65.6836 15.9785C65.3164 16.4004 65.1328 16.9258 65.1328 17.5547V21H64.1602V14.5781H64.9629L65.0742 15.7676H65.1211C65.3594 15.3496 65.6465 15.0273 65.9824 14.8008C66.3184 14.5742 66.6875 14.4609 67.0898 14.4609ZM70.0312 21H69.0586V14.5781H70.0312V21ZM68.9766 12.8379C68.9766 12.6152 69.0312 12.4531 69.1406 12.3516C69.25 12.2461 69.3867 12.1934 69.5508 12.1934C69.707 12.1934 69.8418 12.2461 69.9551 12.3516C70.0684 12.457 70.125 12.6191 70.125 12.8379C70.125 13.0566 70.0684 13.2207 69.9551 13.3301C69.8418 13.4355 69.707 13.4883 69.5508 13.4883C69.3867 13.4883 69.25 13.4355 69.1406 13.3301C69.0312 13.2207 68.9766 13.0566 68.9766 12.8379ZM80.2793 21V16.8223C80.2793 16.3105 80.1699 15.9277 79.9512 15.6738C79.7324 15.416 79.3926 15.2871 78.9316 15.2871C78.3262 15.2871 77.8789 15.4609 77.5898 15.8086C77.3008 16.1562 77.1562 16.6914 77.1562 17.4141V21H76.1836V16.8223C76.1836 16.3105 76.0742 15.9277 75.8555 15.6738C75.6367 15.416 75.2949 15.2871 74.8301 15.2871C74.2207 15.2871 73.7734 15.4707 73.4883 15.8379C73.207 16.2012 73.0664 16.7988 73.0664 17.6309V21H72.0938V14.5781H72.8848L73.043 15.457H73.0898C73.2734 15.1445 73.5312 14.9004 73.8633 14.7246C74.1992 14.5488 74.5742 14.4609 74.9883 14.4609C75.9922 14.4609 76.6484 14.8242 76.957 15.5508H77.0039C77.1953 15.2148 77.4727 14.9492 77.8359 14.7539C78.1992 14.5586 78.6133 14.4609 79.0781 14.4609C79.8047 14.4609 80.3477 14.6484 80.707 15.0234C81.0703 15.3945 81.252 15.9902 81.252 16.8105V21H80.2793Z" fill="#A9A9A9"/>
<circle cx="16" cy="16" r="16" fill="#DB0A2A"/>
<g filter="url(#filter0_d)">
<path d="M7.52182 15.1163H12.9682C13.3457 15.1163 13.6693 14.7928 13.6693 14.4153C13.6693 14.0378 13.3457 13.7143 12.9682 13.7143H7.52182C7.14435 13.7143 6.8208 14.0378 6.8208 14.4153C6.8208 14.7928 7.14435 15.1163 7.52182 15.1163Z" fill="#FCFCFC"/>
<path d="M9.35517 19.7747H8.70808V18.858C8.70808 18.4805 8.38453 18.157 8.00705 18.157C7.62958 18.157 7.30603 18.4805 7.30603 18.858V20.5297C7.30603 20.9071 7.62958 21.2307 8.00705 21.2307H9.35517C9.73265 21.2307 10.0562 20.9071 10.0562 20.5297C10.0562 20.0983 9.73265 19.7747 9.35517 19.7747Z" fill="#FCFCFC"/>
<path d="M11.8897 16.6733C11.8897 16.2958 11.5661 15.9722 11.1887 15.9722H5.68833C5.31085 15.9722 4.9873 16.2958 4.9873 16.6733C4.9873 17.0507 5.31085 17.3743 5.68833 17.3743H11.1347C11.5661 17.4282 11.8897 17.1046 11.8897 16.6733Z" fill="#FCFCFC"/>
<path d="M12.3749 19.2355C11.7817 19.2355 11.1886 19.4512 10.7572 19.9365C10.3258 20.3679 10.0562 20.9611 10.0562 21.5542C10.0562 22.1474 10.3258 22.7406 10.7572 23.172C11.1886 23.6034 11.7817 23.8191 12.3749 23.8191C13.6152 23.8191 14.6398 22.7945 14.6398 21.5003C14.6398 20.2061 13.6152 19.2355 12.3749 19.2355ZM13.1838 21.5003C13.1838 21.9856 12.8063 22.3631 12.321 22.3631C11.8357 22.3631 11.4582 21.9856 11.4582 21.5003C11.4582 21.015 11.8357 20.6375 12.321 20.6375C12.8063 20.6375 13.1838 21.0689 13.1838 21.5003Z" fill="#FCFCFC"/>
<path d="M27.42 13.0881L24.1845 10.3918C24.0766 10.284 23.9149 10.2301 23.6992 10.2301H20.194V8.88193C20.194 8.50446 19.8705 8.18091 19.493 8.18091H8.00702C7.57562 8.18091 7.25208 8.50446 7.25208 8.88193V12.1713C7.25208 12.5488 7.57562 12.8724 7.9531 12.8724C8.33057 12.8724 8.65412 12.5488 8.65412 12.1713V9.63688H18.6841V19.7747H15.233C14.8555 19.7747 14.5319 20.0983 14.5319 20.4758C14.5319 20.8532 14.8555 21.1768 15.233 21.1768H20.194C20.5715 21.1768 20.8951 20.8532 20.8951 20.4758C20.8951 20.0983 20.5715 19.7747 20.194 19.7747H20.0862V11.686H23.3756L26.1258 14.0048L26.0718 19.8826C25.8561 19.9904 25.6944 20.2601 25.6944 20.5297C25.6944 20.9072 26.0179 21.2307 26.3954 21.2307H26.7729C27.1503 21.2307 27.4739 20.9072 27.4739 20.5297L27.5278 13.6812C27.6896 13.4116 27.5817 13.2498 27.42 13.0881Z" fill="#FCFCFC"/>
<path d="M23.3757 19.2355C22.7825 19.2355 22.1893 19.4512 21.7579 19.9365C21.3265 20.3679 21.0569 20.9611 21.0569 21.5542C21.0569 22.1474 21.3265 22.7406 21.7579 23.172C22.1893 23.6034 22.7825 23.8191 23.3757 23.8191C24.6159 23.8191 25.6405 22.7945 25.6405 21.5003C25.6405 20.2061 24.6159 19.2355 23.3757 19.2355ZM24.1845 21.5003C24.1845 21.9856 23.8071 22.3631 23.3217 22.3631C22.8364 22.3631 22.4589 21.9856 22.4589 21.5003C22.4589 21.015 22.8364 20.6375 23.3217 20.6375C23.8071 20.6375 24.1845 21.0689 24.1845 21.5003Z" fill="#FCFCFC"/>
<path d="M23.9366 13.2953C23.8565 13.2161 23.6963 13.1765 23.5762 13.1765H21.854C21.5737 13.1765 21.3334 13.4142 21.3334 13.6916V16.426C21.3334 16.7034 21.5737 16.9412 21.854 16.9412H24.5774C24.8578 16.9412 25.0981 16.7034 25.0981 16.426V14.6031C25.0981 14.4446 25.018 14.3257 24.9379 14.2068L23.9366 13.2953ZM22.3747 14.2068H23.3759L24.0568 14.8012V15.8712H22.4147V14.2068H22.3747Z" fill="#FCFCFC"/>
</g>
<circle cx="16" cy="16" r="15.5" fill="white" stroke="#BDBDBD"/>
<path d="M7.5217 15.1163H12.9681C13.3456 15.1163 13.6691 14.7928 13.6691 14.4153C13.6691 14.0378 13.3456 13.7143 12.9681 13.7143H7.5217C7.14423 13.7143 6.82068 14.0378 6.82068 14.4153C6.82068 14.7928 7.14423 15.1163 7.5217 15.1163Z" fill="#C4C4C4"/>
<path d="M9.35505 19.7747H8.70795V18.858C8.70795 18.4805 8.3844 18.157 8.00693 18.157C7.62946 18.157 7.30591 18.4805 7.30591 18.858V20.5297C7.30591 20.9072 7.62946 21.2307 8.00693 21.2307H9.35505C9.73253 21.2307 10.0561 20.9072 10.0561 20.5297C10.0561 20.0983 9.73253 19.7747 9.35505 19.7747Z" fill="#C4C4C4"/>
<path d="M11.8896 16.6733C11.8896 16.2958 11.566 15.9722 11.1885 15.9722H5.68821C5.31073 15.9722 4.98718 16.2958 4.98718 16.6733C4.98718 17.0507 5.31073 17.3743 5.68821 17.3743H11.1346C11.566 17.4282 11.8896 17.1047 11.8896 16.6733Z" fill="#C4C4C4"/>
<path d="M12.3748 19.2355C11.7816 19.2355 11.1885 19.4512 10.7571 19.9365C10.3257 20.3679 10.056 20.9611 10.056 21.5542C10.056 22.1474 10.3257 22.7406 10.7571 23.172C11.1885 23.6034 11.7816 23.8191 12.3748 23.8191C13.6151 23.8191 14.6396 22.7945 14.6396 21.5003C14.6396 20.2061 13.6151 19.2355 12.3748 19.2355ZM13.1837 21.5003C13.1837 21.9856 12.8062 22.3631 12.3209 22.3631C11.8356 22.3631 11.4581 21.9856 11.4581 21.5003C11.4581 21.015 11.8356 20.6375 12.3209 20.6375C12.8062 20.6375 13.1837 21.0689 13.1837 21.5003Z" fill="#C4C4C4"/>
<path d="M27.4198 13.0881L24.1844 10.3918C24.0765 10.284 23.9147 10.2301 23.699 10.2301H20.1939V8.88193C20.1939 8.50446 19.8704 8.18091 19.4929 8.18091H8.0069C7.5755 8.18091 7.25195 8.50446 7.25195 8.88193V12.1713C7.25195 12.5488 7.5755 12.8724 7.95298 12.8724C8.33045 12.8724 8.654 12.5488 8.654 12.1713V9.63688H18.684V19.7747H15.2328C14.8554 19.7747 14.5318 20.0983 14.5318 20.4758C14.5318 20.8532 14.8554 21.1768 15.2328 21.1768H20.1939C20.5714 21.1768 20.8949 20.8532 20.8949 20.4758C20.8949 20.0983 20.5714 19.7747 20.1939 19.7747H20.0861V11.686H23.3755L26.1256 14.0048L26.0717 19.8826C25.856 19.9904 25.6942 20.2601 25.6942 20.5297C25.6942 20.9072 26.0178 21.2307 26.3953 21.2307H26.7727C27.1502 21.2307 27.4738 20.9072 27.4738 20.5297L27.5277 13.6812C27.6895 13.4116 27.5816 13.2498 27.4198 13.0881Z" fill="#C4C4C4"/>
<path d="M23.3755 19.2355C22.7824 19.2355 22.1892 19.4512 21.7578 19.9365C21.3264 20.3679 21.0568 20.9611 21.0568 21.5542C21.0568 22.1474 21.3264 22.7406 21.7578 23.172C22.1892 23.6034 22.7824 23.8191 23.3755 23.8191C24.6158 23.8191 25.6404 22.7945 25.6404 21.5003C25.6404 20.2061 24.6158 19.2355 23.3755 19.2355ZM24.1844 21.5003C24.1844 21.9856 23.8069 22.3631 23.3216 22.3631C22.8363 22.3631 22.4588 21.9856 22.4588 21.5003C22.4588 21.015 22.8363 20.6375 23.3216 20.6375C23.8069 20.6375 24.1844 21.0689 24.1844 21.5003Z" fill="#C4C4C4"/>
<path d="M23.9365 13.2953C23.8564 13.2161 23.6962 13.1765 23.5761 13.1765H21.8539C21.5736 13.1765 21.3333 13.4142 21.3333 13.6916V16.426C21.3333 16.7034 21.5736 16.9412 21.8539 16.9412H24.5773C24.8577 16.9412 25.098 16.7034 25.098 16.426V14.6031C25.098 14.4446 25.0179 14.3257 24.9378 14.2068L23.9365 13.2953ZM22.3746 14.2068H23.3758L24.0567 14.8012V15.8712H22.4146V14.2068H22.3746Z" fill="#C4C4C4"/>
<defs>
<filter id="filter0_d" x="2.9873" y="8.18091" width="26.6205" height="19.6382" filterUnits="userSpaceOnUse" color-interpolation-filters="sRGB">
<feFlood flood-opacity="0" result="BackgroundImageFix"/>
<feColorMatrix in="SourceAlpha" type="matrix" values="0 0 0 0 0 0 0 0 0 0 0 0 0 0 0 0 0 0 127 0"/>
<feOffset dy="2"/>
<feGaussianBlur stdDeviation="1"/>
<feColorMatrix type="matrix" values="0 0 0 0 0 0 0 0 0 0 0 0 0 0 0 0 0 0 0.25 0"/>
<feBlend mode="normal" in2="BackgroundImageFix" result="effect1_dropShadow"/>
<feBlend mode="normal" in="SourceGraphic" in2="effect1_dropShadow" result="shape"/>
</filter>
</defs>
</svg>
