<svg width="107" height="32" viewBox="0 0 107 32" fill="none" xmlns="http://www.w3.org/2000/svg">
<rect x="0.25" y="6.25" width="106.5" height="20.5" rx="10.25" fill="white" stroke="#DB0A2A" stroke-width="0.5"/>
<path d="M51.2656 16.6348C51.2656 18.0488 50.8809 19.1309 50.1113 19.8809C49.3457 20.627 48.2422 21 46.8008 21H44.4277V12.4336H47.0527C48.3848 12.4336 49.4199 12.8027 50.1582 13.541C50.8965 14.2793 51.2656 15.3105 51.2656 16.6348ZM50.2109 16.6699C50.2109 15.5527 49.9297 14.7109 49.3672 14.1445C48.8086 13.5781 47.9766 13.2949 46.8711 13.2949H45.4238V20.1387H46.6367C47.8242 20.1387 48.7168 19.8477 49.3145 19.2656C49.9121 18.6797 50.2109 17.8145 50.2109 16.6699ZM54.0078 21H53.0352V14.5781H54.0078V21ZM52.9531 12.8379C52.9531 12.6152 53.0078 12.4531 53.1172 12.3516C53.2266 12.2461 53.3633 12.1934 53.5273 12.1934C53.6836 12.1934 53.8184 12.2461 53.9316 12.3516C54.0449 12.457 54.1016 12.6191 54.1016 12.8379C54.1016 13.0566 54.0449 13.2207 53.9316 13.3301C53.8184 13.4355 53.6836 13.4883 53.5273 13.4883C53.3633 13.4883 53.2266 13.4355 53.1172 13.3301C53.0078 13.2207 52.9531 13.0566 52.9531 12.8379ZM59.0586 21.1172C58.6406 21.1172 58.2578 21.041 57.9102 20.8887C57.5664 20.7324 57.2773 20.4941 57.043 20.1738H56.9727C57.0195 20.5488 57.043 20.9043 57.043 21.2402V23.8828H56.0703V14.5781H56.8613L56.9961 15.457H57.043C57.293 15.1055 57.584 14.8516 57.916 14.6953C58.248 14.5391 58.6289 14.4609 59.0586 14.4609C59.9102 14.4609 60.5664 14.752 61.0273 15.334C61.4922 15.916 61.7246 16.7324 61.7246 17.7832C61.7246 18.8379 61.4883 19.6582 61.0156 20.2441C60.5469 20.8262 59.8945 21.1172 59.0586 21.1172ZM58.918 15.2871C58.2617 15.2871 57.7871 15.4688 57.4941 15.832C57.2012 16.1953 57.0508 16.7734 57.043 17.5664V17.7832C57.043 18.6855 57.1934 19.332 57.4941 19.7227C57.7949 20.1094 58.2773 20.3027 58.9414 20.3027C59.4961 20.3027 59.9297 20.0781 60.2422 19.6289C60.5586 19.1797 60.7168 18.5605 60.7168 17.7715C60.7168 16.9707 60.5586 16.3574 60.2422 15.9316C59.9297 15.502 59.4883 15.2871 58.918 15.2871ZM66.3594 14.4609C66.6445 14.4609 66.9004 14.4844 67.127 14.5312L66.9922 15.4336C66.7266 15.375 66.4922 15.3457 66.2891 15.3457C65.7695 15.3457 65.3242 15.5566 64.9531 15.9785C64.5859 16.4004 64.4023 16.9258 64.4023 17.5547V21H63.4297V14.5781H64.2324L64.3438 15.7676H64.3906C64.6289 15.3496 64.916 15.0273 65.252 14.8008C65.5879 14.5742 65.957 14.4609 66.3594 14.4609ZM73.8711 17.7832C73.8711 18.8301 73.6074 19.6484 73.0801 20.2383C72.5527 20.8242 71.8242 21.1172 70.8945 21.1172C70.3203 21.1172 69.8105 20.9824 69.3652 20.7129C68.9199 20.4434 68.5762 20.0566 68.334 19.5527C68.0918 19.0488 67.9707 18.459 67.9707 17.7832C67.9707 16.7363 68.2324 15.9219 68.7559 15.3398C69.2793 14.7539 70.0059 14.4609 70.9355 14.4609C71.834 14.4609 72.5469 14.7598 73.0742 15.3574C73.6055 15.9551 73.8711 16.7637 73.8711 17.7832ZM68.9785 17.7832C68.9785 18.6035 69.1426 19.2285 69.4707 19.6582C69.7988 20.0879 70.2812 20.3027 70.918 20.3027C71.5547 20.3027 72.0371 20.0898 72.3652 19.6641C72.6973 19.2344 72.8633 18.6074 72.8633 17.7832C72.8633 16.9668 72.6973 16.3477 72.3652 15.9258C72.0371 15.5 71.5508 15.2871 70.9062 15.2871C70.2695 15.2871 69.7891 15.4961 69.4648 15.9141C69.1406 16.332 68.9785 16.9551 68.9785 17.7832ZM79.7246 19.248C79.7246 19.8457 79.502 20.3066 79.0566 20.6309C78.6113 20.9551 77.9863 21.1172 77.1816 21.1172C76.3301 21.1172 75.666 20.9824 75.1895 20.7129V19.8105C75.498 19.9668 75.8281 20.0898 76.1797 20.1797C76.5352 20.2695 76.877 20.3145 77.2051 20.3145C77.7129 20.3145 78.1035 20.2344 78.377 20.0742C78.6504 19.9102 78.7871 19.6621 78.7871 19.3301C78.7871 19.0801 78.6777 18.8672 78.459 18.6914C78.2441 18.5117 77.8223 18.3008 77.1934 18.0586C76.5957 17.8359 76.1699 17.6426 75.916 17.4785C75.666 17.3105 75.4785 17.1211 75.3535 16.9102C75.2324 16.6992 75.1719 16.4473 75.1719 16.1543C75.1719 15.6309 75.3848 15.2188 75.8105 14.918C76.2363 14.6133 76.8203 14.4609 77.5625 14.4609C78.2539 14.4609 78.9297 14.6016 79.5898 14.8828L79.2441 15.6738C78.5996 15.4082 78.0156 15.2754 77.4922 15.2754C77.0312 15.2754 76.6836 15.3477 76.4492 15.4922C76.2148 15.6367 76.0977 15.8359 76.0977 16.0898C76.0977 16.2617 76.1406 16.4082 76.2266 16.5293C76.3164 16.6504 76.459 16.7656 76.6543 16.875C76.8496 16.9844 77.2246 17.1426 77.7793 17.3496C78.541 17.627 79.0547 17.9062 79.3203 18.1875C79.5898 18.4688 79.7246 18.8223 79.7246 19.248ZM84.0254 21.1172C83.0762 21.1172 82.3262 20.8281 81.7754 20.25C81.2285 19.6719 80.9551 18.8691 80.9551 17.8418C80.9551 16.8066 81.209 15.9844 81.7168 15.375C82.2285 14.7656 82.9141 14.4609 83.7734 14.4609C84.5781 14.4609 85.2148 14.7266 85.6836 15.2578C86.1523 15.7852 86.3867 16.4824 86.3867 17.3496V17.9648H81.9629C81.9824 18.7188 82.1719 19.291 82.5312 19.6816C82.8945 20.0723 83.4043 20.2676 84.0605 20.2676C84.752 20.2676 85.4355 20.123 86.1113 19.834V20.7012C85.7676 20.8496 85.4414 20.9551 85.1328 21.0176C84.8281 21.084 84.459 21.1172 84.0254 21.1172ZM83.7617 15.2754C83.2461 15.2754 82.834 15.4434 82.5254 15.7793C82.2207 16.1152 82.041 16.5801 81.9863 17.1738H85.3438C85.3438 16.5605 85.207 16.0918 84.9336 15.7676C84.6602 15.4395 84.2695 15.2754 83.7617 15.2754ZM92.1934 19.248C92.1934 19.8457 91.9707 20.3066 91.5254 20.6309C91.0801 20.9551 90.4551 21.1172 89.6504 21.1172C88.7988 21.1172 88.1348 20.9824 87.6582 20.7129V19.8105C87.9668 19.9668 88.2969 20.0898 88.6484 20.1797C89.0039 20.2695 89.3457 20.3145 89.6738 20.3145C90.1816 20.3145 90.5723 20.2344 90.8457 20.0742C91.1191 19.9102 91.2559 19.6621 91.2559 19.3301C91.2559 19.0801 91.1465 18.8672 90.9277 18.6914C90.7129 18.5117 90.291 18.3008 89.6621 18.0586C89.0645 17.8359 88.6387 17.6426 88.3848 17.4785C88.1348 17.3105 87.9473 17.1211 87.8223 16.9102C87.7012 16.6992 87.6406 16.4473 87.6406 16.1543C87.6406 15.6309 87.8535 15.2188 88.2793 14.918C88.7051 14.6133 89.2891 14.4609 90.0312 14.4609C90.7227 14.4609 91.3984 14.6016 92.0586 14.8828L91.7129 15.6738C91.0684 15.4082 90.4844 15.2754 89.9609 15.2754C89.5 15.2754 89.1523 15.3477 88.918 15.4922C88.6836 15.6367 88.5664 15.8359 88.5664 16.0898C88.5664 16.2617 88.6094 16.4082 88.6953 16.5293C88.7852 16.6504 88.9277 16.7656 89.123 16.875C89.3184 16.9844 89.6934 17.1426 90.248 17.3496C91.0098 17.627 91.5234 17.9062 91.7891 18.1875C92.0586 18.4688 92.1934 18.8223 92.1934 19.248Z" fill="#DB0A2A"/>
<circle cx="16" cy="16" r="16" fill="#DB0A2A"/>
<g filter="url(#filter0_d)">
<path d="M24.847 10.8549C24.847 10.7921 24.7842 10.7294 24.7842 10.6666C24.7215 10.6039 24.7215 10.5412 24.6587 10.4784C24.4077 10.1647 24.1568 9.9137 23.7803 9.66272L17.3803 6.0235C16.5019 5.52154 15.4979 5.52154 14.6195 6.0235L11.7332 7.65488C11.545 7.71762 11.3568 7.84311 11.2313 7.9686L8.28225 9.66272C7.96852 9.85096 7.6548 10.1019 7.40382 10.4157C7.34107 10.4784 7.34107 10.5412 7.27833 10.6039C7.21558 10.6666 7.21558 10.7294 7.21558 10.8549C7.02735 11.1686 6.90186 11.6078 6.90186 12.047V19.3255C6.90186 20.3294 7.40382 21.2078 8.28225 21.7098L14.6195 25.349C14.9332 25.5372 15.247 25.6 15.5607 25.6627C15.6862 25.7255 15.8744 25.7255 15.9999 25.7255C16.1881 25.7255 16.3136 25.6627 16.4391 25.6C16.7528 25.5372 17.0666 25.4117 17.3803 25.2862L23.7175 21.647C24.596 21.1451 25.0979 20.2666 25.0979 19.2627V12.047C25.0979 11.6078 25.0352 11.1686 24.847 10.8549ZM15.5607 7.65488C15.6862 7.59213 15.8744 7.52939 15.9999 7.52939C16.1254 7.52939 16.3136 7.59213 16.4391 7.65488L22.2744 10.9804L20.1411 12.2353L13.9293 8.6588L15.5607 7.65488ZM15.9999 14.5568L9.72538 10.9176L11.9215 9.66272L18.196 13.2392L15.9999 14.5568ZM9.22342 20.0784C8.97244 19.8902 8.78421 19.5764 8.78421 19.2627V12.549L15.0587 16.1882V23.3412L9.22342 20.0784ZM22.7764 20.0157L16.9411 23.4039V16.1882L23.2156 12.549V19.2627C23.2156 19.5764 23.0901 19.8902 22.7764 20.0157Z" fill="#FCFCFC"/>
</g>
<defs>
<filter id="filter0_d" x="4.90186" y="5.64703" width="22.1961" height="24.0784" filterUnits="userSpaceOnUse" color-interpolation-filters="sRGB">
<feFlood flood-opacity="0" result="BackgroundImageFix"/>
<feColorMatrix in="SourceAlpha" type="matrix" values="0 0 0 0 0 0 0 0 0 0 0 0 0 0 0 0 0 0 127 0"/>
<feOffset dy="2"/>
<feGaussianBlur stdDeviation="1"/>
<feColorMatrix type="matrix" values="0 0 0 0 0 0 0 0 0 0 0 0 0 0 0 0 0 0 0.25 0"/>
<feBlend mode="normal" in2="BackgroundImageFix" result="effect1_dropShadow"/>
<feBlend mode="normal" in="SourceGraphic" in2="effect1_dropShadow" result="shape"/>
</filter>
</defs>
</svg>
