<svg width="66" height="66" viewBox="0 0 66 66" fill="none" xmlns="http://www.w3.org/2000/svg">
<path d="M32.819 38.65C30.7098 38.65 29 36.9402 29 34.831V16.819C29 14.7098 30.7098 13 32.819 13C34.9282 13 36.638 14.7098 36.638 16.819V34.831C36.638 36.9402 34.9282 38.65 32.819 38.65ZM32.819 53.869C30.7098 53.869 29 52.1592 29 50.05V49.081C29 46.9718 30.7098 45.262 32.819 45.262C34.9282 45.262 36.638 46.9718 36.638 49.081V50.05C36.638 52.1592 34.9282 53.869 32.819 53.869Z" fill="#DB0A2A"/>
<circle cx="33" cy="33" r="30.5" stroke="#DB0A2A" stroke-width="5"/>
</svg>
