<svg width="18" height="20" viewBox="0 0 18 20" fill="none" xmlns="http://www.w3.org/2000/svg">
<g filter="url(#filter0_d)">
<path d="M15.6351 4.14142C15.6351 4.09436 15.588 4.0473 15.588 4.00024C15.541 3.95318 15.541 3.90612 15.4939 3.85906C15.3057 3.62377 15.1174 3.43553 14.8351 3.2473L10.0351 0.517888C9.37627 0.141417 8.62333 0.141417 7.96451 0.517888L5.7998 1.74142C5.65862 1.78848 5.51745 1.88259 5.42333 1.97671L3.21156 3.2473C2.97627 3.38848 2.74098 3.57671 2.55274 3.81201C2.50568 3.85906 2.50568 3.90612 2.45862 3.95318C2.41156 4.00024 2.41156 4.0473 2.41156 4.14142C2.27039 4.37671 2.17627 4.70612 2.17627 5.03553V10.4944C2.17627 11.2473 2.55274 11.9061 3.21156 12.2826L7.96451 15.012C8.1998 15.1532 8.43509 15.2002 8.67039 15.2473C8.76451 15.2944 8.90568 15.2944 8.9998 15.2944C9.14098 15.2944 9.23509 15.2473 9.32921 15.2002C9.56451 15.1532 9.7998 15.0591 10.0351 14.9649L14.788 12.2355C15.4469 11.8591 15.8233 11.2002 15.8233 10.4473V5.03553C15.8233 4.70612 15.7763 4.37671 15.6351 4.14142ZM8.67039 1.74142C8.76451 1.69436 8.90568 1.6473 8.9998 1.6473C9.09392 1.6473 9.23509 1.69436 9.32921 1.74142L13.7057 4.23553L12.1057 5.17671L7.44686 2.49436L8.67039 1.74142ZM8.9998 6.91789L4.29392 4.18848L5.94098 3.2473L10.6469 5.92965L8.9998 6.91789ZM3.91745 11.0591C3.72921 10.9179 3.58803 10.6826 3.58803 10.4473V5.412L8.29392 8.14142V13.5061L3.91745 11.0591ZM14.0822 11.012L9.70568 13.5532V8.14142L14.4116 5.412V10.4473C14.4116 10.6826 14.3174 10.9179 14.0822 11.012Z" fill="#FCFCFC"/>
</g>
<defs>
<filter id="filter0_d" x="0.17627" y="0.235535" width="17.6471" height="19.0588" filterUnits="userSpaceOnUse" color-interpolation-filters="sRGB">
<feFlood flood-opacity="0" result="BackgroundImageFix"/>
<feColorMatrix in="SourceAlpha" type="matrix" values="0 0 0 0 0 0 0 0 0 0 0 0 0 0 0 0 0 0 127 0"/>
<feOffset dy="2"/>
<feGaussianBlur stdDeviation="1"/>
<feColorMatrix type="matrix" values="0 0 0 0 0 0 0 0 0 0 0 0 0 0 0 0 0 0 0.25 0"/>
<feBlend mode="normal" in2="BackgroundImageFix" result="effect1_dropShadow"/>
<feBlend mode="normal" in="SourceGraphic" in2="effect1_dropShadow" result="shape"/>
</filter>
</defs>
</svg>
