<svg width="16" height="19" viewBox="0 0 16 19" fill="none" xmlns="http://www.w3.org/2000/svg">
<g filter="url(#filter0_d)">
<path d="M7.85897 0.706116C4.94132 0.706116 2.58838 3.05906 2.58838 5.9767C2.58838 9.50612 7.85897 14.8238 7.85897 14.8238C7.85897 14.8238 13.1296 9.55317 13.1296 6.02376C13.1766 3.05906 10.8237 0.706116 7.85897 0.706116C7.90603 0.706116 7.85897 0.706116 7.85897 0.706116ZM7.85897 2.44729C9.78838 2.44729 11.3884 4.04729 11.3884 5.9767C11.3884 7.90612 9.78838 9.50612 7.85897 9.50612C5.92956 9.50612 4.32956 7.90612 4.32956 5.9767C4.32956 4.04729 5.92956 2.44729 7.85897 2.44729Z" fill="white"/>
</g>
<defs>
<filter id="filter0_d" x="0.588379" y="0.706116" width="14.5419" height="18.1176" filterUnits="userSpaceOnUse" color-interpolation-filters="sRGB">
<feFlood flood-opacity="0" result="BackgroundImageFix"/>
<feColorMatrix in="SourceAlpha" type="matrix" values="0 0 0 0 0 0 0 0 0 0 0 0 0 0 0 0 0 0 127 0"/>
<feOffset dy="2"/>
<feGaussianBlur stdDeviation="1"/>
<feColorMatrix type="matrix" values="0 0 0 0 0 0 0 0 0 0 0 0 0 0 0 0 0 0 0.25 0"/>
<feBlend mode="normal" in2="BackgroundImageFix" result="effect1_dropShadow"/>
<feBlend mode="normal" in="SourceGraphic" in2="effect1_dropShadow" result="shape"/>
</filter>
</defs>
</svg>
