<svg width="22" height="16" viewBox="0 0 22 16" fill="none" xmlns="http://www.w3.org/2000/svg">
<g filter="url(#filter0_d)">
<path d="M4.641 5.33749H8.72581C9.00891 5.33749 9.25157 5.09482 9.25157 4.81172C9.25157 4.52861 9.00891 4.28595 8.72581 4.28595H4.641C4.3579 4.28595 4.11523 4.52861 4.11523 4.81172C4.11523 5.09482 4.3579 5.33749 4.641 5.33749Z" fill="#FCFCFC"/>
<path d="M6.01635 8.83129H5.53103V8.14375C5.53103 7.86064 5.28836 7.61798 5.00526 7.61798C4.72215 7.61798 4.47949 7.86064 4.47949 8.14375V9.3975C4.47949 9.68061 4.72215 9.92327 5.00526 9.92327H6.01635C6.29946 9.92327 6.54212 9.68061 6.54212 9.3975C6.54212 9.07395 6.29946 8.83129 6.01635 8.83129Z" fill="#FCFCFC"/>
<path d="M7.91702 6.50514C7.91702 6.22203 7.67436 5.97937 7.39125 5.97937H3.266C2.9829 5.97937 2.74023 6.22203 2.74023 6.50514C2.74023 6.78824 2.9829 7.0309 3.266 7.0309H7.35081C7.67436 7.07135 7.91702 6.82869 7.91702 6.50514Z" fill="#FCFCFC"/>
<path d="M8.28107 8.42688C7.83619 8.42688 7.39131 8.58865 7.06776 8.95265C6.74421 9.2762 6.54199 9.72108 6.54199 10.166C6.54199 10.6108 6.74421 11.0557 7.06776 11.3793C7.39131 11.7028 7.83619 11.8646 8.28107 11.8646C9.21127 11.8646 9.9797 11.0962 9.9797 10.1255C9.9797 9.15487 9.21127 8.42688 8.28107 8.42688ZM8.88772 10.1255C8.88772 10.4895 8.60462 10.7726 8.24063 10.7726C7.87663 10.7726 7.59353 10.4895 7.59353 10.1255C7.59353 9.76152 7.87663 9.47841 8.24063 9.47841C8.60462 9.47841 8.88772 9.80196 8.88772 10.1255Z" fill="#FCFCFC"/>
<path d="M19.5649 3.8163L17.1383 1.79411C17.0574 1.71323 16.936 1.67278 16.7743 1.67278H14.1454V0.661692C14.1454 0.378587 13.9028 0.135925 13.6197 0.135925H5.00518C4.68163 0.135925 4.43896 0.378587 4.43896 0.661692V3.12875C4.43896 3.41186 4.68163 3.65452 4.96473 3.65452C5.24784 3.65452 5.4905 3.41186 5.4905 3.12875V1.2279H13.013V8.83131H10.4246C10.1415 8.83131 9.89885 9.07397 9.89885 9.35707C9.89885 9.64018 10.1415 9.88284 10.4246 9.88284H14.1454C14.4285 9.88284 14.6712 9.64018 14.6712 9.35707C14.6712 9.07397 14.4285 8.83131 14.1454 8.83131H14.0645V2.76476H16.5316L18.5942 4.50384L18.5538 8.91219C18.392 8.99308 18.2707 9.1953 18.2707 9.39752C18.2707 9.68062 18.5133 9.92328 18.7965 9.92328H19.0796C19.3627 9.92328 19.6053 9.68062 19.6053 9.39752L19.6458 4.26118C19.7671 4.05896 19.6862 3.93763 19.5649 3.8163Z" fill="#FCFCFC"/>
<path d="M16.5316 8.42688C16.0867 8.42688 15.6418 8.58865 15.3182 8.95265C14.9947 9.2762 14.7925 9.72108 14.7925 10.166C14.7925 10.6108 14.9947 11.0557 15.3182 11.3793C15.6418 11.7028 16.0867 11.8646 16.5316 11.8646C17.4618 11.8646 18.2302 11.0962 18.2302 10.1255C18.2302 9.15487 17.4618 8.42688 16.5316 8.42688ZM17.1382 10.1255C17.1382 10.4895 16.8551 10.7726 16.4911 10.7726C16.1271 10.7726 15.844 10.4895 15.844 10.1255C15.844 9.76152 16.1271 9.47841 16.4911 9.47841C16.8551 9.47841 17.1382 9.80196 17.1382 10.1255Z" fill="#FCFCFC"/>
<path d="M16.9524 3.97173C16.8924 3.91229 16.7722 3.88257 16.6821 3.88257H15.3905C15.1802 3.88257 15 4.0609 15 4.26895V6.31972C15 6.52777 15.1802 6.7061 15.3905 6.7061H17.433C17.6433 6.7061 17.8235 6.52777 17.8235 6.31972V4.95254C17.8235 4.83365 17.7635 4.74449 17.7034 4.65532L16.9524 3.97173ZM15.781 4.65532H16.5319L17.0426 5.10114V5.90362H15.811V4.65532H15.781Z" fill="#FCFCFC"/>
</g>
<defs>
<filter id="filter0_d" x="0.740234" y="0.135925" width="20.9656" height="15.7287" filterUnits="userSpaceOnUse" color-interpolation-filters="sRGB">
<feFlood flood-opacity="0" result="BackgroundImageFix"/>
<feColorMatrix in="SourceAlpha" type="matrix" values="0 0 0 0 0 0 0 0 0 0 0 0 0 0 0 0 0 0 127 0"/>
<feOffset dy="2"/>
<feGaussianBlur stdDeviation="1"/>
<feColorMatrix type="matrix" values="0 0 0 0 0 0 0 0 0 0 0 0 0 0 0 0 0 0 0.25 0"/>
<feBlend mode="normal" in2="BackgroundImageFix" result="effect1_dropShadow"/>
<feBlend mode="normal" in="SourceGraphic" in2="effect1_dropShadow" result="shape"/>
</filter>
</defs>
</svg>
