<svg width="23" height="16" viewBox="0 0 23 16" fill="none" xmlns="http://www.w3.org/2000/svg">
<path d="M1.08407 6.96814L1.09363 6.95909L1.1027 6.94954C1.51175 6.51923 2.11726 6.54887 2.44342 6.9301L2.45193 6.94005L2.46095 6.94954L8.05539 12.8347L8.41778 12.4902L8.05539 12.8347C8.19859 12.9853 8.38553 13.0371 8.53681 13.0371C8.68788 13.0371 8.87454 12.9855 9.01767 12.8353C9.01785 12.8351 9.01804 12.8349 9.01823 12.8347L20.2657 1.06537L20.2666 1.06441C20.6757 0.634104 21.2812 0.663744 21.6073 1.04497C22.0139 1.52021 21.9995 2.21105 21.6435 2.54811L21.6335 2.55762L21.6239 2.56767L10.436 14.3996C10.4359 14.3997 10.4358 14.3998 10.4357 14.3999C9.93845 14.9228 9.29755 15.1832 8.59632 15.1832C7.90257 15.1832 7.25912 14.9282 6.69713 14.337L1.1027 8.45184C0.680734 8.00794 0.707532 7.32463 1.08407 6.96814Z" fill="white" stroke="#DB0A2A"/>
</svg>
