<svg width="15" height="20" viewBox="0 0 15 20" fill="none" xmlns="http://www.w3.org/2000/svg">
<path d="M7.81168 0.274536C3.92148 0.274536 0.784226 3.41179 0.784226 7.30199C0.784226 12.0079 7.81168 19.0981 7.81168 19.0981C7.81168 19.0981 14.8391 12.0706 14.8391 7.36473C14.9019 3.41179 11.7646 0.274536 7.81168 0.274536C7.87442 0.274536 7.81168 0.274536 7.81168 0.274536ZM7.81168 2.5961C10.3842 2.5961 12.5176 4.72944 12.5176 7.30199C12.5176 9.87454 10.3842 12.0079 7.81168 12.0079C5.23913 12.0079 3.1058 9.87454 3.1058 7.30199C3.1058 4.72944 5.23913 2.5961 7.81168 2.5961Z" fill="#BDBDBD"/>
</svg>
