<svg width="24" height="16" viewBox="0 0 24 16" fill="none" xmlns="http://www.w3.org/2000/svg">
<path d="M3.52171 7.11634H8.96812C9.34559 7.11634 9.66914 6.79279 9.66914 6.41532C9.66914 6.03784 9.34559 5.71429 8.96812 5.71429H3.52171C3.14424 5.71429 2.82069 6.03784 2.82069 6.41532C2.82069 6.79279 3.14424 7.11634 3.52171 7.11634Z" fill="#C4C4C4"/>
<path d="M5.35506 11.7747H4.70796V10.858C4.70796 10.4805 4.38441 10.157 4.00694 10.157C3.62946 10.157 3.30592 10.4805 3.30592 10.858V12.5297C3.30592 12.9072 3.62946 13.2307 4.00694 13.2307H5.35506C5.73253 13.2307 6.05608 12.9072 6.05608 12.5297C6.05608 12.0983 5.73253 11.7747 5.35506 11.7747Z" fill="#C4C4C4"/>
<path d="M7.88955 8.67325C7.88955 8.29578 7.566 7.97223 7.18852 7.97223H1.68819C1.31072 7.97223 0.987167 8.29578 0.987167 8.67325C0.987167 9.05073 1.31072 9.37427 1.68819 9.37427H7.1346C7.566 9.4282 7.88955 9.10465 7.88955 8.67325Z" fill="#C4C4C4"/>
<path d="M8.37484 11.2355C7.78167 11.2355 7.1885 11.4512 6.7571 11.9365C6.3257 12.3679 6.05608 12.9611 6.05608 13.5542C6.05608 14.1474 6.3257 14.7406 6.7571 15.172C7.1885 15.6034 7.78167 15.8191 8.37484 15.8191C9.61512 15.8191 10.6397 14.7945 10.6397 13.5003C10.6397 12.2061 9.61512 11.2355 8.37484 11.2355ZM9.18372 13.5003C9.18372 13.9856 8.80624 14.3631 8.32092 14.3631C7.8356 14.3631 7.45812 13.9856 7.45812 13.5003C7.45812 13.015 7.8356 12.6375 8.32092 12.6375C8.80624 12.6375 9.18372 13.0689 9.18372 13.5003Z" fill="#C4C4C4"/>
<path d="M23.4199 5.08807L20.1844 2.39183C20.0765 2.28398 19.9148 2.23005 19.6991 2.23005H16.194V0.881931C16.194 0.504457 15.8704 0.180908 15.4929 0.180908H4.00694C3.57554 0.180908 3.25199 0.504457 3.25199 0.881931V4.17135C3.25199 4.54882 3.57554 4.87237 3.95301 4.87237C4.33049 4.87237 4.65404 4.54882 4.65404 4.17135V1.63688H14.6841V11.7747H11.2329C10.8554 11.7747 10.5318 12.0983 10.5318 12.4758C10.5318 12.8532 10.8554 13.1768 11.2329 13.1768H16.194C16.5714 13.1768 16.895 12.8532 16.895 12.4758C16.895 12.0983 16.5714 11.7747 16.194 11.7747H16.0861V3.68602H19.3755L22.1257 6.00479L22.0718 11.8826C21.8561 11.9904 21.6943 12.2601 21.6943 12.5297C21.6943 12.9072 22.0178 13.2307 22.3953 13.2307H22.7728C23.1503 13.2307 23.4738 12.9072 23.4738 12.5297L23.5277 5.68124C23.6895 5.41162 23.5817 5.24984 23.4199 5.08807Z" fill="#C4C4C4"/>
<path d="M19.3756 11.2355C18.7824 11.2355 18.1892 11.4512 17.7578 11.9365C17.3264 12.3679 17.0568 12.9611 17.0568 13.5542C17.0568 14.1474 17.3264 14.7406 17.7578 15.172C18.1892 15.6034 18.7824 15.8191 19.3756 15.8191C20.6158 15.8191 21.6404 14.7945 21.6404 13.5003C21.6404 12.2061 20.6158 11.2355 19.3756 11.2355ZM20.1844 13.5003C20.1844 13.9856 19.807 14.3631 19.3216 14.3631C18.8363 14.3631 18.4588 13.9856 18.4588 13.5003C18.4588 13.015 18.8363 12.6375 19.3216 12.6375C19.807 12.6375 20.1844 13.0689 20.1844 13.5003Z" fill="#C4C4C4"/>
<path d="M19.9365 5.29534C19.8564 5.21608 19.6962 5.17645 19.576 5.17645H17.8539C17.5735 5.17645 17.3332 5.41422 17.3332 5.69162V8.42599C17.3332 8.70339 17.5735 8.94116 17.8539 8.94116H20.5773C20.8576 8.94116 21.0979 8.70339 21.0979 8.42599V6.60308C21.0979 6.44456 21.0178 6.32568 20.9377 6.20679L19.9365 5.29534ZM18.3745 6.20679H19.3758L20.0566 6.80122V7.87119H18.4146V6.20679H18.3745Z" fill="#C4C4C4"/>
</svg>
