<svg width="1278" height="336" viewBox="0 0 1278 336" fill="none" xmlns="http://www.w3.org/2000/svg">
<mask id="path-1-inside-1" fill="white">
<path d="M304.204 206.028H299.579V130.707C299.579 129.942 299.266 129.212 298.744 128.655C298.188 128.099 297.457 127.821 296.692 127.821H258.997V93.0468C258.997 92.2818 258.684 91.5515 258.163 90.9952C257.606 90.4388 256.876 90.1606 256.111 90.1606H253.225V81.4671C253.225 80.702 252.912 79.9718 252.39 79.4154C251.834 78.859 251.104 78.5808 250.339 78.5808H209.757C208.992 78.5808 208.262 78.8938 207.706 79.4154C207.149 79.9718 206.871 80.702 206.871 81.4671V90.1606H203.985C203.22 90.1606 202.489 90.4735 201.933 90.9952C201.377 91.5515 201.098 92.2818 201.098 93.0468V206.028H177.939V191.318C181.868 190.762 185.554 189.058 188.51 186.415C191.466 183.772 193.622 180.33 194.63 176.505C195.674 172.679 195.535 168.611 194.283 164.855C193.031 161.1 190.701 157.761 187.606 155.327C188.893 153.136 189.553 150.633 189.553 148.094C189.553 145.556 188.893 143.052 187.606 140.861C186.319 138.67 184.511 136.827 182.32 135.576C180.13 134.289 177.626 133.628 175.087 133.628C172.549 133.628 170.045 134.289 167.854 135.576C165.664 136.862 163.821 138.67 162.569 140.861C161.282 143.052 160.621 145.556 160.621 148.094C160.621 150.633 161.282 153.136 162.569 155.327C159.439 157.796 157.109 161.1 155.892 164.855C154.64 168.611 154.536 172.679 155.544 176.505C156.588 180.33 158.709 183.772 161.665 186.415C164.62 189.058 168.306 190.762 172.236 191.318V195.526L164.829 191.84C164.481 191.666 164.134 191.562 163.751 191.527C163.369 191.492 162.986 191.527 162.638 191.666C162.291 191.77 161.943 191.979 161.665 192.222C161.386 192.466 161.143 192.779 160.969 193.127C160.795 193.474 160.691 193.857 160.656 194.239C160.621 194.622 160.691 195.004 160.795 195.352C160.934 195.7 161.108 196.048 161.352 196.326C161.595 196.604 161.908 196.847 162.256 197.021L172.236 202.029V206.028H149.076C148.311 206.028 147.581 206.341 147.025 206.862C146.468 207.419 146.19 208.149 146.19 208.914C146.19 209.679 146.503 210.409 147.025 210.966C147.581 211.522 148.311 211.8 149.076 211.8H304.343C305.108 211.8 305.838 211.487 306.394 210.966C306.951 210.409 307.229 209.679 307.229 208.914C307.229 208.149 306.916 207.419 306.394 206.862C305.699 206.341 304.969 206.028 304.204 206.028ZM160.517 171.254C160.517 168.68 161.213 166.142 162.534 163.916C163.855 161.691 165.733 159.848 167.994 158.596C168.376 158.387 168.724 158.074 168.967 157.727C169.211 157.379 169.384 156.962 169.454 156.509C169.524 156.057 169.489 155.64 169.35 155.188C169.211 154.771 169.002 154.388 168.689 154.075C167.507 152.858 166.742 151.293 166.463 149.624C166.185 147.955 166.359 146.216 167.055 144.686C167.715 143.121 168.828 141.8 170.254 140.861C171.68 139.922 173.349 139.435 175.018 139.435C176.722 139.435 178.391 139.922 179.782 140.861C181.208 141.8 182.32 143.121 182.981 144.686C183.642 146.251 183.851 147.955 183.572 149.624C183.259 151.293 182.494 152.858 181.347 154.075C181.034 154.388 180.825 154.771 180.686 155.188C180.547 155.605 180.512 156.057 180.582 156.509C180.651 156.962 180.825 157.379 181.069 157.727C181.312 158.074 181.66 158.387 182.042 158.596C184.65 160.022 186.737 162.212 188.023 164.89C189.345 167.533 189.797 170.558 189.345 173.479C188.893 176.4 187.571 179.113 185.52 181.269C183.468 183.425 180.825 184.885 177.939 185.476V174.175C177.939 173.41 177.626 172.679 177.104 172.123C176.548 171.567 175.818 171.288 175.053 171.288C174.288 171.288 173.557 171.601 173.001 172.123C172.445 172.679 172.166 173.41 172.166 174.175V185.476C168.898 184.816 165.977 183.042 163.855 180.434C161.665 177.826 160.517 174.592 160.517 171.254ZM293.771 133.593V205.958L258.997 205.332V133.593H293.771ZM212.643 84.3533H247.417V90.1606H212.643V84.3533ZM206.871 95.9331H253.225V206.028H250.339V174.175C250.339 173.41 250.026 172.679 249.504 172.123C248.948 171.567 248.217 171.288 247.452 171.288H212.678C211.913 171.288 211.183 171.601 210.627 172.123C210.07 172.679 209.792 173.41 209.792 174.175V206.028H206.906V95.9331H206.871ZM215.564 206.028V177.061H227.144V206.028H215.564ZM232.917 206.028V177.061H244.496V206.028H232.917Z"/>
</mask>
<path d="M304.204 206.028H299.579V130.707C299.579 129.942 299.266 129.212 298.744 128.655C298.188 128.099 297.457 127.821 296.692 127.821H258.997V93.0468C258.997 92.2818 258.684 91.5515 258.163 90.9952C257.606 90.4388 256.876 90.1606 256.111 90.1606H253.225V81.4671C253.225 80.702 252.912 79.9718 252.39 79.4154C251.834 78.859 251.104 78.5808 250.339 78.5808H209.757C208.992 78.5808 208.262 78.8938 207.706 79.4154C207.149 79.9718 206.871 80.702 206.871 81.4671V90.1606H203.985C203.22 90.1606 202.489 90.4735 201.933 90.9952C201.377 91.5515 201.098 92.2818 201.098 93.0468V206.028H177.939V191.318C181.868 190.762 185.554 189.058 188.51 186.415C191.466 183.772 193.622 180.33 194.63 176.505C195.674 172.679 195.535 168.611 194.283 164.855C193.031 161.1 190.701 157.761 187.606 155.327C188.893 153.136 189.553 150.633 189.553 148.094C189.553 145.556 188.893 143.052 187.606 140.861C186.319 138.67 184.511 136.827 182.32 135.576C180.13 134.289 177.626 133.628 175.087 133.628C172.549 133.628 170.045 134.289 167.854 135.576C165.664 136.862 163.821 138.67 162.569 140.861C161.282 143.052 160.621 145.556 160.621 148.094C160.621 150.633 161.282 153.136 162.569 155.327C159.439 157.796 157.109 161.1 155.892 164.855C154.64 168.611 154.536 172.679 155.544 176.505C156.588 180.33 158.709 183.772 161.665 186.415C164.62 189.058 168.306 190.762 172.236 191.318V195.526L164.829 191.84C164.481 191.666 164.134 191.562 163.751 191.527C163.369 191.492 162.986 191.527 162.638 191.666C162.291 191.77 161.943 191.979 161.665 192.222C161.386 192.466 161.143 192.779 160.969 193.127C160.795 193.474 160.691 193.857 160.656 194.239C160.621 194.622 160.691 195.004 160.795 195.352C160.934 195.7 161.108 196.048 161.352 196.326C161.595 196.604 161.908 196.847 162.256 197.021L172.236 202.029V206.028H149.076C148.311 206.028 147.581 206.341 147.025 206.862C146.468 207.419 146.19 208.149 146.19 208.914C146.19 209.679 146.503 210.409 147.025 210.966C147.581 211.522 148.311 211.8 149.076 211.8H304.343C305.108 211.8 305.838 211.487 306.394 210.966C306.951 210.409 307.229 209.679 307.229 208.914C307.229 208.149 306.916 207.419 306.394 206.862C305.699 206.341 304.969 206.028 304.204 206.028ZM160.517 171.254C160.517 168.68 161.213 166.142 162.534 163.916C163.855 161.691 165.733 159.848 167.994 158.596C168.376 158.387 168.724 158.074 168.967 157.727C169.211 157.379 169.384 156.962 169.454 156.509C169.524 156.057 169.489 155.64 169.35 155.188C169.211 154.771 169.002 154.388 168.689 154.075C167.507 152.858 166.742 151.293 166.463 149.624C166.185 147.955 166.359 146.216 167.055 144.686C167.715 143.121 168.828 141.8 170.254 140.861C171.68 139.922 173.349 139.435 175.018 139.435C176.722 139.435 178.391 139.922 179.782 140.861C181.208 141.8 182.32 143.121 182.981 144.686C183.642 146.251 183.851 147.955 183.572 149.624C183.259 151.293 182.494 152.858 181.347 154.075C181.034 154.388 180.825 154.771 180.686 155.188C180.547 155.605 180.512 156.057 180.582 156.509C180.651 156.962 180.825 157.379 181.069 157.727C181.312 158.074 181.66 158.387 182.042 158.596C184.65 160.022 186.737 162.212 188.023 164.89C189.345 167.533 189.797 170.558 189.345 173.479C188.893 176.4 187.571 179.113 185.52 181.269C183.468 183.425 180.825 184.885 177.939 185.476V174.175C177.939 173.41 177.626 172.679 177.104 172.123C176.548 171.567 175.818 171.288 175.053 171.288C174.288 171.288 173.557 171.601 173.001 172.123C172.445 172.679 172.166 173.41 172.166 174.175V185.476C168.898 184.816 165.977 183.042 163.855 180.434C161.665 177.826 160.517 174.592 160.517 171.254ZM293.771 133.593V205.958L258.997 205.332V133.593H293.771ZM212.643 84.3533H247.417V90.1606H212.643V84.3533ZM206.871 95.9331H253.225V206.028H250.339V174.175C250.339 173.41 250.026 172.679 249.504 172.123C248.948 171.567 248.217 171.288 247.452 171.288H212.678C211.913 171.288 211.183 171.601 210.627 172.123C210.07 172.679 209.792 173.41 209.792 174.175V206.028H206.906V95.9331H206.871ZM215.564 206.028V177.061H227.144V206.028H215.564ZM232.917 206.028V177.061H244.496V206.028H232.917Z" fill="#E0E0E0" stroke="#E0E0E0" stroke-width="2" mask="url(#path-1-inside-1)"/>
<path d="M245.033 150.98V150.48H244.533H232.953H232.453V150.98V159.673V160.173H232.953H244.533H245.033V159.673V150.98ZM215.566 150.48H215.066V150.98V159.673V160.173H215.566H227.146H227.646V159.673V150.98V150.48H227.146H215.566ZM247.419 164.981H212.645C212.022 164.981 211.417 164.728 210.947 164.292C210.512 163.822 210.259 163.217 210.259 162.594V148.094C210.259 147.455 210.488 146.857 210.941 146.401C211.412 145.963 212.02 145.707 212.645 145.707H247.419C248.058 145.707 248.656 145.937 249.111 146.39C249.55 146.861 249.805 147.469 249.805 148.094V162.594C249.805 163.233 249.575 163.831 249.123 164.287C248.652 164.726 248.044 164.981 247.419 164.981Z" fill="#E0E0E0" stroke="#E0E0E0"/>
<path d="M176.687 167.173C176.216 167.612 175.608 167.867 174.983 167.867C174.332 167.867 173.708 167.629 173.296 167.19C172.854 166.719 172.597 166.108 172.597 165.481V162.595C172.597 161.943 172.834 161.319 173.273 160.908C173.745 160.466 174.355 160.208 174.983 160.208C175.622 160.208 176.22 160.438 176.675 160.891C177.114 161.361 177.369 161.969 177.369 162.595V165.481C177.369 166.119 177.139 166.717 176.687 167.173Z" fill="#E0E0E0" stroke="#E0E0E0"/>
<path d="M184.858 67.0653L184.939 67.4662H185.348H192.407C194.606 67.4662 196.669 68.3184 198.209 69.8583C199.748 71.3974 200.601 73.4952 200.601 75.6598C200.601 77.8581 199.749 79.9213 198.209 81.4612C196.67 83.0003 194.572 83.8533 192.407 83.8533H157.633C155.501 83.8533 153.472 83.0336 151.967 81.5617L151.967 81.5616L151.959 81.5541C150.425 80.1176 149.538 78.1213 149.439 75.9844C149.341 73.8574 150.094 71.7941 151.503 70.2209C152.914 68.6461 154.881 67.6632 156.977 67.4995L157.353 67.4701L157.428 67.1001C158.066 63.9443 159.778 61.0902 162.262 59.0421C164.781 56.9939 167.903 55.8865 171.126 55.8865C174.351 55.8865 177.506 56.9954 179.988 59.0411L179.988 59.0411L179.994 59.0457C182.508 61.0572 184.22 63.9089 184.858 67.0653ZM156.335 72.5179L156.52 72.9822L156.335 72.5179C155.921 72.6834 155.552 72.9309 155.228 73.2545C154.742 73.7403 154.414 74.3521 154.29 75.0112C154.167 75.6674 154.25 76.3548 154.491 76.9582L154.497 76.9713L154.503 76.984C154.775 77.568 155.176 78.1003 155.756 78.4751C156.296 78.8467 156.985 79.046 157.633 79.046H192.407C193.296 79.046 194.156 78.7213 194.813 78.065L194.818 78.0593L194.824 78.0534C195.425 77.4122 195.794 76.5621 195.794 75.6598C195.794 74.771 195.469 73.9108 194.813 73.2545L194.807 73.2488L194.801 73.2433C194.16 72.6422 193.31 72.2735 192.407 72.2735H182.74C182.089 72.2735 181.465 72.0359 181.053 71.597C180.611 71.1254 180.354 70.515 180.354 69.8873C180.354 67.4259 179.398 65.1076 177.669 63.3787C175.939 61.6491 173.586 60.6937 171.16 60.6937C168.699 60.6937 166.381 61.6498 164.652 63.3787C162.922 65.1083 161.967 67.4617 161.967 69.8873C161.967 70.5386 161.729 71.1626 161.29 71.5742C160.819 72.0162 160.208 72.2735 159.581 72.2735H157.633C157.191 72.2735 156.745 72.3536 156.335 72.5179Z" fill="#E0E0E0" stroke="#E0E0E0"/>
<path d="M305.589 90.2447L305.661 90.6597H306.082H315.506C318.055 90.6597 320.533 91.6535 322.312 93.4658C324.101 95.2873 325.125 97.7357 325.125 100.279C325.125 102.856 324.101 105.303 322.316 107.124C320.494 108.91 318.047 109.933 315.506 109.933H272.038C269.492 109.933 267.079 108.942 265.26 107.155C263.442 105.37 262.417 102.958 262.384 100.412C262.351 97.8682 263.342 95.4212 265.095 93.6016C266.846 91.7845 269.26 90.7257 271.808 90.6596L272.221 90.6488L272.288 90.2406C272.929 86.3272 274.988 82.7476 278.028 80.18C281.104 77.6114 284.955 76.1937 288.938 76.1937C292.924 76.1937 296.808 77.6126 299.848 80.1791C302.886 82.7448 304.913 86.325 305.589 90.2447ZM315.457 105.091C316.138 105.128 316.763 104.967 317.321 104.744C317.951 104.507 318.461 104.151 318.919 103.693C319.579 103.033 320.047 102.177 320.205 101.168C320.398 100.23 320.277 99.2664 319.935 98.3929C319.583 97.4912 318.958 96.7531 318.152 96.2148C317.366 95.6663 316.432 95.3975 315.471 95.3975H303.404C302.765 95.3975 302.167 95.1677 301.712 94.715C301.273 94.2443 301.018 93.6363 301.018 93.0112C301.018 89.7817 299.712 86.6993 297.464 84.451C295.179 82.1665 292.096 80.8967 288.903 80.8967C285.674 80.8967 282.591 82.2026 280.343 84.451C278.059 86.7355 276.789 89.8184 276.789 93.0112C276.789 93.6499 276.559 94.2479 276.106 94.7037C275.636 95.1423 275.028 95.3975 274.403 95.3975H272.003C270.718 95.3975 269.482 95.9402 268.593 96.8268C267.658 97.7249 267.156 98.9684 267.156 100.244C267.156 101.529 267.699 102.766 268.586 103.654C269.484 104.589 270.727 105.091 272.003 105.091H315.457Z" fill="#E0E0E0" stroke="#E0E0E0"/>
<path d="M245.033 127.821V127.321H244.533H232.953H232.453V127.821V136.515V137.015H232.953H244.533H245.033V136.515V127.821ZM215.566 127.321H215.066V127.821V136.515V137.015H215.566H227.146H227.646V136.515V127.821V127.321H227.146H215.566ZM247.419 141.787H212.645C212.022 141.787 211.417 141.534 210.947 141.099C210.512 140.629 210.259 140.024 210.259 139.401V124.9C210.259 124.262 210.488 123.664 210.941 123.208C211.412 122.769 212.02 122.514 212.645 122.514H247.419C248.058 122.514 248.656 122.744 249.111 123.197C249.55 123.667 249.805 124.275 249.805 124.9V139.401C249.805 140.04 249.575 140.638 249.123 141.094C248.652 141.532 248.044 141.787 247.419 141.787Z" fill="#E0E0E0" stroke="#E0E0E0"/>
<path d="M245.033 104.626V104.126H244.533H232.953H232.453V104.626V113.32V113.82H232.953H244.533H245.033V113.32V104.626ZM215.566 104.126H215.066V104.626V113.32V113.82H215.566H227.146H227.646V113.32V104.626V104.126H227.146H215.566ZM247.419 118.627H212.645C212.022 118.627 211.417 118.374 210.947 117.939C210.512 117.469 210.259 116.863 210.259 116.241V101.74C210.259 101.101 210.488 100.503 210.941 100.048C211.412 99.609 212.02 99.3539 212.645 99.3539H247.419C248.058 99.3539 248.656 99.5836 249.111 100.036C249.55 100.507 249.805 101.115 249.805 101.74V116.241C249.805 116.88 249.575 117.478 249.123 117.933C248.652 118.372 248.044 118.627 247.419 118.627Z" fill="#E0E0E0" stroke="#E0E0E0"/>
<path d="M267.692 141.786H267.192V142.286V150.98V151.48H267.692H285.079H285.579V150.98V142.286V141.786H285.079H267.692ZM287.965 156.287H264.806C264.141 156.287 263.54 156.028 263.113 155.605C262.675 155.134 262.42 154.526 262.42 153.901V139.4C262.42 138.761 262.649 138.163 263.102 137.708C263.573 137.269 264.181 137.014 264.806 137.014H287.965C288.604 137.014 289.202 137.244 289.658 137.696C290.097 138.167 290.352 138.775 290.352 139.4V153.901C290.352 154.54 290.122 155.138 289.669 155.593C289.199 156.032 288.591 156.287 287.965 156.287Z" fill="#E0E0E0" stroke="#E0E0E0"/>
<path d="M267.692 164.981H267.192V165.481V174.174V174.674H267.692H285.079H285.579V174.174V165.481V164.981H285.079H267.692ZM287.965 179.447H264.806C264.141 179.447 263.54 179.188 263.113 178.764C262.675 178.294 262.42 177.686 262.42 177.061V162.56C262.42 161.921 262.649 161.323 263.102 160.867C263.573 160.429 264.181 160.174 264.806 160.174H287.965C288.604 160.174 289.202 160.403 289.658 160.856C290.097 161.327 290.352 161.935 290.352 162.56V177.061C290.352 177.699 290.122 178.297 289.669 178.753C289.199 179.192 288.591 179.447 287.965 179.447Z" fill="#E0E0E0" stroke="#E0E0E0"/>
<mask id="path-10-inside-2" fill="white">
<path d="M762.906 205.785H759.881V190.484C763.984 189.893 767.809 188.119 770.869 185.372C773.964 182.625 776.19 179.043 777.233 175.044C778.311 171.045 778.172 166.838 776.885 162.908C775.599 158.979 773.165 155.536 769.931 152.998C771.252 150.702 771.947 148.094 771.947 145.452C771.947 142.809 771.252 140.201 769.931 137.906C768.609 135.61 766.697 133.698 764.401 132.376C762.106 131.055 759.498 130.36 756.855 130.36C754.213 130.36 751.605 131.055 749.309 132.376C747.014 133.698 745.102 135.61 743.78 137.906C742.459 140.201 741.764 142.809 741.764 145.452C741.764 148.094 742.459 150.702 743.78 152.998C740.546 155.571 738.112 159.013 736.826 162.908C735.539 166.838 735.4 171.045 736.478 175.044C737.556 179.043 739.747 182.625 742.841 185.372C745.936 188.119 749.762 189.893 753.83 190.484V194.865L746.145 191.006C745.797 190.832 745.415 190.727 744.998 190.693C744.615 190.658 744.198 190.727 743.815 190.832C743.433 190.971 743.085 191.145 742.772 191.423C742.459 191.666 742.216 192.014 742.042 192.362C741.868 192.71 741.764 193.092 741.729 193.509C741.694 193.892 741.764 194.309 741.868 194.692C742.007 195.074 742.181 195.422 742.459 195.7C742.737 196.013 743.05 196.256 743.398 196.43L753.795 201.646V205.819H732.687V145.452C732.687 144.965 732.548 144.478 732.34 144.026C732.096 143.574 731.783 143.226 731.366 142.948L696.522 119.719V64.0107C696.522 63.2109 696.209 62.4806 695.653 61.8895C695.097 61.3331 694.366 60.9853 693.567 60.9853C671.694 60.3942 653.194 68.6009 636.989 86.0922C636.468 86.6486 636.189 87.3789 636.189 88.1439V205.785H615.082V190.484C619.185 189.893 623.01 188.119 626.07 185.372C629.165 182.625 631.391 179.043 632.434 175.044C633.512 171.045 633.373 166.838 632.086 162.908C630.799 158.979 628.365 155.536 625.131 152.998C626.453 150.702 627.148 148.094 627.148 145.452C627.148 142.809 626.453 140.201 625.131 137.906C623.81 135.61 621.897 133.698 619.602 132.376C617.307 131.055 614.699 130.36 612.056 130.36C609.413 130.36 606.805 131.055 604.51 132.376C602.215 133.698 600.303 135.61 598.981 137.906C597.66 140.201 596.964 142.809 596.964 145.452C596.964 148.094 597.66 150.702 598.981 152.998C595.747 155.571 593.313 159.013 592.026 162.908C590.74 166.838 590.601 171.045 591.679 175.044C592.757 179.043 594.947 182.625 598.042 185.372C601.137 188.119 604.962 189.893 609.031 190.484V194.865L601.346 191.006C600.998 190.832 600.616 190.727 600.198 190.693C599.816 190.658 599.398 190.727 599.016 190.832C598.633 190.971 598.286 191.145 597.973 191.423C597.66 191.666 597.416 192.014 597.242 192.362C597.069 192.71 596.964 193.092 596.93 193.509C596.895 193.892 596.964 194.309 597.069 194.692C597.208 195.074 597.382 195.422 597.66 195.7C597.938 196.013 598.251 196.256 598.599 196.43L608.996 201.646V205.819H593.904C593.104 205.819 592.339 206.132 591.783 206.689C591.227 207.245 590.914 208.01 590.914 208.81C590.914 209.61 591.227 210.375 591.783 210.931C592.339 211.487 593.104 211.8 593.904 211.8H762.802C763.602 211.8 764.367 211.487 764.923 210.931C765.479 210.375 765.792 209.61 765.792 208.81C765.792 208.01 765.479 207.245 764.923 206.689C764.471 206.098 763.706 205.785 762.906 205.785ZM741.764 169.585C741.764 166.907 742.494 164.264 743.85 161.934C745.206 159.605 747.188 157.692 749.553 156.405C749.97 156.197 750.318 155.884 750.561 155.501C750.84 155.119 751.013 154.701 751.083 154.249C751.153 153.797 751.118 153.345 750.979 152.893C750.84 152.441 750.596 152.059 750.283 151.711C749.066 150.424 748.266 148.825 747.953 147.086C747.64 145.347 747.849 143.539 748.544 141.939C749.24 140.305 750.387 138.949 751.883 137.975C753.343 137.001 755.082 136.48 756.855 136.48C758.629 136.48 760.368 137.001 761.828 137.975C763.289 138.949 764.471 140.34 765.166 141.939C765.862 143.574 766.071 145.347 765.758 147.086C765.445 148.825 764.645 150.424 763.428 151.711C763.115 152.059 762.871 152.441 762.732 152.893C762.593 153.345 762.558 153.797 762.628 154.249C762.697 154.701 762.871 155.154 763.15 155.501C763.428 155.884 763.775 156.197 764.158 156.405C766.87 157.901 769.026 160.196 770.383 162.943C771.739 165.725 772.226 168.82 771.739 171.88C771.287 174.94 769.896 177.757 767.74 179.982C765.619 182.208 762.837 183.738 759.846 184.364V172.61C759.846 171.81 759.533 171.045 758.977 170.489C758.42 169.933 757.655 169.62 756.855 169.62C756.056 169.62 755.291 169.933 754.734 170.489C754.178 171.045 753.865 171.81 753.865 172.61V184.364C750.457 183.668 747.397 181.825 745.206 179.113C742.981 176.435 741.764 173.062 741.764 169.585ZM596.999 169.585C596.999 166.907 597.729 164.264 599.086 161.934C600.442 159.605 602.424 157.692 604.788 156.405C605.206 156.197 605.554 155.884 605.797 155.501C606.075 155.119 606.249 154.701 606.319 154.249C606.388 153.797 606.353 153.345 606.214 152.893C606.075 152.441 605.832 152.059 605.519 151.711C604.302 150.424 603.502 148.825 603.189 147.086C602.876 145.347 603.085 143.539 603.78 141.939C604.476 140.305 605.623 138.949 607.118 137.975C608.579 137.001 610.318 136.48 612.091 136.48C613.865 136.48 615.603 137.001 617.064 137.975C618.524 138.949 619.707 140.34 620.402 141.939C621.098 143.574 621.306 145.347 620.993 147.086C620.68 148.825 619.88 150.424 618.663 151.711C618.35 152.059 618.107 152.441 617.968 152.893C617.829 153.345 617.794 153.797 617.863 154.249C617.933 154.701 618.107 155.154 618.385 155.501C618.663 155.884 619.011 156.197 619.394 156.405C622.106 157.901 624.262 160.196 625.618 162.943C626.974 165.725 627.461 168.82 626.974 171.88C626.522 174.94 625.131 177.757 622.975 179.982C620.854 182.208 618.072 183.738 615.082 184.364V172.61C615.082 171.81 614.769 171.045 614.212 170.489C613.656 169.933 612.891 169.62 612.091 169.62C611.291 169.62 610.526 169.933 609.97 170.489C609.413 171.045 609.1 171.81 609.1 172.61V184.364C605.693 183.668 602.632 181.825 600.442 179.113C598.216 176.435 596.999 173.062 596.999 169.585ZM642.24 89.3262C656.254 74.582 672.076 67.2447 690.507 67.0013V205.785H687.481V172.61C687.481 171.81 687.168 171.045 686.612 170.489C686.055 169.933 685.29 169.62 684.491 169.62H648.291C647.491 169.62 646.726 169.933 646.17 170.489C645.613 171.045 645.3 171.81 645.3 172.61V205.785H642.275V89.3262H642.24ZM651.281 205.785V175.635H663.348V205.785H651.281ZM669.399 205.785V175.635H681.465V205.785H669.399ZM696.522 205.785V126.952L726.672 147.051V205.75H696.522V205.785Z"/>
</mask>
<path d="M762.906 205.785H759.881V190.484C763.984 189.893 767.809 188.119 770.869 185.372C773.964 182.625 776.19 179.043 777.233 175.044C778.311 171.045 778.172 166.838 776.885 162.908C775.599 158.979 773.165 155.536 769.931 152.998C771.252 150.702 771.947 148.094 771.947 145.452C771.947 142.809 771.252 140.201 769.931 137.906C768.609 135.61 766.697 133.698 764.401 132.376C762.106 131.055 759.498 130.36 756.855 130.36C754.213 130.36 751.605 131.055 749.309 132.376C747.014 133.698 745.102 135.61 743.78 137.906C742.459 140.201 741.764 142.809 741.764 145.452C741.764 148.094 742.459 150.702 743.78 152.998C740.546 155.571 738.112 159.013 736.826 162.908C735.539 166.838 735.4 171.045 736.478 175.044C737.556 179.043 739.747 182.625 742.841 185.372C745.936 188.119 749.762 189.893 753.83 190.484V194.865L746.145 191.006C745.797 190.832 745.415 190.727 744.998 190.693C744.615 190.658 744.198 190.727 743.815 190.832C743.433 190.971 743.085 191.145 742.772 191.423C742.459 191.666 742.216 192.014 742.042 192.362C741.868 192.71 741.764 193.092 741.729 193.509C741.694 193.892 741.764 194.309 741.868 194.692C742.007 195.074 742.181 195.422 742.459 195.7C742.737 196.013 743.05 196.256 743.398 196.43L753.795 201.646V205.819H732.687V145.452C732.687 144.965 732.548 144.478 732.34 144.026C732.096 143.574 731.783 143.226 731.366 142.948L696.522 119.719V64.0107C696.522 63.2109 696.209 62.4806 695.653 61.8895C695.097 61.3331 694.366 60.9853 693.567 60.9853C671.694 60.3942 653.194 68.6009 636.989 86.0922C636.468 86.6486 636.189 87.3789 636.189 88.1439V205.785H615.082V190.484C619.185 189.893 623.01 188.119 626.07 185.372C629.165 182.625 631.391 179.043 632.434 175.044C633.512 171.045 633.373 166.838 632.086 162.908C630.799 158.979 628.365 155.536 625.131 152.998C626.453 150.702 627.148 148.094 627.148 145.452C627.148 142.809 626.453 140.201 625.131 137.906C623.81 135.61 621.897 133.698 619.602 132.376C617.307 131.055 614.699 130.36 612.056 130.36C609.413 130.36 606.805 131.055 604.51 132.376C602.215 133.698 600.303 135.61 598.981 137.906C597.66 140.201 596.964 142.809 596.964 145.452C596.964 148.094 597.66 150.702 598.981 152.998C595.747 155.571 593.313 159.013 592.026 162.908C590.74 166.838 590.601 171.045 591.679 175.044C592.757 179.043 594.947 182.625 598.042 185.372C601.137 188.119 604.962 189.893 609.031 190.484V194.865L601.346 191.006C600.998 190.832 600.616 190.727 600.198 190.693C599.816 190.658 599.398 190.727 599.016 190.832C598.633 190.971 598.286 191.145 597.973 191.423C597.66 191.666 597.416 192.014 597.242 192.362C597.069 192.71 596.964 193.092 596.93 193.509C596.895 193.892 596.964 194.309 597.069 194.692C597.208 195.074 597.382 195.422 597.66 195.7C597.938 196.013 598.251 196.256 598.599 196.43L608.996 201.646V205.819H593.904C593.104 205.819 592.339 206.132 591.783 206.689C591.227 207.245 590.914 208.01 590.914 208.81C590.914 209.61 591.227 210.375 591.783 210.931C592.339 211.487 593.104 211.8 593.904 211.8H762.802C763.602 211.8 764.367 211.487 764.923 210.931C765.479 210.375 765.792 209.61 765.792 208.81C765.792 208.01 765.479 207.245 764.923 206.689C764.471 206.098 763.706 205.785 762.906 205.785ZM741.764 169.585C741.764 166.907 742.494 164.264 743.85 161.934C745.206 159.605 747.188 157.692 749.553 156.405C749.97 156.197 750.318 155.884 750.561 155.501C750.84 155.119 751.013 154.701 751.083 154.249C751.153 153.797 751.118 153.345 750.979 152.893C750.84 152.441 750.596 152.059 750.283 151.711C749.066 150.424 748.266 148.825 747.953 147.086C747.64 145.347 747.849 143.539 748.544 141.939C749.24 140.305 750.387 138.949 751.883 137.975C753.343 137.001 755.082 136.48 756.855 136.48C758.629 136.48 760.368 137.001 761.828 137.975C763.289 138.949 764.471 140.34 765.166 141.939C765.862 143.574 766.071 145.347 765.758 147.086C765.445 148.825 764.645 150.424 763.428 151.711C763.115 152.059 762.871 152.441 762.732 152.893C762.593 153.345 762.558 153.797 762.628 154.249C762.697 154.701 762.871 155.154 763.15 155.501C763.428 155.884 763.775 156.197 764.158 156.405C766.87 157.901 769.026 160.196 770.383 162.943C771.739 165.725 772.226 168.82 771.739 171.88C771.287 174.94 769.896 177.757 767.74 179.982C765.619 182.208 762.837 183.738 759.846 184.364V172.61C759.846 171.81 759.533 171.045 758.977 170.489C758.42 169.933 757.655 169.62 756.855 169.62C756.056 169.62 755.291 169.933 754.734 170.489C754.178 171.045 753.865 171.81 753.865 172.61V184.364C750.457 183.668 747.397 181.825 745.206 179.113C742.981 176.435 741.764 173.062 741.764 169.585ZM596.999 169.585C596.999 166.907 597.729 164.264 599.086 161.934C600.442 159.605 602.424 157.692 604.788 156.405C605.206 156.197 605.554 155.884 605.797 155.501C606.075 155.119 606.249 154.701 606.319 154.249C606.388 153.797 606.353 153.345 606.214 152.893C606.075 152.441 605.832 152.059 605.519 151.711C604.302 150.424 603.502 148.825 603.189 147.086C602.876 145.347 603.085 143.539 603.78 141.939C604.476 140.305 605.623 138.949 607.118 137.975C608.579 137.001 610.318 136.48 612.091 136.48C613.865 136.48 615.603 137.001 617.064 137.975C618.524 138.949 619.707 140.34 620.402 141.939C621.098 143.574 621.306 145.347 620.993 147.086C620.68 148.825 619.88 150.424 618.663 151.711C618.35 152.059 618.107 152.441 617.968 152.893C617.829 153.345 617.794 153.797 617.863 154.249C617.933 154.701 618.107 155.154 618.385 155.501C618.663 155.884 619.011 156.197 619.394 156.405C622.106 157.901 624.262 160.196 625.618 162.943C626.974 165.725 627.461 168.82 626.974 171.88C626.522 174.94 625.131 177.757 622.975 179.982C620.854 182.208 618.072 183.738 615.082 184.364V172.61C615.082 171.81 614.769 171.045 614.212 170.489C613.656 169.933 612.891 169.62 612.091 169.62C611.291 169.62 610.526 169.933 609.97 170.489C609.413 171.045 609.1 171.81 609.1 172.61V184.364C605.693 183.668 602.632 181.825 600.442 179.113C598.216 176.435 596.999 173.062 596.999 169.585ZM642.24 89.3262C656.254 74.582 672.076 67.2447 690.507 67.0013V205.785H687.481V172.61C687.481 171.81 687.168 171.045 686.612 170.489C686.055 169.933 685.29 169.62 684.491 169.62H648.291C647.491 169.62 646.726 169.933 646.17 170.489C645.613 171.045 645.3 171.81 645.3 172.61V205.785H642.275V89.3262H642.24ZM651.281 205.785V175.635H663.348V205.785H651.281ZM669.399 205.785V175.635H681.465V205.785H669.399ZM696.522 205.785V126.952L726.672 147.051V205.75H696.522V205.785Z" fill="#E0E0E0" stroke="#E0E0E0" stroke-width="2" mask="url(#path-10-inside-2)"/>
<path d="M769.899 206.919L769.906 206.909L769.911 206.899C770.167 206.444 770.477 206.284 770.727 206.284H805.745C805.955 206.284 806.272 206.438 806.573 206.919C806.856 207.372 807.018 208.037 807.018 208.775C807.018 209.513 806.856 210.177 806.573 210.631L806.567 210.641L806.561 210.651C806.305 211.105 805.995 211.265 805.745 211.265H770.727C770.517 211.265 770.2 211.112 769.899 210.631C769.616 210.177 769.454 209.513 769.454 208.775C769.454 208.037 769.616 207.372 769.899 206.919Z" fill="#E0E0E0" stroke="#E0E0E0"/>
<path d="M681.968 148.477V147.977H681.468H669.401H668.901V148.477V157.519V158.019H669.401H681.468H681.968V157.519V148.477ZM651.284 147.977H650.784V148.477V157.519V158.019H651.284H663.35H663.85V157.519V148.477V147.977H663.35H651.284ZM684.493 163.069H648.293C647.628 163.069 646.955 162.775 646.526 162.346C646.065 161.886 645.803 161.249 645.803 160.579V145.487C645.803 144.817 646.065 144.18 646.526 143.719C646.986 143.258 647.623 142.996 648.293 142.996H684.493C685.163 142.996 685.8 143.258 686.261 143.719C686.721 144.18 686.984 144.817 686.984 145.487V160.579C686.984 161.249 686.721 161.886 686.261 162.346C685.8 162.807 685.163 163.069 684.493 163.069Z" fill="#E0E0E0" stroke="#E0E0E0"/>
<path d="M613.858 165.337C613.398 165.797 612.761 166.06 612.091 166.06C611.421 166.06 610.784 165.797 610.323 165.337C609.862 164.876 609.6 164.239 609.6 163.569V160.544C609.6 159.874 609.862 159.237 610.323 158.776C610.784 158.315 611.421 158.053 612.091 158.053C612.761 158.053 613.398 158.315 613.858 158.776C614.319 159.237 614.581 159.874 614.581 160.544V163.569C614.581 164.239 614.319 164.876 613.858 165.337Z" fill="#E0E0E0" stroke="#E0E0E0"/>
<path d="M758.626 165.337C758.165 165.797 757.528 166.06 756.858 166.06C756.188 166.06 755.551 165.797 755.091 165.337C754.63 164.876 754.368 164.239 754.368 163.569V160.544C754.368 159.874 754.63 159.237 755.091 158.776C755.551 158.315 756.188 158.053 756.858 158.053C757.528 158.053 758.165 158.315 758.626 158.776C759.087 159.237 759.349 159.874 759.349 160.544V163.569C759.349 164.239 759.087 164.876 758.626 165.337Z" fill="#E0E0E0" stroke="#E0E0E0"/>
<path d="M749.026 82.2277L749.108 82.6278H749.516H756.853C759.122 82.6278 761.289 83.5149 762.898 85.1241C764.507 86.7333 765.395 88.9008 765.395 91.169C765.395 93.4372 764.507 95.6047 762.898 97.2139C761.289 98.8231 759.122 99.7103 756.853 99.7103H720.654C718.459 99.7103 716.354 98.8258 714.736 97.3072C713.133 95.8023 712.212 93.7034 712.112 91.4981C712.047 89.2922 712.805 87.1254 714.279 85.4876L714.279 85.4876L714.283 85.4834C715.725 83.8446 717.793 82.8255 719.995 82.6611L720.376 82.6327L720.449 82.2577C721.087 78.9669 722.902 75.9744 725.491 73.856C728.08 71.7377 731.341 70.5612 734.702 70.5612C738.063 70.5612 741.326 71.7374 743.951 73.858C746.572 75.9749 748.354 78.9323 749.026 82.2277ZM719.335 87.9172L719.328 87.9199L719.32 87.9229C718.899 88.0912 718.496 88.3767 718.179 88.6942C717.754 89.1189 717.269 89.6659 717.136 90.4214C717.018 91.0884 717.053 91.7828 717.344 92.4474C717.626 93.0924 718.069 93.6138 718.624 94.0101L718.915 93.6032L718.624 94.0101C719.202 94.423 719.897 94.6248 720.584 94.6248H756.784C757.713 94.6248 758.607 94.2612 759.259 93.609C759.911 92.9569 760.274 92.0638 760.274 91.1342C760.274 90.2047 759.911 89.3116 759.259 88.6595C758.607 88.0073 757.713 87.6437 756.784 87.6437H746.734C746.064 87.6437 745.427 87.3814 744.966 86.9208C744.506 86.4601 744.244 85.8231 744.244 85.1531C744.244 82.6224 743.253 80.1998 741.454 78.4011C739.656 76.6025 737.233 75.6118 734.702 75.6118C732.172 75.6118 729.749 76.6025 727.95 78.4011C726.152 80.1998 725.161 82.6224 725.161 85.1531C725.161 85.8231 724.899 86.4601 724.438 86.9208C723.977 87.3814 723.341 87.6437 722.671 87.6437H720.654C720.184 87.6437 719.737 87.7711 719.335 87.9172Z" fill="#E0E0E0" stroke="#E0E0E0"/>
<path d="M646.537 138.224L646.531 138.218L646.526 138.213C646.065 137.752 645.803 137.115 645.803 136.445V121.353C645.803 120.683 646.065 120.046 646.526 119.585C646.986 119.125 647.623 118.862 648.293 118.862H684.493C685.163 118.862 685.8 119.125 686.261 119.585C686.721 120.046 686.984 120.683 686.984 121.353V136.445C686.984 137.115 686.721 137.752 686.261 138.213C685.8 138.673 685.163 138.936 684.493 138.936H648.293C647.614 138.936 646.952 138.667 646.537 138.224ZM681.968 124.344V123.844H681.468H669.401H668.901V124.344V133.385V133.885H669.401H681.468H681.968V133.385V124.344ZM651.284 123.844H650.784V124.344V133.385V133.885H651.284H663.35H663.85V133.385V124.344V123.844H663.35H651.284Z" fill="#E0E0E0" stroke="#E0E0E0"/>
<path d="M646.537 114.091L646.531 114.085L646.526 114.079C646.065 113.619 645.803 112.982 645.803 112.312V97.2197C645.803 96.5497 646.065 95.9127 646.526 95.452C646.986 94.9914 647.623 94.7291 648.293 94.7291H684.493C685.163 94.7291 685.8 94.9914 686.261 95.452C686.721 95.9127 686.984 96.5497 686.984 97.2197V112.312C686.984 112.982 686.721 113.619 686.261 114.079C685.8 114.54 685.163 114.802 684.493 114.802H648.293C647.614 114.802 646.952 114.534 646.537 114.091ZM681.968 100.21V99.7103H681.468H669.401H668.901V100.21V109.252V109.752H669.401H681.468H681.968V109.252V100.21ZM651.284 99.7103H650.784V100.21V109.252V109.752H651.284H663.35H663.85V109.252V100.21V99.7103H663.35H651.284Z" fill="#E0E0E0" stroke="#E0E0E0"/>
<path d="M717.632 164.069H718.132V163.569V154.528V154.028H717.632H705.565H705.065V154.528V163.569V164.069H705.565H717.632ZM702.575 148.977H720.657C721.327 148.977 721.964 149.239 722.425 149.7C722.885 150.161 723.148 150.798 723.148 151.468V166.56C723.148 167.23 722.885 167.867 722.425 168.327C721.964 168.788 721.327 169.05 720.657 169.05H702.575C701.905 169.05 701.268 168.788 700.807 168.327C700.346 167.867 700.084 167.23 700.084 166.56V151.468C700.084 150.798 700.346 150.161 700.807 149.7C701.268 149.239 701.905 148.977 702.575 148.977Z" fill="#E0E0E0" stroke="#E0E0E0"/>
<path d="M717.632 188.168H718.132V187.668V178.626V178.126H717.632H705.565H705.065V178.626V187.668V188.168H705.565H717.632ZM702.575 173.11H720.657C721.327 173.11 721.964 173.373 722.425 173.833C722.885 174.294 723.148 174.931 723.148 175.601V190.693C723.148 191.363 722.885 192 722.425 192.461C721.964 192.921 721.327 193.183 720.657 193.183H702.575C701.905 193.183 701.268 192.921 700.807 192.461C700.346 192 700.084 191.363 700.084 190.693V175.601C700.084 174.931 700.346 174.294 700.807 173.833C701.268 173.373 701.905 173.11 702.575 173.11Z" fill="#E0E0E0" stroke="#E0E0E0"/>
<mask id="path-20-inside-3" fill="white">
<path d="M1123.79 205.82H1120.8V68.3229C1120.8 67.7665 1120.66 67.2101 1120.35 66.7581C1120.07 66.2712 1119.65 65.8887 1119.13 65.6453L1071.32 41.7207C1070.87 41.4773 1070.34 41.373 1069.86 41.4078C1069.34 41.4425 1068.85 41.5816 1068.43 41.8598C1068.02 42.138 1067.63 42.4858 1067.39 42.9378C1067.15 43.3899 1067.01 43.8767 1067.01 44.3983V205.82H1043.08V187.667C1047.15 187.076 1050.94 185.338 1054 182.59C1057.06 179.878 1059.25 176.331 1060.33 172.367C1061.37 168.403 1061.27 164.23 1059.98 160.335C1058.7 156.44 1056.3 153.033 1053.06 150.494C1054.38 148.234 1055.04 145.66 1055.04 143.018C1055.04 140.41 1054.35 137.801 1053.03 135.541C1051.71 133.281 1049.83 131.368 1047.57 130.082C1045.31 128.76 1042.73 128.065 1040.09 128.065C1037.48 128.065 1034.88 128.76 1032.62 130.082C1030.35 131.403 1028.44 133.281 1027.16 135.541C1025.83 137.801 1025.14 140.375 1025.14 143.018C1025.14 145.626 1025.83 148.234 1027.12 150.494C1023.92 153.033 1021.49 156.44 1020.2 160.335C1018.91 164.23 1018.77 168.403 1019.85 172.367C1020.9 176.331 1023.12 179.878 1026.18 182.59C1029.24 185.303 1033.03 187.076 1037.1 187.667V192.014L1029.49 188.189C1029.14 188.015 1028.76 187.911 1028.37 187.876C1027.99 187.841 1027.57 187.911 1027.23 188.015C1026.84 188.154 1026.49 188.328 1026.22 188.606C1025.9 188.85 1025.66 189.163 1025.49 189.545C1025.31 189.893 1025.21 190.276 1025.17 190.693C1025.14 191.075 1025.21 191.493 1025.31 191.84C1025.45 192.223 1025.63 192.571 1025.9 192.849C1026.15 193.162 1026.49 193.37 1026.84 193.544L1037.14 198.691V205.82H1010.22V196.465C1013.04 195.735 1015.51 193.996 1017.14 191.597C1018.77 189.198 1019.47 186.277 1019.12 183.39C1018.74 180.504 1017.35 177.861 1015.16 175.914C1012.97 174.001 1010.15 172.923 1007.26 172.923C1004.34 172.923 1001.53 174.001 999.371 175.914C997.18 177.826 995.789 180.504 995.407 183.39C995.024 186.277 995.755 189.198 997.389 191.597C999.023 193.996 1001.49 195.735 1004.31 196.465V205.82H977.394V196.604C981.845 195.839 985.809 193.475 988.591 189.928C991.338 186.381 992.66 181.93 992.277 177.444C991.895 172.958 989.843 168.785 986.539 165.725C983.236 162.665 978.889 160.996 974.403 160.996C969.917 160.996 965.571 162.7 962.267 165.725C958.964 168.785 956.912 172.958 956.529 177.444C956.147 181.93 957.468 186.381 960.215 189.928C962.963 193.475 966.962 195.874 971.413 196.604V205.82H956.46C955.66 205.82 954.895 206.133 954.339 206.689C953.782 207.245 953.469 208.01 953.469 208.81C953.469 209.61 953.782 210.375 954.339 210.931C954.895 211.488 955.66 211.801 956.46 211.801H1123.86C1124.66 211.801 1125.43 211.488 1125.98 210.931C1126.54 210.375 1126.85 209.61 1126.85 208.81C1126.85 208.01 1126.54 207.245 1125.98 206.689C1125.32 206.167 1124.59 205.82 1123.79 205.82ZM1025.14 166.977C1025.14 164.299 1025.87 161.691 1027.23 159.396C1028.58 157.101 1030.53 155.189 1032.86 153.902C1033.24 153.693 1033.59 153.38 1033.87 152.998C1034.15 152.615 1034.28 152.198 1034.35 151.746C1034.42 151.294 1034.39 150.842 1034.25 150.39C1034.11 149.938 1033.87 149.555 1033.55 149.207C1032.34 147.921 1031.54 146.321 1031.22 144.617C1030.91 142.878 1031.12 141.105 1031.82 139.505C1032.51 137.906 1033.66 136.515 1035.12 135.576C1036.58 134.602 1038.28 134.115 1040.06 134.115C1041.8 134.115 1043.53 134.637 1044.99 135.576C1046.46 136.55 1047.6 137.906 1048.3 139.505C1048.99 141.105 1049.2 142.878 1048.89 144.617C1048.58 146.356 1047.78 147.956 1046.56 149.207C1046.25 149.555 1046 149.938 1045.86 150.39C1045.72 150.842 1045.69 151.294 1045.76 151.746C1045.83 152.198 1046 152.615 1046.25 152.998C1046.49 153.38 1046.84 153.693 1047.25 153.902C1049.93 155.397 1052.09 157.657 1053.44 160.405C1054.8 163.152 1055.25 166.247 1054.8 169.272C1054.35 172.297 1052.96 175.114 1050.84 177.305C1048.72 179.53 1046 181.026 1043.01 181.652V170.002C1043.01 169.202 1042.7 168.437 1042.14 167.881C1041.59 167.325 1040.82 167.012 1040.02 167.012C1039.22 167.012 1038.46 167.325 1037.9 167.881C1037.34 168.437 1037.03 169.202 1037.03 170.002V181.652C1033.66 180.956 1030.63 179.113 1028.44 176.47C1026.25 173.827 1025.14 170.42 1025.14 166.977ZM1001.21 184.92C1001.21 183.877 1001.49 182.834 1002.01 181.93C1002.54 181.026 1003.3 180.261 1004.2 179.739C1005.11 179.217 1006.15 178.939 1007.2 178.939C1008.24 178.939 1009.28 179.217 1010.19 179.739C1011.09 180.261 1011.85 181.026 1012.38 181.93C1012.9 182.834 1013.18 183.877 1013.18 184.92C1013.18 185.964 1012.9 187.007 1012.38 187.911C1011.85 188.815 1011.09 189.58 1010.19 190.102V184.92C1010.19 184.121 1009.87 183.356 1009.32 182.799C1008.76 182.243 1008 181.93 1007.2 181.93C1006.4 181.93 1005.63 182.243 1005.07 182.799C1004.52 183.356 1004.2 184.121 1004.2 184.92V190.102C1003.3 189.58 1002.54 188.815 1002.01 187.911C1001.49 186.972 1001.21 185.964 1001.21 184.92ZM962.371 178.939C962.371 176.714 962.997 174.523 964.18 172.61C965.362 170.698 967.066 169.168 969.048 168.194C971.065 167.22 973.29 166.803 975.516 167.046C977.742 167.29 979.863 168.124 981.636 169.481C983.41 170.837 984.766 172.68 985.531 174.801C986.296 176.888 986.47 179.183 986.018 181.373C985.566 183.564 984.523 185.581 982.958 187.215C981.428 188.85 979.445 189.997 977.289 190.554V178.939C977.289 178.139 976.977 177.374 976.42 176.818C975.864 176.262 975.099 175.949 974.299 175.949C973.499 175.949 972.734 176.262 972.178 176.818C971.621 177.374 971.308 178.139 971.308 178.939V190.519C968.735 189.858 966.475 188.363 964.84 186.277C963.206 184.19 962.371 181.582 962.371 178.939ZM1114.82 116.172H1072.95V104.21H1114.82V116.172ZM1072.95 122.118H1114.82V134.081H1072.95V122.118ZM1072.95 49.2319L1114.82 70.1659V98.2286H1072.95V49.2319ZM1081.92 205.82V175.914H1105.85V205.82H1081.92ZM1111.83 205.82V172.923C1111.83 172.123 1111.52 171.358 1110.96 170.802C1110.4 170.246 1109.64 169.933 1108.84 169.933H1078.93C1078.13 169.933 1077.37 170.246 1076.81 170.802C1076.26 171.358 1075.94 172.123 1075.94 172.923V205.82H1072.95V140.062H1114.82V205.82H1111.83Z"/>
</mask>
<path d="M1123.79 205.82H1120.8V68.3229C1120.8 67.7665 1120.66 67.2101 1120.35 66.7581C1120.07 66.2712 1119.65 65.8887 1119.13 65.6453L1071.32 41.7207C1070.87 41.4773 1070.34 41.373 1069.86 41.4078C1069.34 41.4425 1068.85 41.5816 1068.43 41.8598C1068.02 42.138 1067.63 42.4858 1067.39 42.9378C1067.15 43.3899 1067.01 43.8767 1067.01 44.3983V205.82H1043.08V187.667C1047.15 187.076 1050.94 185.338 1054 182.59C1057.06 179.878 1059.25 176.331 1060.33 172.367C1061.37 168.403 1061.27 164.23 1059.98 160.335C1058.7 156.44 1056.3 153.033 1053.06 150.494C1054.38 148.234 1055.04 145.66 1055.04 143.018C1055.04 140.41 1054.35 137.801 1053.03 135.541C1051.71 133.281 1049.83 131.368 1047.57 130.082C1045.31 128.76 1042.73 128.065 1040.09 128.065C1037.48 128.065 1034.88 128.76 1032.62 130.082C1030.35 131.403 1028.44 133.281 1027.16 135.541C1025.83 137.801 1025.14 140.375 1025.14 143.018C1025.14 145.626 1025.83 148.234 1027.12 150.494C1023.92 153.033 1021.49 156.44 1020.2 160.335C1018.91 164.23 1018.77 168.403 1019.85 172.367C1020.9 176.331 1023.12 179.878 1026.18 182.59C1029.24 185.303 1033.03 187.076 1037.1 187.667V192.014L1029.49 188.189C1029.14 188.015 1028.76 187.911 1028.37 187.876C1027.99 187.841 1027.57 187.911 1027.23 188.015C1026.84 188.154 1026.49 188.328 1026.22 188.606C1025.9 188.85 1025.66 189.163 1025.49 189.545C1025.31 189.893 1025.21 190.276 1025.17 190.693C1025.14 191.075 1025.21 191.493 1025.31 191.84C1025.45 192.223 1025.63 192.571 1025.9 192.849C1026.15 193.162 1026.49 193.37 1026.84 193.544L1037.14 198.691V205.82H1010.22V196.465C1013.04 195.735 1015.51 193.996 1017.14 191.597C1018.77 189.198 1019.47 186.277 1019.12 183.39C1018.74 180.504 1017.35 177.861 1015.16 175.914C1012.97 174.001 1010.15 172.923 1007.26 172.923C1004.34 172.923 1001.53 174.001 999.371 175.914C997.18 177.826 995.789 180.504 995.407 183.39C995.024 186.277 995.755 189.198 997.389 191.597C999.023 193.996 1001.49 195.735 1004.31 196.465V205.82H977.394V196.604C981.845 195.839 985.809 193.475 988.591 189.928C991.338 186.381 992.66 181.93 992.277 177.444C991.895 172.958 989.843 168.785 986.539 165.725C983.236 162.665 978.889 160.996 974.403 160.996C969.917 160.996 965.571 162.7 962.267 165.725C958.964 168.785 956.912 172.958 956.529 177.444C956.147 181.93 957.468 186.381 960.215 189.928C962.963 193.475 966.962 195.874 971.413 196.604V205.82H956.46C955.66 205.82 954.895 206.133 954.339 206.689C953.782 207.245 953.469 208.01 953.469 208.81C953.469 209.61 953.782 210.375 954.339 210.931C954.895 211.488 955.66 211.801 956.46 211.801H1123.86C1124.66 211.801 1125.43 211.488 1125.98 210.931C1126.54 210.375 1126.85 209.61 1126.85 208.81C1126.85 208.01 1126.54 207.245 1125.98 206.689C1125.32 206.167 1124.59 205.82 1123.79 205.82ZM1025.14 166.977C1025.14 164.299 1025.87 161.691 1027.23 159.396C1028.58 157.101 1030.53 155.189 1032.86 153.902C1033.24 153.693 1033.59 153.38 1033.87 152.998C1034.15 152.615 1034.28 152.198 1034.35 151.746C1034.42 151.294 1034.39 150.842 1034.25 150.39C1034.11 149.938 1033.87 149.555 1033.55 149.207C1032.34 147.921 1031.54 146.321 1031.22 144.617C1030.91 142.878 1031.12 141.105 1031.82 139.505C1032.51 137.906 1033.66 136.515 1035.12 135.576C1036.58 134.602 1038.28 134.115 1040.06 134.115C1041.8 134.115 1043.53 134.637 1044.99 135.576C1046.46 136.55 1047.6 137.906 1048.3 139.505C1048.99 141.105 1049.2 142.878 1048.89 144.617C1048.58 146.356 1047.78 147.956 1046.56 149.207C1046.25 149.555 1046 149.938 1045.86 150.39C1045.72 150.842 1045.69 151.294 1045.76 151.746C1045.83 152.198 1046 152.615 1046.25 152.998C1046.49 153.38 1046.84 153.693 1047.25 153.902C1049.93 155.397 1052.09 157.657 1053.44 160.405C1054.8 163.152 1055.25 166.247 1054.8 169.272C1054.35 172.297 1052.96 175.114 1050.84 177.305C1048.72 179.53 1046 181.026 1043.01 181.652V170.002C1043.01 169.202 1042.7 168.437 1042.14 167.881C1041.59 167.325 1040.82 167.012 1040.02 167.012C1039.22 167.012 1038.46 167.325 1037.9 167.881C1037.34 168.437 1037.03 169.202 1037.03 170.002V181.652C1033.66 180.956 1030.63 179.113 1028.44 176.47C1026.25 173.827 1025.14 170.42 1025.14 166.977ZM1001.21 184.92C1001.21 183.877 1001.49 182.834 1002.01 181.93C1002.54 181.026 1003.3 180.261 1004.2 179.739C1005.11 179.217 1006.15 178.939 1007.2 178.939C1008.24 178.939 1009.28 179.217 1010.19 179.739C1011.09 180.261 1011.85 181.026 1012.38 181.93C1012.9 182.834 1013.18 183.877 1013.18 184.92C1013.18 185.964 1012.9 187.007 1012.38 187.911C1011.85 188.815 1011.09 189.58 1010.19 190.102V184.92C1010.19 184.121 1009.87 183.356 1009.32 182.799C1008.76 182.243 1008 181.93 1007.2 181.93C1006.4 181.93 1005.63 182.243 1005.07 182.799C1004.52 183.356 1004.2 184.121 1004.2 184.92V190.102C1003.3 189.58 1002.54 188.815 1002.01 187.911C1001.49 186.972 1001.21 185.964 1001.21 184.92ZM962.371 178.939C962.371 176.714 962.997 174.523 964.18 172.61C965.362 170.698 967.066 169.168 969.048 168.194C971.065 167.22 973.29 166.803 975.516 167.046C977.742 167.29 979.863 168.124 981.636 169.481C983.41 170.837 984.766 172.68 985.531 174.801C986.296 176.888 986.47 179.183 986.018 181.373C985.566 183.564 984.523 185.581 982.958 187.215C981.428 188.85 979.445 189.997 977.289 190.554V178.939C977.289 178.139 976.977 177.374 976.42 176.818C975.864 176.262 975.099 175.949 974.299 175.949C973.499 175.949 972.734 176.262 972.178 176.818C971.621 177.374 971.308 178.139 971.308 178.939V190.519C968.735 189.858 966.475 188.363 964.84 186.277C963.206 184.19 962.371 181.582 962.371 178.939ZM1114.82 116.172H1072.95V104.21H1114.82V116.172ZM1072.95 122.118H1114.82V134.081H1072.95V122.118ZM1072.95 49.2319L1114.82 70.1659V98.2286H1072.95V49.2319ZM1081.92 205.82V175.914H1105.85V205.82H1081.92ZM1111.83 205.82V172.923C1111.83 172.123 1111.52 171.358 1110.96 170.802C1110.4 170.246 1109.64 169.933 1108.84 169.933H1078.93C1078.13 169.933 1077.37 170.246 1076.81 170.802C1076.26 171.358 1075.94 172.123 1075.94 172.923V205.82H1072.95V140.062H1114.82V205.82H1111.83Z" fill="#E0E0E0" stroke="#E0E0E0" stroke-width="2" mask="url(#path-20-inside-3)"/>
<path d="M1132.76 206.319H1135.75C1136.37 206.319 1137.01 206.6 1137.53 207.053C1137.99 207.513 1138.24 208.145 1138.24 208.81C1138.24 209.48 1137.98 210.117 1137.52 210.578C1137.06 211.038 1136.42 211.301 1135.75 211.301H1132.76C1132.09 211.301 1131.46 211.038 1131 210.578C1130.53 210.117 1130.27 209.48 1130.27 208.81C1130.27 208.14 1130.53 207.503 1131 207.042C1131.46 206.582 1132.09 206.319 1132.76 206.319Z" fill="#E0E0E0" stroke="#E0E0E0"/>
<path d="M1041.86 162.763C1041.4 163.224 1040.76 163.486 1040.09 163.486C1039.42 163.486 1038.79 163.224 1038.33 162.763C1037.86 162.303 1037.6 161.666 1037.6 160.996V158.005C1037.6 157.335 1037.86 156.698 1038.33 156.237C1038.79 155.777 1039.42 155.514 1040.09 155.514C1040.76 155.514 1041.4 155.777 1041.86 156.237C1042.32 156.698 1042.58 157.335 1042.58 158.005V160.996C1042.58 161.666 1042.32 162.303 1041.86 162.763Z" fill="#E0E0E0" stroke="#E0E0E0"/>
<path d="M1010.42 83.3579L1010.49 83.7757H1010.92H1020.62C1023.27 83.7757 1025.82 84.8355 1027.67 86.688C1029.53 88.5792 1030.59 91.0965 1030.59 93.7427C1030.59 96.3916 1029.53 98.9414 1027.67 100.795C1025.78 102.652 1023.27 103.71 1020.62 103.71H975.796C973.184 103.71 970.666 102.652 968.774 100.793L968.774 100.793C966.922 98.9744 965.862 96.4583 965.829 93.8407C965.796 91.2249 966.789 88.7092 968.61 86.8221C970.431 84.9343 972.915 83.8418 975.53 83.7756L975.939 83.7652L976.01 83.3619C976.72 79.3031 978.817 75.6174 981.961 72.9464C985.104 70.2766 989.093 68.8229 993.217 68.8229C997.342 68.8229 1001.33 70.2766 1004.47 72.9464C1007.62 75.6192 1009.75 79.3047 1010.42 83.3579ZM973.916 89.1364C973.278 89.3756 972.733 89.7693 972.278 90.2247C971.582 90.9203 971.115 91.8117 970.957 92.7848C970.767 93.7401 970.844 94.7048 971.227 95.6307C971.579 96.5618 972.203 97.3412 973.058 97.8854C973.894 98.4169 974.855 98.7286 975.83 98.7286H1020.65C1021.97 98.7286 1023.25 98.1868 1024.17 97.2607C1025.1 96.3346 1025.64 95.0608 1025.64 93.7427C1025.64 92.4247 1025.1 91.1508 1024.17 90.2247C1023.25 89.2986 1021.97 88.7569 1020.65 88.7569H1008.21C1007.54 88.7569 1006.9 88.4946 1006.44 88.034C1005.98 87.5733 1005.71 86.9363 1005.71 86.2663C1005.71 82.9683 1004.37 79.7821 1002.06 77.4641C999.736 75.107 996.547 73.804 993.252 73.804C989.954 73.804 986.768 75.144 984.45 77.4614C982.093 79.7829 980.79 82.9716 980.79 86.2663C980.79 86.9363 980.528 87.5733 980.067 88.034C979.606 88.4946 978.969 88.7569 978.299 88.7569H975.796C975.124 88.7569 974.506 88.9152 973.916 89.1364Z" fill="#E0E0E0" stroke="#E0E0E0"/>
<path d="M905.04 208.925L905.04 208.925V208.914C905.04 207.591 906.103 206.528 907.426 206.528H945.225C946.549 206.528 947.612 207.591 947.612 208.914C947.612 210.238 946.549 211.301 945.225 211.301H907.426C906.092 211.301 905.011 210.23 905.04 208.925Z" fill="#E0E0E0" stroke="#E0E0E0"/>
<path d="M580.378 211.301H489.2C487.877 211.301 486.814 210.238 486.814 208.914C486.814 207.591 487.877 206.528 489.2 206.528H580.378C581.701 206.528 582.764 207.591 582.764 208.914C582.764 210.238 581.701 211.301 580.378 211.301Z" fill="#E0E0E0" stroke="#E0E0E0"/>
<path d="M122.648 211.301H3.89406C2.57059 211.301 1.50781 210.238 1.50781 208.914C1.50781 207.591 2.5706 206.528 3.89406 206.528H122.648C123.971 206.528 125.034 207.591 125.034 208.914C125.034 210.238 123.971 211.301 122.648 211.301Z" fill="#E0E0E0" stroke="#E0E0E0"/>
<path d="M1274.4 211.301H1155.65C1154.32 211.301 1153.26 210.238 1153.26 208.914C1153.26 207.591 1154.32 206.528 1155.65 206.528H1274.4C1275.72 206.528 1276.79 207.591 1276.79 208.914C1276.79 210.238 1275.72 211.301 1274.4 211.301Z" fill="#E0E0E0" stroke="#E0E0E0"/>
<path d="M517.053 80.2454L517.134 80.6463H517.543H524.602C526.8 80.6463 528.864 81.4985 530.404 83.0384C531.943 84.5775 532.796 86.6752 532.796 88.8398C532.796 91.0381 531.943 93.1014 530.404 94.6413C528.864 96.1804 526.767 97.0333 524.602 97.0333H489.828C487.73 97.0333 485.666 96.2129 484.162 94.7417L484.162 94.7416L484.154 94.7341C482.619 93.2976 481.733 91.3013 481.634 89.1645C481.536 87.0374 482.288 84.9742 483.698 83.4009C485.109 81.8261 487.076 80.8432 489.172 80.6795L489.548 80.6501L489.623 80.2801C490.261 77.1244 491.973 74.2703 494.457 72.2221C496.976 70.1739 500.098 69.0665 503.32 69.0665C506.545 69.0665 509.701 70.1754 512.183 72.2211L512.183 72.2211L512.188 72.2257C514.703 74.2373 516.415 77.089 517.053 80.2454ZM487.423 86.4346L487.415 86.4423L487.408 86.4503C486.973 86.9246 486.65 87.4868 486.49 88.1689L486.487 88.18L486.485 88.1913C486.366 88.8261 486.4 89.5275 486.697 90.164C486.978 90.7645 487.418 91.286 487.944 91.6503C488.485 92.025 489.177 92.2261 489.828 92.2261H524.602C525.491 92.2261 526.351 91.9013 527.007 91.245L527.013 91.2393L527.019 91.2335C527.62 90.5922 527.988 89.7422 527.988 88.8398C527.988 87.9511 527.664 87.0909 527.007 86.4346L527.002 86.4289L526.996 86.4234C526.355 85.8222 525.505 85.4536 524.602 85.4536H514.935C514.284 85.4536 513.66 85.216 513.248 84.777C512.806 84.3055 512.549 83.695 512.549 83.0673C512.549 80.6059 511.593 78.2876 509.864 76.5588C508.135 74.8299 505.817 73.8738 503.355 73.8738C500.894 73.8738 498.576 74.8299 496.847 76.5588C495.117 78.2884 494.162 80.6417 494.162 83.0673C494.162 83.7187 493.924 84.3427 493.485 84.7542C493.014 85.1963 492.403 85.4536 491.775 85.4536H489.828C489.386 85.4536 488.94 85.5337 488.53 85.698C488.116 85.8635 487.746 86.111 487.423 86.4346Z" fill="#E0E0E0" stroke="#E0E0E0"/>
<path d="M420.801 47.8754L438.64 59.2466C438.884 59.4204 439.197 59.49 439.509 59.49H459.609L441.318 96.0723C440.9 96.8721 441.248 97.8458 442.048 98.2631C442.257 98.3674 442.535 98.4369 442.778 98.4369H452.515C453.037 98.4369 453.523 98.1935 453.802 97.7762L458.183 91.9342H463.851C466.529 91.9342 468.72 89.7782 468.72 87.1006C468.72 84.9794 467.329 83.0668 465.312 82.4409L470.354 75.6947H475.222C477.9 75.6947 480.091 73.5039 480.091 70.8263C480.091 68.9485 479.013 67.2446 477.309 66.4448L482.525 59.4552H510.762C514.413 59.4552 517.403 56.4994 517.403 52.8134C517.403 50.3096 515.978 47.9798 513.717 46.867L510.24 45.1283C506.832 41.8248 502.277 39.947 497.513 39.9817H482.49L477.274 32.9921C479.708 31.8446 480.717 28.9584 479.569 26.5242C478.769 24.8202 477.065 23.7422 475.188 23.7422H470.319L465.277 16.9961C467.85 16.1963 469.276 13.4839 468.476 10.9106C467.85 8.85894 465.973 7.46798 463.817 7.50275H458.148L453.767 1.66071C453.454 1.24342 452.967 1 452.48 1H442.743C441.839 1 441.109 1.73026 441.109 2.63438C441.109 2.8778 441.179 3.12122 441.283 3.36464L459.574 39.947H435.615L427.964 24.6116C427.686 24.0552 427.13 23.7075 426.504 23.7075H421.636C420.731 23.7075 420.001 24.4377 420.001 25.3418V46.4497C420.036 47.0756 420.314 47.5625 420.801 47.8754ZM465.486 87.0658C465.486 87.9699 464.755 88.7002 463.851 88.7002H460.617L463.052 85.4662H463.851C464.755 85.4662 465.486 86.1965 465.486 87.0658ZM475.222 72.4607H472.788L475.222 69.2267C476.127 69.2267 476.857 69.957 476.857 70.8611C476.857 71.7305 476.127 72.4607 475.222 72.4607ZM451.68 95.203H445.386L463.225 59.49H478.456L451.68 95.203ZM475.222 27.0458C476.127 27.0458 476.857 27.776 476.857 28.6802C476.857 29.5843 476.127 30.3145 475.222 30.3145L472.788 27.0806H475.222V27.0458ZM463.851 10.8063C464.755 10.8063 465.486 11.5365 465.486 12.4407C465.486 13.3448 464.755 14.0751 463.851 14.0751H463.052L460.617 10.8411H463.851V10.8063ZM445.386 4.30354H451.68L478.456 40.0165H463.225L445.386 4.30354ZM423.305 27.0458H425.53L432.033 40.0165H423.305V27.0458ZM423.305 43.2505H497.547C500.92 43.2505 504.224 44.398 506.867 46.4845H499.564V49.7185H512.152L512.292 49.788C513.961 50.6226 514.656 52.6743 513.822 54.3434C513.23 55.491 512.083 56.2212 510.796 56.2212H439.996L423.305 45.5804V43.2505Z" fill="#E0E0E0" stroke="#E0E0E0" stroke-width="0.5" stroke-miterlimit="10"/>
<path d="M493.556 47.0192H495.79V49.2532H493.556V47.0192Z" fill="#E0E0E0" stroke="#E0E0E0"/>
<path d="M487.094 47.0192H489.328V49.2532H487.094V47.0192Z" fill="#E0E0E0" stroke="#E0E0E0"/>
<path d="M480.59 47.0192H482.824V49.2532H480.59V47.0192Z" fill="#E0E0E0" stroke="#E0E0E0"/>
<path d="M474.087 47.0192H476.321V49.2532H474.087V47.0192Z" fill="#E0E0E0" stroke="#E0E0E0"/>
<path d="M467.584 47.0192H469.818V49.2532H467.584V47.0192Z" fill="#E0E0E0" stroke="#E0E0E0"/>
<path d="M461.117 47.0192H463.351V49.2532H461.117V47.0192Z" fill="#E0E0E0" stroke="#E0E0E0"/>
<path d="M454.613 47.0192H456.847V49.2532H454.613V47.0192Z" fill="#E0E0E0" stroke="#E0E0E0"/>
<path d="M448.147 47.0192H450.381V49.2532H448.147V47.0192Z" fill="#E0E0E0" stroke="#E0E0E0"/>
<path d="M441.64 47.0192H443.874V49.2532H441.64V47.0192Z" fill="#E0E0E0" stroke="#E0E0E0"/>
<mask id="path-39-inside-4" fill="white">
<path d="M314.048 175.184V234.334C314.048 235.065 314.361 235.795 314.882 236.317L320.516 241.95C321.037 242.472 321.768 242.785 322.498 242.785H342.632C343.641 246.749 346.77 249.878 350.735 250.887C356.75 252.417 362.836 248.8 364.366 242.785H446.85C447.858 246.749 450.988 249.878 454.952 250.887C460.968 252.417 467.054 248.8 468.584 242.785H480.268C481.833 242.785 483.085 241.533 483.085 239.968V216.287C483.085 214.618 482.598 212.983 481.659 211.627L473 198.656C471.435 196.292 468.792 194.901 465.941 194.901H440.799C439.235 194.901 437.983 196.153 437.983 197.717V225.884H432.349V175.184C432.349 173.619 431.097 172.367 429.533 172.367H316.865C315.3 172.367 314.048 173.619 314.048 175.184ZM460.551 211.801H454.918V200.534H460.551V211.801ZM474.982 211.801H466.15V200.569C467.019 200.638 467.819 201.09 468.306 201.786L474.982 211.801ZM452.101 240.003C452.101 236.873 454.639 234.369 457.734 234.369C460.829 234.369 463.368 236.908 463.368 240.003C463.368 243.098 460.829 245.636 457.734 245.636C454.605 245.636 452.101 243.098 452.101 240.003ZM443.651 200.534H449.284V214.618C449.284 216.182 450.536 217.434 452.101 217.434H477.451V223.068H471.818V228.701H477.451V237.151H468.653C468.549 236.769 468.41 236.386 468.271 236.038C468.201 235.865 468.167 235.656 468.097 235.482C467.819 234.856 467.506 234.265 467.123 233.709C467.019 233.569 466.915 233.465 466.845 233.361C466.532 232.944 466.219 232.526 465.837 232.144C465.663 231.97 465.489 231.831 465.315 231.657C465.002 231.344 464.654 231.066 464.307 230.822C464.098 230.683 463.889 230.544 463.646 230.405C463.298 230.162 462.916 229.988 462.533 229.779C462.29 229.675 462.081 229.57 461.838 229.466C461.42 229.292 460.968 229.153 460.516 229.049C460.308 228.979 460.099 228.91 459.856 228.875C458.465 228.597 457.039 228.597 455.613 228.875C455.404 228.91 455.196 228.979 454.952 229.049C454.5 229.153 454.048 229.292 453.631 229.466C453.388 229.57 453.144 229.675 452.936 229.779C452.553 229.953 452.17 230.162 451.823 230.405C451.614 230.544 451.405 230.683 451.162 230.822C450.814 231.1 450.467 231.379 450.154 231.657C449.98 231.831 449.806 231.97 449.632 232.144C449.284 232.526 448.936 232.909 448.623 233.361C448.519 233.465 448.415 233.569 448.345 233.709C447.963 234.265 447.65 234.856 447.372 235.482C447.302 235.656 447.267 235.83 447.198 236.038C447.059 236.421 446.92 236.769 446.815 237.151H443.651V228.701V200.534ZM426.716 231.553H437.983V237.186H426.716V231.553ZM415.449 231.553H421.082V237.186H415.449V231.553ZM360.923 231.553H409.816V237.186H364.366C364.227 236.699 364.088 236.212 363.879 235.76C363.844 235.725 363.844 235.656 363.844 235.621C363.566 235.03 363.253 234.439 362.905 233.882C362.801 233.709 362.662 233.569 362.558 233.396C362.28 233.013 361.967 232.665 361.654 232.318C361.514 232.144 361.341 232.005 361.202 231.866C361.132 231.726 361.028 231.622 360.923 231.553ZM347.848 240.003C347.848 236.873 350.387 234.369 353.482 234.369C356.611 234.369 359.115 236.908 359.115 240.003C359.115 243.098 356.577 245.636 353.482 245.636C350.387 245.636 347.848 243.098 347.848 240.003ZM319.681 231.553H346.04C345.936 231.657 345.866 231.761 345.762 231.866C345.588 232.005 345.449 232.178 345.31 232.318C344.997 232.665 344.684 233.013 344.406 233.396C344.301 233.569 344.162 233.709 344.058 233.882C343.71 234.439 343.362 234.995 343.119 235.621C343.084 235.656 343.084 235.725 343.084 235.76C342.876 236.212 342.736 236.699 342.597 237.186H323.68L319.681 233.187V231.553ZM319.681 178H426.751V225.884H319.681V178Z"/>
</mask>
<path d="M314.048 175.184V234.334C314.048 235.065 314.361 235.795 314.882 236.317L320.516 241.95C321.037 242.472 321.768 242.785 322.498 242.785H342.632C343.641 246.749 346.77 249.878 350.735 250.887C356.75 252.417 362.836 248.8 364.366 242.785H446.85C447.858 246.749 450.988 249.878 454.952 250.887C460.968 252.417 467.054 248.8 468.584 242.785H480.268C481.833 242.785 483.085 241.533 483.085 239.968V216.287C483.085 214.618 482.598 212.983 481.659 211.627L473 198.656C471.435 196.292 468.792 194.901 465.941 194.901H440.799C439.235 194.901 437.983 196.153 437.983 197.717V225.884H432.349V175.184C432.349 173.619 431.097 172.367 429.533 172.367H316.865C315.3 172.367 314.048 173.619 314.048 175.184ZM460.551 211.801H454.918V200.534H460.551V211.801ZM474.982 211.801H466.15V200.569C467.019 200.638 467.819 201.09 468.306 201.786L474.982 211.801ZM452.101 240.003C452.101 236.873 454.639 234.369 457.734 234.369C460.829 234.369 463.368 236.908 463.368 240.003C463.368 243.098 460.829 245.636 457.734 245.636C454.605 245.636 452.101 243.098 452.101 240.003ZM443.651 200.534H449.284V214.618C449.284 216.182 450.536 217.434 452.101 217.434H477.451V223.068H471.818V228.701H477.451V237.151H468.653C468.549 236.769 468.41 236.386 468.271 236.038C468.201 235.865 468.167 235.656 468.097 235.482C467.819 234.856 467.506 234.265 467.123 233.709C467.019 233.569 466.915 233.465 466.845 233.361C466.532 232.944 466.219 232.526 465.837 232.144C465.663 231.97 465.489 231.831 465.315 231.657C465.002 231.344 464.654 231.066 464.307 230.822C464.098 230.683 463.889 230.544 463.646 230.405C463.298 230.162 462.916 229.988 462.533 229.779C462.29 229.675 462.081 229.57 461.838 229.466C461.42 229.292 460.968 229.153 460.516 229.049C460.308 228.979 460.099 228.91 459.856 228.875C458.465 228.597 457.039 228.597 455.613 228.875C455.404 228.91 455.196 228.979 454.952 229.049C454.5 229.153 454.048 229.292 453.631 229.466C453.388 229.57 453.144 229.675 452.936 229.779C452.553 229.953 452.17 230.162 451.823 230.405C451.614 230.544 451.405 230.683 451.162 230.822C450.814 231.1 450.467 231.379 450.154 231.657C449.98 231.831 449.806 231.97 449.632 232.144C449.284 232.526 448.936 232.909 448.623 233.361C448.519 233.465 448.415 233.569 448.345 233.709C447.963 234.265 447.65 234.856 447.372 235.482C447.302 235.656 447.267 235.83 447.198 236.038C447.059 236.421 446.92 236.769 446.815 237.151H443.651V228.701V200.534ZM426.716 231.553H437.983V237.186H426.716V231.553ZM415.449 231.553H421.082V237.186H415.449V231.553ZM360.923 231.553H409.816V237.186H364.366C364.227 236.699 364.088 236.212 363.879 235.76C363.844 235.725 363.844 235.656 363.844 235.621C363.566 235.03 363.253 234.439 362.905 233.882C362.801 233.709 362.662 233.569 362.558 233.396C362.28 233.013 361.967 232.665 361.654 232.318C361.514 232.144 361.341 232.005 361.202 231.866C361.132 231.726 361.028 231.622 360.923 231.553ZM347.848 240.003C347.848 236.873 350.387 234.369 353.482 234.369C356.611 234.369 359.115 236.908 359.115 240.003C359.115 243.098 356.577 245.636 353.482 245.636C350.387 245.636 347.848 243.098 347.848 240.003ZM319.681 231.553H346.04C345.936 231.657 345.866 231.761 345.762 231.866C345.588 232.005 345.449 232.178 345.31 232.318C344.997 232.665 344.684 233.013 344.406 233.396C344.301 233.569 344.162 233.709 344.058 233.882C343.71 234.439 343.362 234.995 343.119 235.621C343.084 235.656 343.084 235.725 343.084 235.76C342.876 236.212 342.736 236.699 342.597 237.186H323.68L319.681 233.187V231.553ZM319.681 178H426.751V225.884H319.681V178Z" fill="#E0E0E0" stroke="#E0E0E0" stroke-width="2" mask="url(#path-39-inside-4)"/>
<path d="M330.446 219.751H325.812V184.134H330.446V219.751Z" fill="#E0E0E0" stroke="#E0E0E0"/>
<path d="M341.717 219.751H337.083V184.134H341.717V219.751Z" fill="#E0E0E0" stroke="#E0E0E0"/>
<path d="M352.981 219.751H348.348V184.134H352.981V219.751Z" fill="#E0E0E0" stroke="#E0E0E0"/>
<path d="M364.248 219.751H359.615V184.134H364.248V219.751Z" fill="#E0E0E0" stroke="#E0E0E0"/>
<path d="M375.515 219.751H370.882V184.134H375.515V219.751Z" fill="#E0E0E0" stroke="#E0E0E0"/>
<path d="M386.784 219.751H382.15V184.134H386.784V219.751Z" fill="#E0E0E0" stroke="#E0E0E0"/>
<path d="M398.047 219.751H393.414V184.134H398.047V219.751Z" fill="#E0E0E0" stroke="#E0E0E0"/>
<path d="M409.314 219.751H404.681V184.134H409.314V219.751Z" fill="#E0E0E0" stroke="#E0E0E0"/>
<path d="M420.583 219.751H415.949V184.134H420.583V219.751Z" fill="#E0E0E0" stroke="#E0E0E0"/>
<path d="M904.856 220.772L897.936 216.147L890.008 198.76C888.964 196.639 886.774 195.283 884.409 195.318H820.112C816.669 195.318 813.852 198.1 813.852 201.577V243.758C813.852 244.627 814.548 245.323 815.417 245.323H823.798C825.502 250.191 830.822 252.765 835.69 251.061C838.368 250.122 840.489 248 841.428 245.323H876.932C878.636 250.191 883.957 252.765 888.825 251.061C891.503 250.122 893.624 248 894.563 245.323H906.073C906.942 245.323 907.638 244.627 907.638 243.758V225.015C907.568 223.207 906.525 221.572 904.856 220.772ZM894.18 215.661H882.635C881.766 215.661 881.071 214.965 881.071 214.096V206.272C881.071 205.402 881.766 204.707 882.635 204.707H888.686L894.18 215.661ZM838.751 243.48C838.055 246.853 834.752 249.044 831.378 248.348C828.005 247.653 825.815 244.349 826.51 240.976C827.206 237.603 830.509 235.412 833.882 236.108C836.803 236.699 838.89 239.272 838.89 242.228C838.89 242.645 838.855 243.063 838.751 243.48ZM891.885 243.48C891.19 246.853 887.886 249.044 884.513 248.348C881.14 247.653 878.949 244.349 879.645 240.976C880.34 237.603 883.644 235.412 887.017 236.108C889.938 236.699 892.024 239.272 892.024 242.228C892.024 242.645 891.99 243.063 891.885 243.48ZM904.508 235.969H898.249V239.098H904.508V242.228H895.119C895.119 237.047 890.912 232.839 885.73 232.839C880.549 232.839 876.341 237.047 876.341 242.228H841.95C841.95 237.047 837.742 232.839 832.561 232.839C827.379 232.839 823.172 237.047 823.172 242.228H816.912V239.098H821.607V235.969H816.912V225.015H874.742V221.885H816.912V201.577C816.912 199.838 818.303 198.447 820.042 198.447H884.339C885.522 198.447 886.565 199.073 887.121 200.117L887.782 201.577H882.566C879.993 201.577 877.871 203.664 877.871 206.272V214.096C877.871 216.669 879.958 218.79 882.566 218.79H896.163L903.048 223.38C903.083 223.415 903.117 223.45 903.152 223.485H899.744C898.875 223.485 898.179 224.18 898.179 225.05V231.309C898.179 232.178 898.875 232.874 899.744 232.874H904.439V235.969H904.508ZM904.508 229.744H901.379V226.614H904.508V229.744Z" fill="#E0E0E0" stroke="#E0E0E0" stroke-width="0.75" stroke-miterlimit="10" stroke-linecap="round" stroke-linejoin="round"/>
<path d="M878.44 222.42H885.264V224.549H878.44V222.42Z" fill="#E0E0E0" stroke="#E0E0E0"/>
<path d="M844.083 236.468H874.345V238.598H844.083V236.468Z" fill="#E0E0E0" stroke="#E0E0E0"/>
<path d="M903.84 29.0782L903.912 29.4933H904.333H913.756C916.306 29.4933 918.784 30.4871 920.563 32.2994C922.351 34.1209 923.376 36.5693 923.376 39.1125C923.376 41.6574 922.385 44.1036 920.566 45.9572C918.745 47.7436 916.298 48.7666 913.756 48.7666H870.289C867.743 48.7666 865.33 47.7753 863.51 45.9888C861.693 44.204 860.668 41.7916 860.635 39.2452C860.602 36.7017 861.593 34.2548 863.346 32.4351C865.097 30.618 867.511 29.5593 870.058 29.4931L870.472 29.4824L870.539 29.0741C871.18 25.1608 873.239 21.5811 876.278 19.0136C879.355 16.445 883.205 15.0273 887.189 15.0273C891.175 15.0273 895.059 16.4462 898.098 19.0126C901.137 21.5784 903.164 25.1586 903.84 29.0782ZM913.708 43.9245C914.389 43.9617 915.014 43.8001 915.572 43.5778C916.2 43.3413 916.708 42.9873 917.165 42.5312C917.876 41.857 918.301 40.9581 918.456 40.0028C918.649 39.0643 918.528 38.1004 918.186 37.2264C917.834 36.3248 917.209 35.5867 916.403 35.0484C915.617 34.4998 914.683 34.231 913.722 34.231H901.655C901.016 34.231 900.418 34.0013 899.963 33.5485C899.524 33.0778 899.269 32.4698 899.269 31.8448C899.269 28.6164 897.999 25.5685 895.715 23.2845C893.43 21 890.347 19.7302 887.154 19.7302C883.925 19.7302 880.842 21.0362 878.594 23.2845C876.31 25.569 875.04 28.652 875.04 31.8448C875.04 32.4835 874.81 33.0814 874.357 33.5372C873.887 33.9759 873.279 34.231 872.654 34.231H870.254C868.969 34.231 867.733 34.7737 866.844 35.6603C865.909 36.5584 865.407 37.8019 865.407 39.0778C865.407 40.3627 865.95 41.5991 866.837 42.4877C867.735 43.4226 868.978 43.9245 870.254 43.9245H913.708Z" fill="#E0E0E0" stroke="#E0E0E0"/>
<path d="M146.551 265.78L146.551 265.78V265.769C146.551 264.446 147.614 263.383 148.937 263.383H522.097C523.421 263.383 524.484 264.446 524.484 265.769C524.484 267.093 523.421 268.156 522.097 268.156H148.937C147.603 268.156 146.522 267.085 146.551 265.78Z" fill="#E0E0E0" stroke="#E0E0E0"/>
<path d="M135.897 268.156H2.88625C1.56278 268.156 0.5 267.093 0.5 265.769C0.5 264.446 1.56278 263.383 2.88625 263.383H135.897C137.221 263.383 138.283 264.446 138.283 265.769C138.283 267.093 137.221 268.156 135.897 268.156Z" fill="#E0E0E0" stroke="#E0E0E0"/>
<path d="M1274.43 268.156H989.774C988.45 268.156 987.387 267.093 987.387 265.769C987.387 264.446 988.45 263.383 989.774 263.383H1274.43C1275.76 263.383 1276.82 264.446 1276.82 265.769C1276.82 267.093 1275.76 268.156 1274.43 268.156Z" fill="#E0E0E0" stroke="#E0E0E0"/>
<path d="M974.401 268.156H679.552C678.228 268.156 677.166 267.093 677.166 265.769C677.166 264.446 678.228 263.383 679.552 263.383H974.401C975.725 263.383 976.787 264.446 976.787 265.769C976.787 267.093 975.725 268.156 974.401 268.156Z" fill="#E0E0E0" stroke="#E0E0E0"/>
<path d="M680.569 309.438L680.568 309.439C680.106 310.103 679.321 310.511 678.51 310.511H524.53C523.133 310.511 522.017 309.379 522.074 308.006L522.074 307.996V307.986V277.802C522.074 276.409 523.207 275.276 524.6 275.276H531.311H531.702L531.796 274.898L537.256 253.025L537.256 253.025L537.258 253.016C537.517 251.894 538.526 251.108 539.692 251.108H551.758H552.258V250.608V241.567C552.258 240.174 553.391 239.042 554.784 239.042H572.901C573.682 239.042 574.435 239.419 574.896 240.053L574.896 240.053L574.9 240.058L583.037 250.943L583.187 251.143H583.437H607.223H608.032L607.67 250.42L604.645 244.369L604.507 244.093H604.197H597.499V239.042H629.708V244.093H625.41H624.203L625.056 244.946L631.107 250.997L631.253 251.143H631.46H651.351C652.021 251.143 652.658 251.406 653.119 251.866L653.472 251.513L653.119 251.866L676.383 275.13L676.529 275.276H676.736H699.652C700.161 275.276 700.655 275.445 701.107 275.744C702.234 276.559 702.493 278.125 701.711 279.255C701.71 279.256 701.71 279.256 701.71 279.256L680.569 309.438ZM617.209 244.239L617.062 244.093H616.855H610.909H610.1L610.462 244.816L613.487 250.867L613.625 251.143H613.934H622.906H624.113L623.26 250.29L617.209 244.239ZM557.739 244.093H557.239V244.593V250.643V251.143H557.739H575.857H576.854L576.257 250.344L571.737 244.293L571.587 244.093H571.336H557.739ZM541.987 256.159H541.596L541.502 256.538L536.981 274.655L536.826 275.276H537.466H668.217H669.424L668.57 274.423L650.453 256.306L650.306 256.159H650.099H541.987ZM527.555 280.327H527.055V280.827V292.894V293.394H527.555H685.395H685.655L685.805 293.181L694.255 281.114L694.806 280.327H693.845H527.555ZM527.555 298.444H527.055V298.944V304.995V305.495H527.555H676.945H677.205L677.354 305.282L681.597 299.231L682.148 298.444H681.187H527.555Z" fill="#E0E0E0" stroke="#E0E0E0"/>
<path d="M546.172 263.21H551.223V268.26H546.172V263.21Z" fill="#E0E0E0" stroke="#E0E0E0"/>
<path d="M558.242 263.21H563.292V268.26H558.242V263.21Z" fill="#E0E0E0" stroke="#E0E0E0"/>
<path d="M570.307 263.21H575.358V268.26H570.307V263.21Z" fill="#E0E0E0" stroke="#E0E0E0"/>
<path d="M582.376 263.21H587.427V268.26H582.376V263.21Z" fill="#E0E0E0" stroke="#E0E0E0"/>
<path d="M594.474 263.21H599.525V268.26H594.474V263.21Z" fill="#E0E0E0" stroke="#E0E0E0"/>
<path d="M606.543 263.21H611.594V268.26H606.543V263.21Z" fill="#E0E0E0" stroke="#E0E0E0"/>
<path d="M618.609 263.21H623.66V268.26H618.609V263.21Z" fill="#E0E0E0" stroke="#E0E0E0"/>
<path d="M630.707 263.21H635.758V268.26H630.707V263.21Z" fill="#E0E0E0" stroke="#E0E0E0"/>
<path d="M642.776 263.21H647.827V268.26H642.776V263.21Z" fill="#E0E0E0" stroke="#E0E0E0"/>
<path d="M1124.28 295.217L1124.28 295.218L1124.29 295.225C1125.06 295.734 1125.28 296.744 1124.77 297.52C1124.26 298.276 1123.24 298.505 1122.48 298.009C1120.89 296.891 1119.46 295.536 1118.24 293.977L1118.23 293.966L1118.23 293.955C1116.01 291.428 1114.07 289.229 1110.2 289.229C1108.3 289.229 1106.9 289.671 1105.65 290.51C1104.43 291.333 1103.38 292.525 1102.17 293.961C1099.74 296.809 1097.09 299.835 1091.7 299.835C1086.38 299.835 1083.53 296.583 1081.31 294.047L1081.23 293.955C1079.01 291.428 1077.07 289.229 1073.2 289.229C1071.3 289.229 1069.9 289.671 1068.65 290.51C1067.43 291.333 1066.38 292.526 1065.17 293.961C1062.74 296.806 1059.98 299.835 1054.7 299.835C1049.42 299.835 1046.66 296.842 1044.24 293.968C1042.98 292.394 1041.48 291.07 1039.76 290.032L1039.75 290.023L1039.73 290.015C1038.89 289.582 1038.58 288.592 1038.98 287.8C1039.41 286.965 1040.39 286.653 1041.18 287.042C1043.31 288.225 1045.16 289.845 1046.65 291.805L1046.66 291.819L1046.67 291.832C1048.89 294.36 1050.83 296.558 1054.7 296.558C1056.6 296.558 1058 296.117 1059.25 295.278C1060.47 294.455 1061.52 293.262 1062.73 291.826C1065.16 288.979 1067.81 285.952 1073.2 285.952C1078.52 285.952 1081.37 289.205 1083.59 291.74L1083.67 291.832C1085.89 294.36 1087.83 296.558 1091.7 296.558C1093.6 296.558 1095 296.117 1096.25 295.278C1097.47 294.455 1098.52 293.262 1099.73 291.826C1102.16 288.982 1104.91 285.952 1110.2 285.952C1115.48 285.952 1118.33 289.074 1120.66 291.713C1121.66 293.071 1122.88 294.252 1124.28 295.217Z" fill="#E0E0E0" stroke="#E0E0E0"/>
<path d="M741.9 330.547L741.907 330.552L741.914 330.557C742.655 331.033 742.898 332.076 742.394 332.849C741.878 333.606 740.865 333.835 740.1 333.339C738.51 332.221 737.087 330.866 735.867 329.306L735.858 329.295L735.849 329.285C733.633 326.758 731.689 324.559 727.823 324.559C725.925 324.559 724.522 325.001 723.275 325.84C722.052 326.662 721.002 327.855 719.791 329.291C717.36 332.138 714.711 335.165 709.323 335.165C704.003 335.165 701.152 331.912 698.93 329.377L698.849 329.285C696.634 326.758 694.689 324.559 690.823 324.559C688.926 324.559 687.522 325.001 686.275 325.84C685.053 326.662 684.002 327.855 682.791 329.291C680.363 332.136 677.608 335.165 672.323 335.165C667.04 335.165 664.284 332.171 661.861 329.298C660.608 327.724 659.104 326.399 657.385 325.361L657.371 325.353L657.356 325.345C656.504 324.905 656.178 323.946 656.598 323.132C657.03 322.295 658.015 321.982 658.807 322.372C660.931 323.554 662.788 325.175 664.275 327.135L664.285 327.149L664.297 327.162C666.513 329.689 668.457 331.888 672.323 331.888C674.221 331.888 675.624 331.446 676.871 330.607C678.094 329.785 679.144 328.592 680.355 327.156C682.786 324.309 685.435 321.282 690.823 321.282C696.143 321.282 698.994 324.535 701.216 327.07L701.297 327.162C703.512 329.689 705.457 331.888 709.323 331.888C711.222 331.888 712.626 331.437 713.872 330.594C715.093 329.767 716.143 328.575 717.353 327.157C719.782 324.312 722.537 321.282 727.823 321.282C733.099 321.282 735.956 324.404 738.283 327.043C739.287 328.401 740.504 329.581 741.9 330.547Z" fill="#E0E0E0" stroke="#E0E0E0"/>
<path d="M902.519 313.335L902.522 313.337C903.282 313.853 903.513 314.87 903.013 315.637C902.497 316.393 901.484 316.622 900.719 316.126C899.128 315.008 897.706 313.653 896.486 312.094L896.477 312.083L896.468 312.072C894.252 309.545 892.308 307.347 888.442 307.347C886.544 307.347 885.141 307.788 883.894 308.627C882.671 309.45 881.621 310.643 880.41 312.078C877.979 314.926 875.33 317.953 869.942 317.953C864.622 317.953 861.771 314.7 859.549 312.165L859.468 312.072C857.252 309.545 855.308 307.347 851.442 307.347C849.545 307.347 848.141 307.788 846.894 308.627C845.672 309.45 844.621 310.643 843.41 312.079C840.982 314.923 838.227 317.953 832.942 317.953C827.659 317.953 824.903 314.959 822.479 312.085C821.227 310.511 819.723 309.187 818.004 308.149L817.99 308.14L817.975 308.133C817.123 307.693 816.797 306.734 817.216 305.92C817.648 305.083 818.634 304.77 819.426 305.16C821.55 306.342 823.407 307.963 824.893 309.922L824.904 309.936L824.916 309.95C827.132 312.477 829.076 314.675 832.942 314.675C834.839 314.675 836.243 314.234 837.49 313.395C838.712 312.572 839.763 311.379 840.974 309.943C843.404 307.096 846.054 304.069 851.442 304.069C856.762 304.069 859.613 307.322 861.835 309.857L861.915 309.95C864.131 312.477 866.075 314.675 869.942 314.675C871.841 314.675 873.245 314.224 874.49 313.381C875.712 312.555 876.762 311.362 877.972 309.945C880.401 307.1 883.156 304.069 888.442 304.069C893.718 304.069 896.575 307.192 898.902 309.83C899.906 311.189 901.123 312.369 902.519 313.335Z" fill="#E0E0E0" stroke="#E0E0E0"/>
<path d="M465.654 301.269L465.661 301.273L465.668 301.278C466.41 301.755 466.653 302.797 466.149 303.571C465.633 304.327 464.619 304.556 463.854 304.06C462.264 302.942 460.842 301.587 459.621 300.028L459.613 300.017L459.603 300.006C457.388 297.479 455.443 295.28 451.577 295.28C449.678 295.28 448.274 295.732 447.028 296.575C445.807 297.401 444.757 298.594 443.547 300.011C441.116 302.859 438.466 305.886 433.077 305.886C427.757 305.886 424.906 302.634 422.685 300.098L422.604 300.006C420.388 297.479 418.444 295.28 414.578 295.28C412.68 295.28 411.277 295.722 410.03 296.561C408.807 297.384 407.757 298.577 406.546 300.012C404.117 302.857 401.363 305.886 396.078 305.886C390.794 305.886 388.039 302.893 385.615 300.019C384.362 298.445 382.858 297.121 381.14 296.083L381.126 296.074L381.111 296.066C380.272 295.633 379.959 294.643 380.354 293.851C380.786 293.016 381.771 292.704 382.561 293.093C384.686 294.276 386.542 295.896 388.029 297.856L388.04 297.87L388.051 297.883C390.267 300.411 392.212 302.609 396.078 302.609C397.975 302.609 399.378 302.168 400.625 301.329C401.848 300.506 402.898 299.313 404.109 297.877C406.54 295.03 409.19 292.003 414.578 292.003C419.898 292.003 422.748 295.256 424.97 297.791C424.997 297.822 425.024 297.853 425.051 297.883C427.267 300.411 429.211 302.609 433.077 302.609C434.977 302.609 436.38 302.158 437.626 301.315C438.847 300.488 439.898 299.296 441.108 297.879C443.537 295.033 446.291 292.003 451.577 292.003C456.854 292.003 459.711 295.126 462.037 297.764C463.041 299.122 464.259 300.303 465.654 301.269Z" fill="#E0E0E0" stroke="#E0E0E0"/>
<path d="M111.756 293.826L111.766 293.833L111.777 293.84C112.535 294.311 112.761 295.345 112.25 296.128C111.734 296.885 110.721 297.114 109.956 296.617C108.365 295.5 106.943 294.145 105.723 292.585L105.714 292.574L105.705 292.564C103.489 290.036 101.545 287.838 97.6786 287.838C95.7791 287.838 94.3757 288.289 93.1298 289.132C91.9084 289.959 90.858 291.151 89.648 292.569C87.2171 295.416 84.5673 298.444 79.1788 298.444C73.8588 298.444 71.0079 295.191 68.7861 292.656L68.7052 292.564C66.4895 290.036 64.5452 287.838 60.679 287.838C58.7816 287.838 57.3782 288.279 56.1313 289.119C54.9086 289.941 53.8583 291.134 52.6473 292.57C50.2189 295.415 47.4642 298.444 42.1792 298.444C36.8957 298.444 34.1405 295.45 31.7165 292.577C30.4636 291.003 28.9598 289.678 27.2415 288.64L27.2271 288.632L27.2122 288.624C26.3602 288.184 26.0336 287.225 26.4535 286.411C26.8855 285.574 27.8711 285.261 28.6627 285.651C30.7874 286.833 32.6439 288.454 34.1305 290.414L34.1412 290.428L34.1529 290.441C36.3686 292.968 38.313 295.167 42.1792 295.167C44.0765 295.167 45.4799 294.725 46.7268 293.886C47.9495 293.064 48.9998 291.871 50.2108 290.435C52.6415 287.588 55.2913 284.561 60.679 284.561C65.999 284.561 68.8498 287.814 71.0716 290.349L71.1525 290.441C73.3682 292.968 75.3126 295.167 79.1788 295.167C81.0762 295.167 82.4795 294.725 83.7264 293.886C84.9491 293.064 85.9993 291.871 87.2103 290.435C89.6387 287.59 92.3934 284.561 97.6786 284.561C102.955 284.561 105.812 287.683 108.139 290.322C109.143 291.68 110.36 292.86 111.756 293.826Z" fill="#E0E0E0" stroke="#E0E0E0"/>
<path d="M281.075 320.777L281.075 320.777L281.086 320.784C281.863 321.293 282.076 322.303 281.57 323.079C281.054 323.835 280.041 324.064 279.276 323.568C277.685 322.45 276.263 321.095 275.042 319.536L275.034 319.525L275.024 319.514C272.809 316.987 270.864 314.789 266.998 314.789C265.101 314.789 263.697 315.23 262.451 316.069C261.228 316.892 260.178 318.085 258.967 319.52C256.536 322.368 253.886 325.395 248.498 325.395C243.178 325.395 240.327 322.142 238.106 319.607L238.025 319.514C235.809 316.987 233.865 314.789 229.999 314.789C228.101 314.789 226.698 315.23 225.451 316.069C224.228 316.892 223.178 318.085 221.967 319.521C219.538 322.365 216.784 325.395 211.499 325.395C206.215 325.395 203.46 322.401 201.036 319.527C199.783 317.953 198.279 316.629 196.561 315.591L196.547 315.582L196.532 315.575C195.68 315.135 195.353 314.176 195.773 313.362C196.205 312.525 197.191 312.212 197.982 312.602C200.107 313.784 201.963 315.405 203.45 317.364L203.461 317.378L203.472 317.392C205.688 319.919 207.633 322.117 211.499 322.117C213.396 322.117 214.8 321.676 216.046 320.837C217.269 320.014 218.319 318.821 219.53 317.385C221.961 314.538 224.611 311.511 229.999 311.511C235.319 311.511 238.169 314.764 240.391 317.299L240.472 317.392C242.688 319.919 244.632 322.117 248.498 322.117C250.396 322.117 251.799 321.676 253.046 320.837C254.269 320.014 255.319 318.821 256.53 317.386C258.958 314.541 261.713 311.511 266.998 311.511C272.275 311.511 275.132 314.634 277.458 317.272C278.462 318.631 279.68 319.811 281.075 320.777Z" fill="#E0E0E0" stroke="#E0E0E0"/>
<path d="M1178.58 202.655V203.155H1178.62V205.819V211.3H1173.64V205.819V203.976V198.725V198.416L1173.36 198.278L1163.07 193.132C1162.73 192.965 1162.47 192.797 1162.3 192.576L1162.28 192.552L1162.26 192.53C1162.06 192.329 1161.92 192.063 1161.79 191.718C1161.7 191.412 1161.65 191.099 1161.67 190.769C1161.7 190.41 1161.79 190.09 1161.93 189.803L1161.94 189.795L1161.94 189.787C1162.09 189.473 1162.28 189.226 1162.52 189.036L1162.55 189.016L1162.57 188.994C1162.77 188.793 1163.04 188.651 1163.38 188.525C1163.69 188.434 1164.03 188.382 1164.33 188.409C1164.65 188.438 1164.97 188.526 1165.26 188.671C1165.26 188.671 1165.26 188.671 1165.26 188.671L1172.88 192.496L1173.6 192.859V192.049V187.702V187.269L1173.17 187.207C1169.2 186.63 1165.5 184.899 1162.51 182.251C1159.53 179.602 1157.36 176.14 1156.34 172.274L1156.34 172.27C1155.29 168.403 1155.42 164.33 1156.68 160.526C1157.93 156.728 1160.31 153.4 1163.43 150.92L1163.77 150.654L1163.56 150.281C1162.31 148.096 1161.64 145.573 1161.64 143.052C1161.64 140.497 1162.31 138.011 1163.59 135.828L1163.59 135.828L1163.59 135.823C1164.83 133.644 1166.68 131.828 1168.87 130.548C1171.05 129.271 1173.54 128.599 1176.09 128.599C1178.64 128.599 1181.13 129.304 1183.32 130.551C1185.5 131.791 1187.32 133.639 1188.6 135.828C1189.87 138.011 1190.55 140.532 1190.55 143.052C1190.55 145.611 1189.91 148.097 1188.63 150.276L1188.41 150.653L1188.75 150.922C1191.91 153.4 1194.25 156.726 1195.51 160.526C1196.76 164.327 1196.87 168.4 1195.85 172.272C1194.8 176.143 1192.66 179.604 1189.67 182.251L1189.67 182.253C1186.68 184.932 1182.99 186.63 1179.01 187.207L1178.58 187.269V187.702V202.655ZM1173 182.106L1173.6 182.23V181.617V169.967C1173.6 169.297 1173.86 168.66 1174.33 168.2C1174.79 167.739 1175.42 167.477 1176.09 167.477C1176.77 167.477 1177.38 167.741 1177.76 168.199L1177.77 168.217L1177.79 168.234C1178.25 168.695 1178.51 169.332 1178.51 170.002V181.651V182.267L1179.12 182.141C1182.2 181.494 1185.01 179.95 1187.2 177.651C1189.39 175.385 1190.83 172.473 1191.3 169.346C1191.76 166.223 1191.3 163.025 1189.89 160.183C1188.49 157.344 1186.27 155.009 1183.5 153.465L1183.49 153.459L1183.48 153.454C1183.16 153.295 1182.91 153.052 1182.66 152.716C1182.45 152.385 1182.31 152.037 1182.26 151.67C1182.2 151.295 1182.23 150.919 1182.34 150.536C1182.46 150.172 1182.65 149.853 1182.93 149.548C1184.21 148.223 1185.05 146.534 1185.38 144.706C1185.71 142.87 1185.49 140.996 1184.76 139.306C1184.02 137.616 1182.81 136.185 1181.27 135.16L1181.27 135.16L1181.27 135.155C1179.73 134.166 1177.93 133.615 1176.06 133.615C1174.19 133.615 1172.39 134.127 1170.85 135.157C1169.3 136.153 1168.09 137.622 1167.36 139.306C1166.62 140.996 1166.4 142.87 1166.73 144.706L1166.73 144.707C1167.06 146.503 1167.91 148.189 1169.19 149.546C1169.46 149.852 1169.66 150.171 1169.77 150.536C1169.89 150.919 1169.92 151.295 1169.86 151.67C1169.8 152.066 1169.68 152.402 1169.46 152.703C1169.22 153.032 1168.93 153.293 1168.62 153.463L1168.62 153.464C1166.21 154.795 1164.2 156.771 1162.8 159.142C1161.4 161.512 1160.64 164.208 1160.64 166.977C1160.64 170.532 1161.86 174.019 1164.13 176.754C1166.39 179.483 1169.51 181.387 1173 182.106Z" fill="#E0E0E0" stroke="#E0E0E0"/>
<path d="M1177.86 156.237C1178.32 156.698 1178.58 157.335 1178.58 158.005V160.995C1178.58 161.665 1178.32 162.302 1177.86 162.763C1177.4 163.224 1176.76 163.486 1176.09 163.486C1175.42 163.486 1174.79 163.224 1174.33 162.763C1173.87 162.302 1173.6 161.665 1173.6 160.995V158.005C1173.6 157.335 1173.87 156.698 1174.33 156.237C1174.79 155.776 1175.42 155.514 1176.09 155.514C1176.76 155.514 1177.4 155.776 1177.86 156.237Z" fill="#E0E0E0" stroke="#E0E0E0"/>
<path d="M97.7707 202.655V203.155H97.8054V205.819V211.3H92.8243V205.819V203.976V198.725V198.416L92.5479 198.278L82.2548 193.132C81.9211 192.965 81.6585 192.797 81.487 192.576L81.4678 192.552L81.4458 192.53C81.2446 192.329 81.1028 192.063 80.976 191.718C80.8855 191.412 80.8328 191.099 80.8603 190.769C80.8902 190.41 80.9789 190.09 81.1222 189.803L81.1263 189.795L81.1302 189.787C81.2726 189.473 81.4669 189.226 81.7122 189.036L81.7368 189.016L81.7588 188.994C81.96 188.793 82.2253 188.651 82.5709 188.525C82.8768 188.434 83.2214 188.382 83.516 188.409C83.8396 188.438 84.161 188.526 84.4498 188.671C84.45 188.671 84.4502 188.671 84.4504 188.671L92.0651 192.496L92.7895 192.859V192.049V187.702V187.269L92.3614 187.207C88.3901 186.63 84.6898 184.899 81.7021 182.251C78.7136 179.602 76.5424 176.14 75.5251 172.274L75.5241 172.27C74.4724 168.403 74.6075 164.33 75.8641 160.526C77.119 156.728 79.4945 153.4 82.6202 150.92L82.956 150.654L82.7439 150.281C81.4999 148.096 80.8273 145.573 80.8273 143.052C80.8273 140.497 81.4995 138.011 82.7758 135.828L82.7758 135.828L82.7787 135.823C84.0191 133.644 85.8667 131.828 88.056 130.548C90.2392 129.271 92.7253 128.599 95.2801 128.599C97.8307 128.599 100.319 129.304 102.509 130.551C104.688 131.791 106.504 133.639 107.784 135.828C109.06 138.011 109.733 140.532 109.733 143.052C109.733 145.611 109.093 148.097 107.819 150.276L107.599 150.653L107.942 150.922C111.099 153.4 113.441 156.726 114.696 160.526C115.952 164.327 116.054 168.4 115.036 172.272C113.983 176.143 111.844 179.604 108.858 182.251L108.856 182.253C105.871 184.932 102.173 186.63 98.1988 187.207L97.7707 187.269V187.702V202.655ZM92.1886 182.106L92.7895 182.23V181.617V169.967C92.7895 169.297 93.0518 168.66 93.5124 168.2C93.9731 167.739 94.6101 167.477 95.2801 167.477C95.9557 167.477 96.5689 167.741 96.9458 168.199L96.9611 168.217L96.9782 168.234C97.4388 168.695 97.7011 169.332 97.7011 170.002V181.651V182.267L98.3036 182.141C101.392 181.494 104.194 179.95 106.386 177.651C108.579 175.385 110.017 172.473 110.484 169.346C110.951 166.223 110.485 163.025 109.082 160.183C107.68 157.344 105.453 155.009 102.687 153.465L102.677 153.459L102.667 153.454C102.349 153.295 102.095 153.052 101.849 152.716C101.64 152.385 101.499 152.037 101.442 151.67C101.385 151.295 101.413 150.919 101.53 150.536C101.643 150.172 101.84 149.853 102.114 149.548C103.399 148.223 104.241 146.534 104.57 144.706C104.9 142.87 104.68 140.996 103.945 139.306C103.211 137.616 101.999 136.185 100.461 135.16L100.461 135.16L100.454 135.155C98.915 134.166 97.1177 133.615 95.2453 133.615C93.3807 133.615 91.5804 134.127 90.0335 135.157C88.4868 136.153 87.2774 137.622 86.5453 139.306C85.8104 140.996 85.5902 142.87 85.9206 144.706L85.9209 144.707C86.2508 146.503 87.0932 148.189 88.3749 149.546C88.6491 149.852 88.8477 150.171 88.9602 150.536C89.0778 150.919 89.1059 151.295 89.0482 151.67C88.9872 152.066 88.8704 152.402 88.6512 152.703C88.4121 153.032 88.1189 153.293 87.8077 153.463L87.8054 153.464C85.3956 154.795 83.3838 156.771 81.9832 159.142C80.5825 161.512 79.8273 164.208 79.8273 166.977C79.8273 170.532 81.048 174.019 83.3154 176.754C85.5773 179.483 88.7022 181.387 92.1886 182.106Z" fill="#E0E0E0" stroke="#E0E0E0"/>
<path d="M97.047 156.237C97.5077 156.698 97.77 157.335 97.77 158.005V160.995C97.77 161.665 97.5077 162.302 97.047 162.763C96.5864 163.224 95.9494 163.486 95.2794 163.486C94.6094 163.486 93.9724 163.224 93.5117 162.763C93.0511 162.302 92.7888 161.665 92.7888 160.995V158.005C92.7888 157.335 93.0511 156.698 93.5117 156.237C93.9724 155.776 94.6094 155.514 95.2794 155.514C95.9494 155.514 96.5864 155.776 97.047 156.237Z" fill="#E0E0E0" stroke="#E0E0E0"/>
<path d="M1246.99 202.655V203.155H1247.02V205.819V211.3H1242.04V205.819V203.976V198.725V198.416L1241.76 198.278L1231.47 193.132C1231.14 192.965 1230.87 192.797 1230.7 192.576L1230.68 192.552L1230.66 192.53C1230.46 192.329 1230.32 192.063 1230.19 191.718C1230.1 191.412 1230.05 191.099 1230.08 190.769C1230.11 190.41 1230.2 190.09 1230.34 189.803L1230.34 189.795L1230.35 189.787C1230.49 189.473 1230.68 189.226 1230.93 189.036L1230.95 189.016L1230.98 188.994C1231.18 188.793 1231.44 188.651 1231.79 188.525C1232.09 188.434 1232.44 188.382 1232.73 188.409C1233.06 188.438 1233.38 188.526 1233.67 188.67C1233.67 188.671 1233.67 188.671 1233.67 188.671L1241.28 192.496L1242.01 192.859V192.049V187.702V187.269L1241.58 187.207C1237.61 186.63 1233.91 184.899 1230.92 182.251C1227.93 179.602 1225.76 176.14 1224.74 172.274L1224.74 172.27C1223.69 168.403 1223.82 164.33 1225.08 160.526C1226.34 156.728 1228.71 153.4 1231.84 150.92L1232.17 150.654L1231.96 150.281C1230.72 148.096 1230.04 145.573 1230.04 143.052C1230.04 140.497 1230.72 138.011 1231.99 135.828L1231.99 135.828L1231.99 135.823C1233.24 133.644 1235.08 131.828 1237.27 130.548C1239.46 129.271 1241.94 128.599 1244.5 128.599C1247.05 128.599 1249.54 129.304 1251.73 130.551C1253.9 131.791 1255.72 133.639 1257 135.828C1258.28 138.011 1258.95 140.532 1258.95 143.052C1258.95 145.611 1258.31 148.097 1257.04 150.276L1256.82 150.653L1257.16 150.922C1260.32 153.4 1262.66 156.726 1263.91 160.526C1265.17 164.327 1265.27 168.4 1264.25 172.272C1263.2 176.143 1261.06 179.604 1258.07 182.251L1258.07 182.253C1255.09 184.932 1251.39 186.63 1247.42 187.207L1246.99 187.269V187.702V202.655ZM1241.4 182.106L1242.01 182.23V181.617V169.967C1242.01 169.297 1242.27 168.66 1242.73 168.2C1243.19 167.739 1243.83 167.477 1244.5 167.477C1245.13 167.477 1245.75 167.737 1246.17 168.212L1246.18 168.223L1246.19 168.234C1246.66 168.695 1246.92 169.332 1246.92 170.002V181.651V182.267L1247.52 182.141C1250.61 181.494 1253.41 179.95 1255.6 177.651C1257.8 175.385 1259.23 172.473 1259.7 169.346C1260.17 166.223 1259.7 163.025 1258.3 160.183C1256.9 157.344 1254.67 155.009 1251.9 153.465L1251.89 153.459L1251.88 153.454C1251.57 153.295 1251.31 153.052 1251.06 152.716C1250.86 152.386 1250.72 152.037 1250.66 151.67C1250.6 151.295 1250.63 150.919 1250.75 150.536C1250.86 150.172 1251.06 149.853 1251.33 149.548C1252.62 148.223 1253.46 146.534 1253.79 144.706C1254.12 142.87 1253.9 140.996 1253.16 139.306C1252.43 137.616 1251.22 136.185 1249.68 135.16L1249.68 135.16L1249.67 135.155C1248.13 134.166 1246.33 133.615 1244.46 133.615C1242.6 133.615 1240.8 134.127 1239.25 135.157C1237.7 136.153 1236.49 137.622 1235.76 139.306C1235.03 140.996 1234.81 142.87 1235.14 144.706L1235.14 144.707C1235.47 146.503 1236.31 148.189 1237.59 149.546C1237.87 149.852 1238.06 150.171 1238.18 150.536C1238.29 150.919 1238.32 151.295 1238.26 151.67C1238.2 152.066 1238.09 152.402 1237.87 152.703C1237.63 153.032 1237.34 153.293 1237.02 153.463L1237.02 153.464C1234.61 154.795 1232.6 156.771 1231.2 159.142C1229.8 161.512 1229.04 164.208 1229.04 166.977C1229.04 170.532 1230.26 174.019 1232.53 176.754C1234.79 179.483 1237.92 181.387 1241.4 182.106Z" fill="#E0E0E0" stroke="#E0E0E0"/>
<path d="M1246.27 156.237C1246.73 156.698 1246.99 157.335 1246.99 158.005V160.995C1246.99 161.665 1246.73 162.302 1246.27 162.763C1245.8 163.224 1245.17 163.486 1244.5 163.486C1243.83 163.486 1243.19 163.224 1242.73 162.763C1242.27 162.302 1242.01 161.665 1242.01 160.995V158.005C1242.01 157.335 1242.27 156.698 1242.73 156.237C1243.19 155.776 1243.83 155.514 1244.5 155.514C1245.17 155.514 1245.8 155.776 1246.27 156.237Z" fill="#E0E0E0" stroke="#E0E0E0"/>
<path d="M1207.29 82.2274L1207.37 82.6274H1207.78H1215.11C1217.38 82.6274 1219.55 83.5146 1221.16 85.1238C1222.77 86.733 1223.65 88.9005 1223.65 91.1686C1223.65 93.4368 1222.77 95.6043 1221.16 97.2135C1219.55 98.8227 1217.38 99.7099 1215.11 99.7099H1178.91C1176.72 99.7099 1174.61 98.8255 1173 97.3069C1171.39 95.802 1170.47 93.703 1170.37 91.4977C1170.31 89.2918 1171.06 87.125 1172.54 85.4872L1172.54 85.4872L1172.54 85.4831C1173.98 83.8443 1176.05 82.8251 1178.25 82.6608L1178.64 82.6324L1178.71 82.2573C1179.35 78.9665 1181.16 75.974 1183.75 73.8556C1186.34 71.7373 1189.6 70.5608 1192.96 70.5608C1196.32 70.5608 1199.59 71.7371 1202.21 73.8576C1204.83 75.9745 1206.61 78.9319 1207.29 82.2274ZM1176.88 94.0097L1177.17 93.6028L1176.88 94.0097C1177.46 94.4227 1178.16 94.6244 1178.84 94.6244H1215.04C1215.97 94.6244 1216.87 94.2608 1217.52 93.6087C1218.17 92.9565 1218.53 92.0635 1218.53 91.1339C1218.53 90.2043 1218.17 89.3112 1217.52 88.6591C1216.87 88.007 1215.97 87.6433 1215.04 87.6433H1204.99C1204.32 87.6433 1203.69 87.381 1203.23 86.9204C1202.77 86.4598 1202.5 85.8228 1202.5 85.1527C1202.5 82.6221 1201.51 80.1994 1199.71 78.4008C1197.92 76.6021 1195.49 75.6115 1192.96 75.6115C1190.43 75.6115 1188.01 76.6021 1186.21 78.4008C1184.41 80.1994 1183.42 82.6221 1183.42 85.1527C1183.42 85.8228 1183.16 86.4598 1182.7 86.9204C1182.24 87.381 1181.6 87.6433 1180.93 87.6433H1178.91C1178.45 87.6433 1177.97 87.7675 1177.58 87.9225C1177.16 88.0909 1176.76 88.3764 1176.44 88.6939C1176.01 89.1185 1175.53 89.6655 1175.4 90.421C1175.28 91.088 1175.31 91.7825 1175.6 92.4471C1175.89 93.092 1176.33 93.6134 1176.88 94.0097Z" fill="#E0E0E0" stroke="#E0E0E0"/>
<path d="M23.1458 196.111L22.7305 196.182V196.604V202.759V205.819V211.3H17.7494V205.819V204.358V196.604V196.179L17.3303 196.11C13.0048 195.401 9.11774 193.069 6.44742 189.621C3.77687 186.173 2.49244 181.846 2.86426 177.486C3.23607 173.126 5.2302 169.068 8.44249 166.092C11.6544 163.151 15.8805 161.495 20.2399 161.495C24.6022 161.495 28.8269 163.118 32.0363 166.091C35.2492 169.067 37.2438 173.125 37.6156 177.486C37.9877 181.849 36.7362 186.174 34.0343 189.619C31.329 193.068 27.4749 195.367 23.1458 196.111ZM17.125 191.003L17.7494 191.163V190.518V178.939C17.7494 178.269 18.0116 177.632 18.4723 177.171C18.9329 176.71 19.5699 176.448 20.2399 176.448C20.9038 176.448 21.5078 176.706 21.9728 177.171C22.4335 177.632 22.6957 178.269 22.6957 178.939V190.588V191.233L23.3207 191.072C25.5642 190.493 27.6299 189.299 29.227 187.593C30.8569 185.89 31.9432 183.789 32.4137 181.509C32.8849 179.225 32.7031 176.871 31.9075 174.666C31.1098 172.454 29.6957 170.532 27.8462 169.118C25.9985 167.705 23.7906 166.837 21.4766 166.584C19.1527 166.329 16.8334 166.766 14.7369 167.778L14.7369 167.778L14.7338 167.779C12.6682 168.794 10.8929 170.388 9.66062 172.382C8.43 174.372 7.77766 176.654 7.77766 178.973C7.77766 181.726 8.68312 184.408 10.3878 186.584C12.0889 188.756 14.4432 190.314 17.125 191.003Z" fill="#E0E0E0" stroke="#E0E0E0"/>
</svg>
