<svg width="133" height="153" viewBox="0 0 133 153" fill="none" xmlns="http://www.w3.org/2000/svg">
<g filter="url(#filter0_d)">
<path d="M56.4405 75.4685L46.6901 65.7181C44.6761 63.7041 41.4107 63.7041 39.3967 65.7181C37.3827 67.7321 37.3827 70.9975 39.3967 73.0115L56.4405 90.0553L94.1747 52.321C96.1887 50.307 96.1887 47.0417 94.1747 45.0276C92.1607 43.0136 88.8953 43.0136 86.8813 45.0276L56.4405 75.4685Z" fill="#FBB829"/>
<path d="M66.7858 144.833L34.8397 127.8C25.7324 122.955 18.1165 115.721 12.8091 106.875C7.50178 98.0293 4.70343 87.9051 4.71439 77.5892V10.3452C4.71713 7.60235 5.80795 4.97259 7.74746 3.03307C9.68698 1.09356 12.3167 0.00273878 15.0596 0H118.512C121.255 0.00273878 123.885 1.09356 125.824 3.03307C127.764 4.97259 128.854 7.60235 128.857 10.3452V77.5892C128.868 87.9051 126.07 98.0293 120.762 106.875C115.455 115.721 107.839 122.955 98.7319 127.8L66.7858 144.833ZM15.0596 10.3452V77.5892C15.051 86.0299 17.3413 94.3136 21.6845 101.551C26.0278 108.789 32.26 114.707 39.7123 118.67L66.7858 133.107L93.8592 118.675C101.312 114.712 107.545 108.793 111.888 101.554C116.232 94.3156 118.521 86.0308 118.512 77.5892V10.3452H15.0596Z" fill="#FBB829"/>
</g>
<defs>
<filter id="filter0_d" x="0.714355" y="0" width="132.143" height="152.833" filterUnits="userSpaceOnUse" color-interpolation-filters="sRGB">
<feFlood flood-opacity="0" result="BackgroundImageFix"/>
<feColorMatrix in="SourceAlpha" type="matrix" values="0 0 0 0 0 0 0 0 0 0 0 0 0 0 0 0 0 0 127 0"/>
<feOffset dy="4"/>
<feGaussianBlur stdDeviation="2"/>
<feColorMatrix type="matrix" values="0 0 0 0 0 0 0 0 0 0 0 0 0 0 0 0 0 0 0.15 0"/>
<feBlend mode="normal" in2="BackgroundImageFix" result="effect1_dropShadow"/>
<feBlend mode="normal" in="SourceGraphic" in2="effect1_dropShadow" result="shape"/>
</filter>
</defs>
</svg>
