<svg width="179" height="162" viewBox="0 0 179 162" fill="none" xmlns="http://www.w3.org/2000/svg">
<g filter="url(#filter0_d)">
<path d="M168.145 35.9402C162.476 31.1124 154.91 31.5666 148.001 32.2802C140.176 33.0911 132.373 33.9669 124.522 34.5021C116.783 35.0265 109.034 35.3888 101.279 35.5455C86.3679 35.8537 71.4675 35.3888 56.6102 34.0913C52.3852 33.7236 48.1711 33.2641 43.9623 32.7397C43.9515 32.6478 43.9354 32.5559 43.9246 32.464C43.057 26.2144 42.1678 19.8567 40.3032 13.8125C38.9775 9.51461 36.6603 5.61132 32.624 3.38936C29.978 1.92968 26.9818 1.35663 24.0125 0.994409C21.3234 0.66463 18.5696 0.134821 15.8644 0.0158842C13.019 -0.113865 10.0767 0.534881 7.96419 2.56762C5.90562 4.54629 5.01106 7.34131 4.65539 10.1147C4.29972 12.9259 4.40749 15.8291 4.65 18.6457C4.8925 21.4461 5.24817 24.1276 6.78941 26.5442C9.2306 30.3718 13.4286 32.6316 17.729 33.7074C18.7151 33.9507 19.7013 34.2048 20.6875 34.4535C25.9902 35.778 31.3414 36.9187 36.7142 37.9405C37.5764 48.1474 38.1261 58.3868 39.4841 68.5451C40.4864 76.0597 41.8229 83.623 44.2371 90.8241C46.5005 97.5819 49.8416 104.361 55.3491 109.048C58.5502 111.773 62.441 113.498 66.3264 114.995C74.232 118.039 82.5795 119.926 90.873 121.45C96.8763 122.553 102.939 123.315 109.023 123.753C117.958 124.397 126.957 124.64 135.844 123.364C141.109 122.607 146.282 121.288 150.572 118.082C168.344 104.815 173.868 55.3107 173.868 55.3107C174.536 48.3366 173.809 40.7679 168.145 35.9402ZM18.9091 28.6202C15.5087 27.8525 11.6125 26.0522 10.2491 22.5057C9.5701 20.7487 9.53238 18.6727 9.41382 16.8184C9.27371 14.6559 9.30065 12.461 9.74254 10.3363C10.0659 8.76314 10.6533 6.92503 12.1568 6.09788C13.7142 5.2437 15.7297 5.58429 17.3787 5.91407C21.221 6.67634 25.6184 6.73581 29.1212 8.64961C30.7379 9.53082 31.918 10.8986 32.6994 12.5583C32.9958 13.1962 33.4593 14.2775 33.5185 14.8289C33.6155 15.748 33.9982 16.6995 34.1868 17.5969C34.564 19.3701 34.8604 21.165 35.1137 22.9599C35.5232 25.8522 35.8466 28.7553 36.143 31.6639C30.3714 30.7935 24.6268 29.7879 18.9091 28.6202ZM146.358 103.096C144.784 105.037 142.612 107.216 140.171 108.048C135.655 109.73 130.789 110.2 126.004 110.432C114.665 110.989 103.3 110.13 92.0802 108.513C86.6481 107.729 81.2322 106.708 75.9295 105.297C73.3051 104.599 70.6968 103.804 68.1479 102.853C67.3665 102.561 66.6012 102.247 65.836 101.918C65.7229 101.869 65.0331 101.561 65.3402 101.718C64.9738 101.534 64.602 101.355 64.2463 101.161C59.5795 98.5658 56.8203 93.2731 54.821 88.5264C52.4337 82.8499 50.9033 76.8166 49.6476 70.7941C47.4867 60.4249 46.2257 49.899 44.8623 39.3948C49.459 40.1624 54.072 40.849 58.6849 41.4816C72.8955 43.4224 87.1978 44.6388 101.532 45.1902C116.853 45.7849 132.147 45.5146 147.452 44.5739C150.572 44.3793 153.821 43.909 156.925 44.5036C158.208 44.7469 159.652 45.201 160.261 46.4661C160.902 47.8014 160.924 49.4233 160.892 50.8722C160.865 51.8561 160.897 54.1375 160.827 55.581C160.805 55.8459 160.784 56.1054 160.768 56.3811C158.558 86.4342 146.654 102.729 146.358 103.096Z" fill="#D9202A"/>
<path d="M168.792 43.8332C168.544 43.8332 168.312 43.6818 168.221 43.4386C166.211 37.9783 159.254 36.178 159.184 36.1618C158.86 36.0807 158.661 35.7509 158.742 35.4211C158.822 35.0968 159.146 34.8967 159.48 34.9778C159.792 35.0589 167.132 36.9565 169.358 43.0115C169.476 43.325 169.315 43.6764 169.002 43.7954C168.932 43.817 168.862 43.8332 168.792 43.8332Z" fill="white"/>
<path d="M61.3043 110.568C61.2019 110.568 61.0941 110.54 60.9971 110.486C56.2387 107.702 51.7281 101.161 51.5395 100.88C51.3509 100.604 51.421 100.225 51.6958 100.031C51.976 99.8416 52.3532 99.9119 52.5419 100.188C52.585 100.252 57.0901 106.783 61.6114 109.432C61.9025 109.6 61.9995 109.973 61.827 110.265C61.7138 110.459 61.5144 110.568 61.3043 110.568Z" fill="white"/>
<path d="M7.31781 6.69248C7.23698 6.69248 7.16153 6.67626 7.08609 6.64383C6.77892 6.51408 6.62803 6.16267 6.75736 5.84911C6.81664 5.70855 8.22854 2.35129 11.4188 1.93501C11.7475 1.88636 12.0547 2.12423 12.0978 2.45942C12.1409 2.7946 11.9038 3.09735 11.5751 3.1406C9.09077 3.45957 7.88904 6.28161 7.87826 6.30864C7.78126 6.54652 7.55492 6.69248 7.31781 6.69248Z" fill="white"/>
<g filter="url(#filter1_i)">
<path d="M89.5096 137.02C90.7436 146.849 82.5039 155.115 72.7068 153.877C66.0138 153.028 60.641 147.643 59.8003 140.929C58.5663 131.1 66.806 122.834 76.603 124.072C83.2961 124.916 88.6635 130.306 89.5096 137.02Z" fill="#FBB829"/>
<path d="M135.596 130.068C126.316 127.586 118.082 135.847 120.555 145.156C121.639 149.227 124.861 152.466 128.919 153.547C138.199 156.028 146.433 147.768 143.96 138.458C142.876 134.387 139.654 131.154 135.596 130.068Z" fill="#FBB829"/>
<path d="M86.5674 136.442C86.3195 136.442 86.0878 136.29 85.9962 136.042C83.9592 130.479 79.0498 127.878 78.9959 127.856C78.6996 127.7 78.581 127.332 78.7373 127.035C78.8936 126.737 79.26 126.618 79.5564 126.775C79.7773 126.889 84.9346 129.619 87.1386 135.625C87.2518 135.939 87.0901 136.29 86.7776 136.409C86.7075 136.431 86.6375 136.442 86.5674 136.442Z" fill="white"/>
<path d="M142.057 140.485C141.782 140.485 141.535 140.302 141.47 140.026C140.268 135.193 135.661 132.873 135.617 132.852C135.316 132.706 135.192 132.338 135.343 132.036C135.488 131.733 135.855 131.614 136.156 131.76C136.367 131.863 141.314 134.355 142.65 139.729C142.731 140.053 142.531 140.383 142.208 140.469C142.16 140.48 142.106 140.485 142.057 140.485Z" fill="white"/>
</g>
<path d="M83.5873 96.4303C83.3448 94.3867 83.043 92.3486 82.7736 90.3104C82.4664 87.9912 82.1754 85.6719 81.8736 83.358C81.5557 80.9252 81.2269 78.487 80.9144 76.0542C80.5857 73.5187 80.3054 70.9724 79.939 68.4423C79.5941 66.069 79.1845 63.7065 78.748 61.3547C78.1499 58.1381 77.2553 55.0079 75.8218 52.0561C74.9919 50.3423 73.9411 48.7853 72.4591 47.5581C71.2574 46.5633 69.8671 46.0173 68.3258 45.9524C66.3589 45.8714 64.7476 46.7039 63.465 48.1528C61.4657 50.4072 60.1185 53.0346 59.1161 55.862C58.9868 56.2242 58.8251 56.5702 58.6257 57.046C58.5719 56.8514 58.5503 56.8027 58.5395 56.7487C58.3509 55.4458 58.2108 54.1375 57.9683 52.8508C57.6881 51.3533 57.0845 49.9747 56.1145 48.7799C55.2684 47.7311 53.8512 47.3418 52.4554 47.7635C51.1675 48.1528 50.6932 49.1205 50.5423 50.3693C50.3376 52.0398 50.343 53.7104 50.5908 55.3593C51.1459 58.9976 51.7387 62.6306 52.4069 66.2528C53.0536 69.7776 53.9212 73.2646 54.9505 76.6976C56.5133 81.8876 58.2324 87.0289 60.4472 91.9864C61.3472 94.0029 62.2848 96.0032 63.8692 97.6034C64.7745 98.5171 65.7661 99.2901 67.054 99.6037C67.6684 99.7551 68.148 99.3604 68.1372 98.7225C68.1318 98.0846 68.0564 97.4304 67.8947 96.8195C67.4367 95.0733 66.9139 93.3379 66.4235 91.5971C65.6691 88.9048 65.0386 86.1855 64.9146 83.3851C64.7745 80.2008 64.726 77.0057 64.9847 73.8215C65.2272 70.8264 65.6475 67.8638 66.3966 64.9499C66.9678 62.7333 67.6307 60.5546 68.9186 58.6246C68.9348 58.603 68.951 58.5814 68.9617 58.5597C69.1288 58.3435 69.7216 57.6731 70.0772 58.7273C70.0826 58.7381 70.0826 58.7435 70.088 58.7544C70.5407 60.1113 71.0419 61.4575 71.3598 62.8415C71.8987 65.1878 72.3029 67.5665 72.7394 69.9398C73.1597 72.2375 73.5477 74.5459 73.9411 76.849C74.3668 79.325 74.7548 81.8065 75.2021 84.2771C75.7464 87.2775 76.3607 90.2672 76.8996 93.273C77.2499 95.2139 77.7457 97.0898 78.8504 98.7549C79.357 99.5172 79.8959 100.242 80.7312 100.674C81.8736 101.269 82.7628 100.955 83.2316 99.7605C83.6681 98.6847 83.722 97.5548 83.5873 96.4303Z" fill="#D9202A"/>
<path d="M103.785 90.851C103.23 90.3537 102.486 90.3591 101.969 90.7808C101.543 91.1268 101.161 91.5322 100.778 91.9269C100.697 92.008 100.616 92.0945 100.541 92.1864C99.7272 93.1054 98.4015 93.4677 97.3076 92.9162C96.8711 92.6946 96.4777 92.381 96.122 91.9972C94.985 90.7645 94.3221 89.24 93.6054 87.7533C93.4545 87.4451 93.6377 87.2073 93.9126 87.1424C93.9395 87.137 93.9664 87.1316 93.988 87.1262C94.6886 86.964 100.083 85.5692 103.117 80.8928C104.41 78.7844 105.353 76.4705 106.048 74.0215C106.738 71.5995 106.975 69.1127 106.975 65.8257C106.948 64.4201 106.781 62.2576 106.264 60.1221C105.526 57.0784 104.227 54.3321 102.109 52.0182C100.837 50.6288 99.2853 49.6449 97.4369 49.261C96.4885 49.0664 95.4969 49.0286 94.5269 49.0069C93.9287 48.9907 93.3252 49.088 92.7647 49.2935C90.6846 50.0612 89.0625 51.4343 87.8338 53.2941C85.9531 56.1431 85.134 59.3923 84.622 62.7279C84.0616 66.3879 83.8945 70.102 84.0724 73.7998C84.1694 75.8001 84.331 77.795 84.5951 79.7791C84.9615 82.5147 85.5058 85.2232 86.2279 87.8938C87.3003 91.8728 88.5667 95.7707 90.8193 99.2685C92.3983 101.723 94.2521 103.934 96.704 105.561C97.9219 106.372 99.2584 106.81 100.751 106.68C102.837 106.497 104.227 105.307 105.278 103.61C106.048 102.372 106.307 100.988 106.388 99.555C106.539 97.0412 106.189 94.6192 105.014 92.3702C104.712 91.7971 104.265 91.2835 103.785 90.851ZM91.8055 71.3454V71.34C91.8163 71.194 91.827 71.0481 91.8486 70.9021C92.1234 68.7667 92.4468 66.642 93.4006 64.6687C93.6808 64.0849 94.0796 63.5388 94.5215 63.0631C95.2005 62.3387 96.1597 62.2197 97.0651 62.636C97.2106 62.7009 97.3507 62.782 97.4962 62.8469C99.7164 63.8848 99.8188 65.6959 99.2314 67.3881C98.671 69.0099 97.7387 70.3669 96.5747 71.54C96.5747 71.54 96.5639 71.5509 96.5531 71.5617C96.5424 71.5725 96.5316 71.5833 96.5208 71.5941C96.149 71.9671 93.5784 74.481 92.824 74.3675C92.0103 74.254 91.6492 72.6483 91.8055 71.3454Z" fill="#D9202A"/>
<path d="M96.5751 71.5508C96.5696 71.5563 96.5642 71.5617 96.5532 71.5727C96.5587 71.5617 96.5751 71.5508 96.5751 71.5508Z" fill="#D9202A"/>
<path d="M133.247 58.9813C132.966 57.4622 132.277 56.1106 131.42 54.8347C130.391 53.3102 129.092 52.0127 127.534 51.0936C125.955 50.1584 124.123 49.7745 122.291 49.7529C119.537 49.7205 117.295 50.9315 115.533 53.002C112.844 56.1593 111.341 59.8679 110.753 63.9496C110.354 66.7284 110.387 69.518 110.813 72.3022C111.529 76.9732 113.383 80.9846 117.215 83.9418C118.6 85.0122 119.861 86.234 120.938 87.6397C121.871 88.856 122.42 90.2292 122.555 91.743C122.717 93.6027 121.741 94.8948 120.34 95.8841C118.767 96.987 116.563 96.7275 115.372 95.2192C114.849 94.5596 114.461 93.7973 114.046 93.0567C113.809 92.6296 113.593 92.1863 113.34 91.77C113.34 91.77 113.033 91.1429 112.456 90.6996C112.246 90.5212 112.057 90.4022 111.853 90.3644C111.19 90.1319 110.322 90.2455 109.277 91.2943C107.493 93.0837 108.565 97.2141 109.384 99.5712C109.541 100.069 109.729 100.561 109.945 101.036C110.015 101.198 110.058 101.296 110.058 101.296L110.063 101.29C110.408 102.02 110.813 102.734 111.281 103.42C112.618 105.377 114.261 107.026 116.509 107.972C117.565 108.421 118.767 108.443 119.839 108.037C121.779 107.302 123.293 105.994 124.42 104.264C125.562 102.507 126.467 100.625 127.071 98.6089C127.691 96.5329 128.24 94.4353 128.364 92.2728C128.461 90.5536 128.413 88.8236 128.332 87.099C128.213 84.4932 127.513 82.0226 126.354 79.6979C124.985 76.9624 122.954 74.7512 120.739 72.6915C120.593 72.5563 120.448 72.4158 120.302 72.2806C117.242 69.345 117.603 64.2199 121.175 61.9385C121.348 61.825 121.526 61.7223 121.714 61.6195C122.668 61.0897 123.681 61.0032 124.711 61.4195C126.106 61.9818 127.168 62.89 127.793 64.3064C128.046 64.8741 128.354 65.4363 128.731 65.9283C129.167 66.5068 129.959 66.7392 130.617 66.4419C131.619 65.9878 132.293 65.2093 132.724 64.2307C133.43 62.544 133.581 60.7762 133.247 58.9813Z" fill="#D9202A"/>
<path d="M139.859 72.0103C139.099 71.7454 138.355 71.5292 137.649 71.2264C136.534 70.7453 135.887 69.8749 135.569 68.6801C134.976 66.4527 135.305 64.4038 136.518 62.463C137.132 61.479 138.005 61.0952 139.11 61.1925C140.069 61.2736 141.023 61.3871 141.971 61.5223C142.305 61.5709 142.386 61.4628 142.462 61.1601C143.324 57.7163 144.186 54.2725 145.086 50.8396C145.312 49.98 145.571 49.1204 146.078 48.3744C146.703 47.4607 148.088 46.8498 149.149 47.1526C149.694 47.3093 150.162 47.6283 150.513 48.1689C151.456 49.634 151.785 51.2342 151.386 52.9534C150.637 56.1539 149.877 59.3544 149.101 62.5495C149.009 62.9333 149.106 63.0468 149.451 63.1658C150.664 63.582 151.876 64.0037 153.062 64.4903C155.013 65.285 155.665 66.8852 155.584 68.8693C155.519 70.4263 155.099 71.8644 154.043 73.0591C153.698 73.4538 153.417 73.9187 153.029 74.2539C152.167 75.0054 151.122 74.9892 150.082 74.7567C149.047 74.5242 148.018 74.2323 146.988 73.9674C146.805 73.9187 146.627 73.8755 146.385 73.816C146.04 74.9189 145.663 75.9893 145.366 77.0814C144.359 80.7954 143.356 84.5149 142.402 88.2398C141.901 90.1914 141.535 92.1755 141.465 94.1974C141.438 95.0246 141.432 95.8626 141.556 96.6789C141.696 97.6088 142.23 97.7764 142.984 97.2033C143.701 96.6573 144.402 96.0788 145.091 95.5003C145.528 95.1327 146.018 94.9057 146.584 94.83C147.42 94.7218 147.969 95.1652 148.034 96.0139C148.093 96.733 147.996 97.4412 147.619 98.0467C147.053 98.9603 146.487 99.901 145.771 100.69C144.359 102.247 142.85 103.718 141.131 104.945C140.726 105.232 140.301 105.502 139.848 105.702C139.072 106.042 138.151 105.799 137.666 105.107C137.251 104.518 136.895 103.853 136.663 103.172C136.043 101.334 135.747 99.4307 135.693 97.4844C135.629 95.0949 135.785 92.7107 136.167 90.359C136.755 86.8071 137.488 83.2769 138.199 79.7466C138.711 77.2111 139.288 74.6864 139.837 72.1563C139.859 72.1185 139.853 72.0752 139.859 72.0103Z" fill="#D9202A"/>
<g opacity="0.64">
<path opacity="0.65" d="M20.8113 29.1012V34.6048C26.0601 35.8806 31.352 36.9943 36.6655 37.9836L36.0728 31.7124C30.964 30.961 25.8769 30.0798 20.8113 29.1012Z" fill="url(#paint0_linear)"/>
<path opacity="0.65" d="M56.5402 34.1183C52.3099 33.7507 48.0904 33.2911 43.8816 32.7613L44.7708 39.4218C49.1304 40.1462 53.4955 40.8004 57.8659 41.4005L57.5318 34.194C57.203 34.167 56.8689 34.1453 56.5402 34.1183Z" fill="url(#paint1_linear)"/>
</g>
<path d="M139.18 104.426C139.045 104.426 138.91 104.377 138.808 104.275C137.488 103.004 137.083 100.55 137.067 100.447C137.019 100.155 137.218 99.874 137.515 99.8308C137.806 99.7875 138.086 99.9822 138.134 100.279C138.14 100.301 138.495 102.48 139.557 103.502C139.773 103.707 139.778 104.048 139.573 104.264C139.46 104.372 139.32 104.426 139.18 104.426Z" fill="white"/>
<path d="M115.808 105.394C115.694 105.394 115.581 105.356 115.484 105.286C112.596 103.112 111.033 99.9172 110.968 99.7821C110.839 99.5118 110.952 99.1928 111.216 99.0631C111.486 98.9333 111.804 99.0468 111.938 99.3117C111.955 99.3442 113.458 102.415 116.131 104.426C116.368 104.604 116.417 104.945 116.239 105.183C116.131 105.318 115.969 105.394 115.808 105.394Z" fill="white"/>
<path d="M104.205 61.0519C103.957 61.0519 103.736 60.8789 103.683 60.6303C102.556 55.5917 98.8756 53.2292 98.8379 53.2075C98.5846 53.0508 98.5092 52.7156 98.6655 52.4615C98.8218 52.2074 99.1559 52.1317 99.4092 52.2885C99.5762 52.3912 103.51 54.9159 104.733 60.3924C104.798 60.6843 104.615 60.9709 104.324 61.0357C104.286 61.0465 104.243 61.0519 104.205 61.0519Z" fill="white"/>
<path d="M74.7441 56.2675C74.5123 56.2675 74.3022 56.1216 74.2267 55.8891C72.222 49.4179 68.5252 48.4339 68.4875 48.4285C68.2019 48.3582 68.024 48.0663 68.0887 47.7798C68.1588 47.4933 68.4444 47.3094 68.7354 47.3797C68.9132 47.423 73.0519 48.461 75.256 55.5755C75.3422 55.8621 75.186 56.1648 74.9004 56.2513C74.8519 56.2621 74.798 56.2675 74.7441 56.2675Z" fill="white"/>
</g>
<defs>
<filter id="filter0_d" x="0.426758" y="0" width="177.647" height="162" filterUnits="userSpaceOnUse" color-interpolation-filters="sRGB">
<feFlood flood-opacity="0" result="BackgroundImageFix"/>
<feColorMatrix in="SourceAlpha" type="matrix" values="0 0 0 0 0 0 0 0 0 0 0 0 0 0 0 0 0 0 127 0"/>
<feOffset dy="4"/>
<feGaussianBlur stdDeviation="2"/>
<feColorMatrix type="matrix" values="0 0 0 0 0 0 0 0 0 0 0 0 0 0 0 0 0 0 0.25 0"/>
<feBlend mode="normal" in2="BackgroundImageFix" result="effect1_dropShadow"/>
<feBlend mode="normal" in="SourceGraphic" in2="effect1_dropShadow" result="shape"/>
</filter>
<filter id="filter1_i" x="59.6775" y="115.949" width="84.7267" height="38.051" filterUnits="userSpaceOnUse" color-interpolation-filters="sRGB">
<feFlood flood-opacity="0" result="BackgroundImageFix"/>
<feBlend mode="normal" in="SourceGraphic" in2="BackgroundImageFix" result="shape"/>
<feColorMatrix in="SourceAlpha" type="matrix" values="0 0 0 0 0 0 0 0 0 0 0 0 0 0 0 0 0 0 127 0" result="hardAlpha"/>
<feOffset dy="-8"/>
<feGaussianBlur stdDeviation="4"/>
<feComposite in2="hardAlpha" operator="arithmetic" k2="-1" k3="1"/>
<feColorMatrix type="matrix" values="0 0 0 0 0.95 0 0 0 0 0.752377 0 0 0 0 0.4275 0 0 0 1 0"/>
<feBlend mode="normal" in2="shape" result="effect1_innerShadow"/>
</filter>
<linearGradient id="paint0_linear" x1="44.6606" y1="35.1403" x2="30.1892" y2="33.6978" gradientUnits="userSpaceOnUse">
<stop/>
<stop offset="1" stop-opacity="0"/>
</linearGradient>
<linearGradient id="paint1_linear" x1="38.2136" y1="38.8489" x2="50.8201" y2="37.1006" gradientUnits="userSpaceOnUse">
<stop/>
<stop offset="1" stop-opacity="0"/>
</linearGradient>
</defs>
</svg>
