<svg width="101" height="32" viewBox="0 0 101 32" fill="none" xmlns="http://www.w3.org/2000/svg">
<rect x="0.25" y="5.25" width="100.5" height="20.5" rx="10.25" fill="white" stroke="#DB0A2A" stroke-width="0.5"/>
<path d="M48.0117 17.7207C48.0117 18.4746 47.7383 19.0625 47.1914 19.4844C46.6445 19.9062 45.9023 20.1172 44.9648 20.1172C43.9492 20.1172 43.168 19.9863 42.6211 19.7246V18.7637C42.9727 18.9121 43.3555 19.0293 43.7695 19.1152C44.1836 19.2012 44.5938 19.2441 45 19.2441C45.6641 19.2441 46.1641 19.1191 46.5 18.8691C46.8359 18.6152 47.0039 18.2637 47.0039 17.8145C47.0039 17.5176 46.9434 17.2754 46.8223 17.0879C46.7051 16.8965 46.5059 16.7207 46.2246 16.5605C45.9473 16.4004 45.5234 16.2188 44.9531 16.0156C44.1562 15.7305 43.5859 15.3926 43.2422 15.002C42.9023 14.6113 42.7324 14.1016 42.7324 13.4727C42.7324 12.8125 42.9805 12.2871 43.4766 11.8965C43.9727 11.5059 44.6289 11.3105 45.4453 11.3105C46.2969 11.3105 47.0801 11.4668 47.7949 11.7793L47.4844 12.6465C46.7773 12.3496 46.0898 12.2012 45.4219 12.2012C44.8945 12.2012 44.4824 12.3145 44.1855 12.541C43.8887 12.7676 43.7402 13.082 43.7402 13.4844C43.7402 13.7812 43.7949 14.0254 43.9043 14.2168C44.0137 14.4043 44.1973 14.5781 44.4551 14.7383C44.7168 14.8945 45.1152 15.0684 45.6504 15.2598C46.5488 15.5801 47.166 15.9238 47.502 16.291C47.8418 16.6582 48.0117 17.1348 48.0117 17.7207ZM53.5664 20L53.373 19.0859H53.3262C53.0059 19.4883 52.6855 19.7617 52.3652 19.9062C52.0488 20.0469 51.6523 20.1172 51.1758 20.1172C50.5391 20.1172 50.0391 19.9531 49.6758 19.625C49.3164 19.2969 49.1367 18.8301 49.1367 18.2246C49.1367 16.9277 50.1738 16.248 52.248 16.1855L53.3379 16.1504V15.752C53.3379 15.248 53.2285 14.877 53.0098 14.6387C52.7949 14.3965 52.4492 14.2754 51.9727 14.2754C51.4375 14.2754 50.832 14.4395 50.1562 14.7676L49.8574 14.0234C50.1738 13.8516 50.5195 13.7168 50.8945 13.6191C51.2734 13.5215 51.6523 13.4727 52.0312 13.4727C52.7969 13.4727 53.3633 13.6426 53.7305 13.9824C54.1016 14.3223 54.2871 14.8672 54.2871 15.6172V20H53.5664ZM51.3691 19.3145C51.9746 19.3145 52.4492 19.1484 52.793 18.8164C53.1406 18.4844 53.3145 18.0195 53.3145 17.4219V16.8418L52.3418 16.8828C51.5684 16.9102 51.0098 17.0312 50.666 17.2461C50.3262 17.457 50.1562 17.7871 50.1562 18.2363C50.1562 18.5879 50.2617 18.8555 50.4727 19.0391C50.6875 19.2227 50.9863 19.3145 51.3691 19.3145ZM64.4824 20V15.8223C64.4824 15.3105 64.373 14.9277 64.1543 14.6738C63.9355 14.416 63.5957 14.2871 63.1348 14.2871C62.5293 14.2871 62.082 14.4609 61.793 14.8086C61.5039 15.1562 61.3594 15.6914 61.3594 16.4141V20H60.3867V15.8223C60.3867 15.3105 60.2773 14.9277 60.0586 14.6738C59.8398 14.416 59.498 14.2871 59.0332 14.2871C58.4238 14.2871 57.9766 14.4707 57.6914 14.8379C57.4102 15.2012 57.2695 15.7988 57.2695 16.6309V20H56.2969V13.5781H57.0879L57.2461 14.457H57.293C57.4766 14.1445 57.7344 13.9004 58.0664 13.7246C58.4023 13.5488 58.7773 13.4609 59.1914 13.4609C60.1953 13.4609 60.8516 13.8242 61.1602 14.5508H61.207C61.3984 14.2148 61.6758 13.9492 62.0391 13.7539C62.4023 13.5586 62.8164 13.4609 63.2812 13.4609C64.0078 13.4609 64.5508 13.6484 64.9102 14.0234C65.2734 14.3945 65.4551 14.9902 65.4551 15.8105V20H64.4824ZM70.4531 20.1172C70.0352 20.1172 69.6523 20.041 69.3047 19.8887C68.9609 19.7324 68.6719 19.4941 68.4375 19.1738H68.3672C68.4141 19.5488 68.4375 19.9043 68.4375 20.2402V22.8828H67.4648V13.5781H68.2559L68.3906 14.457H68.4375C68.6875 14.1055 68.9785 13.8516 69.3105 13.6953C69.6426 13.5391 70.0234 13.4609 70.4531 13.4609C71.3047 13.4609 71.9609 13.752 72.4219 14.334C72.8867 14.916 73.1191 15.7324 73.1191 16.7832C73.1191 17.8379 72.8828 18.6582 72.4102 19.2441C71.9414 19.8262 71.2891 20.1172 70.4531 20.1172ZM70.3125 14.2871C69.6562 14.2871 69.1816 14.4688 68.8887 14.832C68.5957 15.1953 68.4453 15.7734 68.4375 16.5664V16.7832C68.4375 17.6855 68.5879 18.332 68.8887 18.7227C69.1895 19.1094 69.6719 19.3027 70.3359 19.3027C70.8906 19.3027 71.3242 19.0781 71.6367 18.6289C71.9531 18.1797 72.1113 17.5605 72.1113 16.7715C72.1113 15.9707 71.9531 15.3574 71.6367 14.9316C71.3242 14.502 70.8828 14.2871 70.3125 14.2871ZM78.7734 20L78.5801 19.0859H78.5332C78.2129 19.4883 77.8926 19.7617 77.5723 19.9062C77.2559 20.0469 76.8594 20.1172 76.3828 20.1172C75.7461 20.1172 75.2461 19.9531 74.8828 19.625C74.5234 19.2969 74.3438 18.8301 74.3438 18.2246C74.3438 16.9277 75.3809 16.248 77.4551 16.1855L78.5449 16.1504V15.752C78.5449 15.248 78.4355 14.877 78.2168 14.6387C78.002 14.3965 77.6562 14.2754 77.1797 14.2754C76.6445 14.2754 76.0391 14.4395 75.3633 14.7676L75.0645 14.0234C75.3809 13.8516 75.7266 13.7168 76.1016 13.6191C76.4805 13.5215 76.8594 13.4727 77.2383 13.4727C78.0039 13.4727 78.5703 13.6426 78.9375 13.9824C79.3086 14.3223 79.4941 14.8672 79.4941 15.6172V20H78.7734ZM76.5762 19.3145C77.1816 19.3145 77.6562 19.1484 78 18.8164C78.3477 18.4844 78.5215 18.0195 78.5215 17.4219V16.8418L77.5488 16.8828C76.7754 16.9102 76.2168 17.0312 75.873 17.2461C75.5332 17.457 75.3633 17.7871 75.3633 18.2363C75.3633 18.5879 75.4688 18.8555 75.6797 19.0391C75.8945 19.2227 76.1934 19.3145 76.5762 19.3145ZM82.4766 20H81.5039V13.5781H82.4766V20ZM81.4219 11.8379C81.4219 11.6152 81.4766 11.4531 81.5859 11.3516C81.6953 11.2461 81.832 11.1934 81.9961 11.1934C82.1523 11.1934 82.2871 11.2461 82.4004 11.3516C82.5137 11.457 82.5703 11.6191 82.5703 11.8379C82.5703 12.0566 82.5137 12.2207 82.4004 12.3301C82.2871 12.4355 82.1523 12.4883 81.9961 12.4883C81.832 12.4883 81.6953 12.4355 81.5859 12.3301C81.4766 12.2207 81.4219 12.0566 81.4219 11.8379Z" fill="#DB0A2A"/>
<circle cx="16" cy="16" r="16" fill="#DB0A2A"/>
<g filter="url(#filter0_d)">
<path d="M15.8118 6.27454C11.9216 6.27454 8.78434 9.41179 8.78434 13.302C8.78434 18.0079 15.8118 25.0981 15.8118 25.0981C15.8118 25.0981 22.8392 18.0706 22.8392 13.3647C22.902 9.41179 19.7647 6.27454 15.8118 6.27454C15.8745 6.27454 15.8118 6.27454 15.8118 6.27454ZM15.8118 8.5961C18.3843 8.5961 20.5177 10.7294 20.5177 13.302C20.5177 15.8745 18.3843 18.0079 15.8118 18.0079C13.2392 18.0079 11.1059 15.8745 11.1059 13.302C11.1059 10.7294 13.2392 8.5961 15.8118 8.5961Z" fill="white"/>
</g>
<defs>
<filter id="filter0_d" x="6.78434" y="6.27454" width="18.0558" height="22.8235" filterUnits="userSpaceOnUse" color-interpolation-filters="sRGB">
<feFlood flood-opacity="0" result="BackgroundImageFix"/>
<feColorMatrix in="SourceAlpha" type="matrix" values="0 0 0 0 0 0 0 0 0 0 0 0 0 0 0 0 0 0 127 0"/>
<feOffset dy="2"/>
<feGaussianBlur stdDeviation="1"/>
<feColorMatrix type="matrix" values="0 0 0 0 0 0 0 0 0 0 0 0 0 0 0 0 0 0 0.25 0"/>
<feBlend mode="normal" in2="BackgroundImageFix" result="effect1_dropShadow"/>
<feBlend mode="normal" in="SourceGraphic" in2="effect1_dropShadow" result="shape"/>
</filter>
</defs>
</svg>
