<svg width="98" height="32" viewBox="0 0 98 32" fill="none" xmlns="http://www.w3.org/2000/svg">
<rect x="0.25" y="6.25" width="97.5" height="20.5" rx="10.25" fill="white" stroke="#DB0A2A" stroke-width="0.5"/>
<path d="M48.0117 18.7207C48.0117 19.4746 47.7383 20.0625 47.1914 20.4844C46.6445 20.9062 45.9023 21.1172 44.9648 21.1172C43.9492 21.1172 43.168 20.9863 42.6211 20.7246V19.7637C42.9727 19.9121 43.3555 20.0293 43.7695 20.1152C44.1836 20.2012 44.5938 20.2441 45 20.2441C45.6641 20.2441 46.1641 20.1191 46.5 19.8691C46.8359 19.6152 47.0039 19.2637 47.0039 18.8145C47.0039 18.5176 46.9434 18.2754 46.8223 18.0879C46.7051 17.8965 46.5059 17.7207 46.2246 17.5605C45.9473 17.4004 45.5234 17.2188 44.9531 17.0156C44.1562 16.7305 43.5859 16.3926 43.2422 16.002C42.9023 15.6113 42.7324 15.1016 42.7324 14.4727C42.7324 13.8125 42.9805 13.2871 43.4766 12.8965C43.9727 12.5059 44.6289 12.3105 45.4453 12.3105C46.2969 12.3105 47.0801 12.4668 47.7949 12.7793L47.4844 13.6465C46.7773 13.3496 46.0898 13.2012 45.4219 13.2012C44.8945 13.2012 44.4824 13.3145 44.1855 13.541C43.8887 13.7676 43.7402 14.082 43.7402 14.4844C43.7402 14.7812 43.7949 15.0254 43.9043 15.2168C44.0137 15.4043 44.1973 15.5781 44.4551 15.7383C44.7168 15.8945 45.1152 16.0684 45.6504 16.2598C46.5488 16.5801 47.166 16.9238 47.502 17.291C47.8418 17.6582 48.0117 18.1348 48.0117 18.7207ZM52.3301 21.1172C51.3809 21.1172 50.6309 20.8281 50.0801 20.25C49.5332 19.6719 49.2598 18.8691 49.2598 17.8418C49.2598 16.8066 49.5137 15.9844 50.0215 15.375C50.5332 14.7656 51.2188 14.4609 52.0781 14.4609C52.8828 14.4609 53.5195 14.7266 53.9883 15.2578C54.457 15.7852 54.6914 16.4824 54.6914 17.3496V17.9648H50.2676C50.2871 18.7188 50.4766 19.291 50.8359 19.6816C51.1992 20.0723 51.709 20.2676 52.3652 20.2676C53.0566 20.2676 53.7402 20.123 54.416 19.834V20.7012C54.0723 20.8496 53.7461 20.9551 53.4375 21.0176C53.1328 21.084 52.7637 21.1172 52.3301 21.1172ZM52.0664 15.2754C51.5508 15.2754 51.1387 15.4434 50.8301 15.7793C50.5254 16.1152 50.3457 16.5801 50.291 17.1738H53.6484C53.6484 16.5605 53.5117 16.0918 53.2383 15.7676C52.9648 15.4395 52.5742 15.2754 52.0664 15.2754ZM57.3281 21H56.3555V11.8828H57.3281V21ZM62.1035 21.1172C61.1543 21.1172 60.4043 20.8281 59.8535 20.25C59.3066 19.6719 59.0332 18.8691 59.0332 17.8418C59.0332 16.8066 59.2871 15.9844 59.7949 15.375C60.3066 14.7656 60.9922 14.4609 61.8516 14.4609C62.6562 14.4609 63.293 14.7266 63.7617 15.2578C64.2305 15.7852 64.4648 16.4824 64.4648 17.3496V17.9648H60.041C60.0605 18.7188 60.25 19.291 60.6094 19.6816C60.9727 20.0723 61.4824 20.2676 62.1387 20.2676C62.8301 20.2676 63.5137 20.123 64.1895 19.834V20.7012C63.8457 20.8496 63.5195 20.9551 63.2109 21.0176C62.9062 21.084 62.5371 21.1172 62.1035 21.1172ZM61.8398 15.2754C61.3242 15.2754 60.9121 15.4434 60.6035 15.7793C60.2988 16.1152 60.1191 16.5801 60.0645 17.1738H63.4219C63.4219 16.5605 63.2852 16.0918 63.0117 15.7676C62.7383 15.4395 62.3477 15.2754 61.8398 15.2754ZM70.2715 19.248C70.2715 19.8457 70.0488 20.3066 69.6035 20.6309C69.1582 20.9551 68.5332 21.1172 67.7285 21.1172C66.877 21.1172 66.2129 20.9824 65.7363 20.7129V19.8105C66.0449 19.9668 66.375 20.0898 66.7266 20.1797C67.082 20.2695 67.4238 20.3145 67.752 20.3145C68.2598 20.3145 68.6504 20.2344 68.9238 20.0742C69.1973 19.9102 69.334 19.6621 69.334 19.3301C69.334 19.0801 69.2246 18.8672 69.0059 18.6914C68.791 18.5117 68.3691 18.3008 67.7402 18.0586C67.1426 17.8359 66.7168 17.6426 66.4629 17.4785C66.2129 17.3105 66.0254 17.1211 65.9004 16.9102C65.7793 16.6992 65.7188 16.4473 65.7188 16.1543C65.7188 15.6309 65.9316 15.2188 66.3574 14.918C66.7832 14.6133 67.3672 14.4609 68.1094 14.4609C68.8008 14.4609 69.4766 14.6016 70.1367 14.8828L69.791 15.6738C69.1465 15.4082 68.5625 15.2754 68.0391 15.2754C67.5781 15.2754 67.2305 15.3477 66.9961 15.4922C66.7617 15.6367 66.6445 15.8359 66.6445 16.0898C66.6445 16.2617 66.6875 16.4082 66.7734 16.5293C66.8633 16.6504 67.0059 16.7656 67.2012 16.875C67.3965 16.9844 67.7715 17.1426 68.3262 17.3496C69.0879 17.627 69.6016 17.9062 69.8672 18.1875C70.1367 18.4688 70.2715 18.8223 70.2715 19.248ZM75.8086 21L75.6152 20.0859H75.5684C75.248 20.4883 74.9277 20.7617 74.6074 20.9062C74.291 21.0469 73.8945 21.1172 73.418 21.1172C72.7812 21.1172 72.2812 20.9531 71.918 20.625C71.5586 20.2969 71.3789 19.8301 71.3789 19.2246C71.3789 17.9277 72.416 17.248 74.4902 17.1855L75.5801 17.1504V16.752C75.5801 16.248 75.4707 15.877 75.252 15.6387C75.0371 15.3965 74.6914 15.2754 74.2148 15.2754C73.6797 15.2754 73.0742 15.4395 72.3984 15.7676L72.0996 15.0234C72.416 14.8516 72.7617 14.7168 73.1367 14.6191C73.5156 14.5215 73.8945 14.4727 74.2734 14.4727C75.0391 14.4727 75.6055 14.6426 75.9727 14.9824C76.3438 15.3223 76.5293 15.8672 76.5293 16.6172V21H75.8086ZM73.6113 20.3145C74.2168 20.3145 74.6914 20.1484 75.0352 19.8164C75.3828 19.4844 75.5566 19.0195 75.5566 18.4219V17.8418L74.584 17.8828C73.8105 17.9102 73.252 18.0312 72.9082 18.2461C72.5684 18.457 72.3984 18.7871 72.3984 19.2363C72.3984 19.5879 72.5039 19.8555 72.7148 20.0391C72.9297 20.2227 73.2285 20.3145 73.6113 20.3145ZM79.5117 21H78.5391V14.5781H79.5117V21ZM78.457 12.8379C78.457 12.6152 78.5117 12.4531 78.6211 12.3516C78.7305 12.2461 78.8672 12.1934 79.0312 12.1934C79.1875 12.1934 79.3223 12.2461 79.4355 12.3516C79.5488 12.457 79.6055 12.6191 79.6055 12.8379C79.6055 13.0566 79.5488 13.2207 79.4355 13.3301C79.3223 13.4355 79.1875 13.4883 79.0312 13.4883C78.8672 13.4883 78.7305 13.4355 78.6211 13.3301C78.5117 13.2207 78.457 13.0566 78.457 12.8379Z" fill="#DB0A2A"/>
<circle cx="16" cy="16" r="16" fill="#DB0A2A"/>
<g filter="url(#filter0_d)">
<path d="M5.33102 13.1697L5.34058 13.1607L5.34966 13.1511C5.95709 12.5121 6.88001 12.5418 7.38471 13.1317L7.39323 13.1417L7.40225 13.1511L14.8615 20.998C15.0146 21.1591 15.2164 21.2161 15.3826 21.2161C15.5485 21.2161 15.7501 21.1592 15.9031 20.9986C15.9033 20.9984 15.9035 20.9982 15.9037 20.998L30.9006 5.30527L30.9015 5.30431C31.509 4.66531 32.4319 4.69494 32.9366 5.28486C33.5217 5.96879 33.5272 6.99354 32.9728 7.51843L32.9627 7.52794L32.9532 7.53798L18.0356 23.3142C18.0355 23.3143 18.0354 23.3144 18.0353 23.3145C17.3397 24.0461 16.4409 24.4108 15.4619 24.4108C14.4905 24.4108 13.5891 24.0515 12.8089 23.2307L5.34966 15.3839C4.72931 14.7313 4.7561 13.7141 5.33102 13.1697Z" fill="white" stroke="#DB0A2A"/>
</g>
<defs>
<filter id="filter0_d" x="2.39211" y="4.33374" width="33.4902" height="24.5771" filterUnits="userSpaceOnUse" color-interpolation-filters="sRGB">
<feFlood flood-opacity="0" result="BackgroundImageFix"/>
<feColorMatrix in="SourceAlpha" type="matrix" values="0 0 0 0 0 0 0 0 0 0 0 0 0 0 0 0 0 0 127 0"/>
<feOffset dy="2"/>
<feGaussianBlur stdDeviation="1"/>
<feColorMatrix type="matrix" values="0 0 0 0 0 0 0 0 0 0 0 0 0 0 0 0 0 0 0.25 0"/>
<feBlend mode="normal" in2="BackgroundImageFix" result="effect1_dropShadow"/>
<feBlend mode="normal" in="SourceGraphic" in2="effect1_dropShadow" result="shape"/>
</filter>
</defs>
</svg>
