<svg width="450" height="33" viewBox="0 0 450 33" fill="none" xmlns="http://www.w3.org/2000/svg">
<line x1="107" y1="16.5" x2="122" y2="16.5" stroke="#A9A9A9"/>
<rect x="0.25" y="6.25" width="106.5" height="20.5" rx="10.25" fill="white" stroke="#DB0A2A" stroke-width="0.5"/>
<path d="M51.2656 16.6348C51.2656 18.0488 50.8809 19.1309 50.1113 19.8809C49.3457 20.627 48.2422 21 46.8008 21H44.4277V12.4336H47.0527C48.3848 12.4336 49.4199 12.8027 50.1582 13.541C50.8965 14.2793 51.2656 15.3105 51.2656 16.6348ZM50.2109 16.6699C50.2109 15.5527 49.9297 14.7109 49.3672 14.1445C48.8086 13.5781 47.9766 13.2949 46.8711 13.2949H45.4238V20.1387H46.6367C47.8242 20.1387 48.7168 19.8477 49.3145 19.2656C49.9121 18.6797 50.2109 17.8145 50.2109 16.6699ZM54.0078 21H53.0352V14.5781H54.0078V21ZM52.9531 12.8379C52.9531 12.6152 53.0078 12.4531 53.1172 12.3516C53.2266 12.2461 53.3633 12.1934 53.5273 12.1934C53.6836 12.1934 53.8184 12.2461 53.9316 12.3516C54.0449 12.457 54.1016 12.6191 54.1016 12.8379C54.1016 13.0566 54.0449 13.2207 53.9316 13.3301C53.8184 13.4355 53.6836 13.4883 53.5273 13.4883C53.3633 13.4883 53.2266 13.4355 53.1172 13.3301C53.0078 13.2207 52.9531 13.0566 52.9531 12.8379ZM59.0586 21.1172C58.6406 21.1172 58.2578 21.041 57.9102 20.8887C57.5664 20.7324 57.2773 20.4941 57.043 20.1738H56.9727C57.0195 20.5488 57.043 20.9043 57.043 21.2402V23.8828H56.0703V14.5781H56.8613L56.9961 15.457H57.043C57.293 15.1055 57.584 14.8516 57.916 14.6953C58.248 14.5391 58.6289 14.4609 59.0586 14.4609C59.9102 14.4609 60.5664 14.752 61.0273 15.334C61.4922 15.916 61.7246 16.7324 61.7246 17.7832C61.7246 18.8379 61.4883 19.6582 61.0156 20.2441C60.5469 20.8262 59.8945 21.1172 59.0586 21.1172ZM58.918 15.2871C58.2617 15.2871 57.7871 15.4688 57.4941 15.832C57.2012 16.1953 57.0508 16.7734 57.043 17.5664V17.7832C57.043 18.6855 57.1934 19.332 57.4941 19.7227C57.7949 20.1094 58.2773 20.3027 58.9414 20.3027C59.4961 20.3027 59.9297 20.0781 60.2422 19.6289C60.5586 19.1797 60.7168 18.5605 60.7168 17.7715C60.7168 16.9707 60.5586 16.3574 60.2422 15.9316C59.9297 15.502 59.4883 15.2871 58.918 15.2871ZM66.3594 14.4609C66.6445 14.4609 66.9004 14.4844 67.127 14.5312L66.9922 15.4336C66.7266 15.375 66.4922 15.3457 66.2891 15.3457C65.7695 15.3457 65.3242 15.5566 64.9531 15.9785C64.5859 16.4004 64.4023 16.9258 64.4023 17.5547V21H63.4297V14.5781H64.2324L64.3438 15.7676H64.3906C64.6289 15.3496 64.916 15.0273 65.252 14.8008C65.5879 14.5742 65.957 14.4609 66.3594 14.4609ZM73.8711 17.7832C73.8711 18.8301 73.6074 19.6484 73.0801 20.2383C72.5527 20.8242 71.8242 21.1172 70.8945 21.1172C70.3203 21.1172 69.8105 20.9824 69.3652 20.7129C68.9199 20.4434 68.5762 20.0566 68.334 19.5527C68.0918 19.0488 67.9707 18.459 67.9707 17.7832C67.9707 16.7363 68.2324 15.9219 68.7559 15.3398C69.2793 14.7539 70.0059 14.4609 70.9355 14.4609C71.834 14.4609 72.5469 14.7598 73.0742 15.3574C73.6055 15.9551 73.8711 16.7637 73.8711 17.7832ZM68.9785 17.7832C68.9785 18.6035 69.1426 19.2285 69.4707 19.6582C69.7988 20.0879 70.2812 20.3027 70.918 20.3027C71.5547 20.3027 72.0371 20.0898 72.3652 19.6641C72.6973 19.2344 72.8633 18.6074 72.8633 17.7832C72.8633 16.9668 72.6973 16.3477 72.3652 15.9258C72.0371 15.5 71.5508 15.2871 70.9062 15.2871C70.2695 15.2871 69.7891 15.4961 69.4648 15.9141C69.1406 16.332 68.9785 16.9551 68.9785 17.7832ZM79.7246 19.248C79.7246 19.8457 79.502 20.3066 79.0566 20.6309C78.6113 20.9551 77.9863 21.1172 77.1816 21.1172C76.3301 21.1172 75.666 20.9824 75.1895 20.7129V19.8105C75.498 19.9668 75.8281 20.0898 76.1797 20.1797C76.5352 20.2695 76.877 20.3145 77.2051 20.3145C77.7129 20.3145 78.1035 20.2344 78.377 20.0742C78.6504 19.9102 78.7871 19.6621 78.7871 19.3301C78.7871 19.0801 78.6777 18.8672 78.459 18.6914C78.2441 18.5117 77.8223 18.3008 77.1934 18.0586C76.5957 17.8359 76.1699 17.6426 75.916 17.4785C75.666 17.3105 75.4785 17.1211 75.3535 16.9102C75.2324 16.6992 75.1719 16.4473 75.1719 16.1543C75.1719 15.6309 75.3848 15.2188 75.8105 14.918C76.2363 14.6133 76.8203 14.4609 77.5625 14.4609C78.2539 14.4609 78.9297 14.6016 79.5898 14.8828L79.2441 15.6738C78.5996 15.4082 78.0156 15.2754 77.4922 15.2754C77.0312 15.2754 76.6836 15.3477 76.4492 15.4922C76.2148 15.6367 76.0977 15.8359 76.0977 16.0898C76.0977 16.2617 76.1406 16.4082 76.2266 16.5293C76.3164 16.6504 76.459 16.7656 76.6543 16.875C76.8496 16.9844 77.2246 17.1426 77.7793 17.3496C78.541 17.627 79.0547 17.9062 79.3203 18.1875C79.5898 18.4688 79.7246 18.8223 79.7246 19.248ZM84.0254 21.1172C83.0762 21.1172 82.3262 20.8281 81.7754 20.25C81.2285 19.6719 80.9551 18.8691 80.9551 17.8418C80.9551 16.8066 81.209 15.9844 81.7168 15.375C82.2285 14.7656 82.9141 14.4609 83.7734 14.4609C84.5781 14.4609 85.2148 14.7266 85.6836 15.2578C86.1523 15.7852 86.3867 16.4824 86.3867 17.3496V17.9648H81.9629C81.9824 18.7188 82.1719 19.291 82.5312 19.6816C82.8945 20.0723 83.4043 20.2676 84.0605 20.2676C84.752 20.2676 85.4355 20.123 86.1113 19.834V20.7012C85.7676 20.8496 85.4414 20.9551 85.1328 21.0176C84.8281 21.084 84.459 21.1172 84.0254 21.1172ZM83.7617 15.2754C83.2461 15.2754 82.834 15.4434 82.5254 15.7793C82.2207 16.1152 82.041 16.5801 81.9863 17.1738H85.3438C85.3438 16.5605 85.207 16.0918 84.9336 15.7676C84.6602 15.4395 84.2695 15.2754 83.7617 15.2754ZM92.1934 19.248C92.1934 19.8457 91.9707 20.3066 91.5254 20.6309C91.0801 20.9551 90.4551 21.1172 89.6504 21.1172C88.7988 21.1172 88.1348 20.9824 87.6582 20.7129V19.8105C87.9668 19.9668 88.2969 20.0898 88.6484 20.1797C89.0039 20.2695 89.3457 20.3145 89.6738 20.3145C90.1816 20.3145 90.5723 20.2344 90.8457 20.0742C91.1191 19.9102 91.2559 19.6621 91.2559 19.3301C91.2559 19.0801 91.1465 18.8672 90.9277 18.6914C90.7129 18.5117 90.291 18.3008 89.6621 18.0586C89.0645 17.8359 88.6387 17.6426 88.3848 17.4785C88.1348 17.3105 87.9473 17.1211 87.8223 16.9102C87.7012 16.6992 87.6406 16.4473 87.6406 16.1543C87.6406 15.6309 87.8535 15.2188 88.2793 14.918C88.7051 14.6133 89.2891 14.4609 90.0312 14.4609C90.7227 14.4609 91.3984 14.6016 92.0586 14.8828L91.7129 15.6738C91.0684 15.4082 90.4844 15.2754 89.9609 15.2754C89.5 15.2754 89.1523 15.3477 88.918 15.4922C88.6836 15.6367 88.5664 15.8359 88.5664 16.0898C88.5664 16.2617 88.6094 16.4082 88.6953 16.5293C88.7852 16.6504 88.9277 16.7656 89.123 16.875C89.3184 16.9844 89.6934 17.1426 90.248 17.3496C91.0098 17.627 91.5234 17.9062 91.7891 18.1875C92.0586 18.4688 92.1934 18.8223 92.1934 19.248Z" fill="#DB0A2A"/>
<circle cx="16" cy="16" r="16" fill="#DB0A2A"/>
<g filter="url(#filter0_d)">
<path d="M24.8471 10.8549C24.8471 10.7921 24.7843 10.7294 24.7843 10.6666C24.7216 10.6039 24.7216 10.5412 24.6588 10.4784C24.4078 10.1647 24.1569 9.9137 23.7804 9.66272L17.3804 6.0235C16.502 5.52154 15.498 5.52154 14.6196 6.0235L11.7333 7.65488C11.5451 7.71762 11.3569 7.84311 11.2314 7.9686L8.28235 9.66272C7.96863 9.85096 7.6549 10.1019 7.40392 10.4157C7.34118 10.4784 7.34118 10.5412 7.27843 10.6039C7.21569 10.6666 7.21569 10.7294 7.21569 10.8549C7.02745 11.1686 6.90196 11.6078 6.90196 12.047V19.3255C6.90196 20.3294 7.40392 21.2078 8.28235 21.7098L14.6196 25.349C14.9333 25.5372 15.2471 25.6 15.5608 25.6627C15.6863 25.7255 15.8745 25.7255 16 25.7255C16.1882 25.7255 16.3137 25.6627 16.4392 25.6C16.7529 25.5372 17.0667 25.4117 17.3804 25.2862L23.7176 21.647C24.5961 21.1451 25.098 20.2666 25.098 19.2627V12.047C25.098 11.6078 25.0353 11.1686 24.8471 10.8549ZM15.5608 7.65488C15.6863 7.59213 15.8745 7.52939 16 7.52939C16.1255 7.52939 16.3137 7.59213 16.4392 7.65488L22.2745 10.9804L20.1412 12.2353L13.9294 8.6588L15.5608 7.65488ZM16 14.5568L9.72549 10.9176L11.9216 9.66272L18.1961 13.2392L16 14.5568ZM9.22353 20.0784C8.97255 19.8902 8.78432 19.5764 8.78432 19.2627V12.549L15.0588 16.1882V23.3412L9.22353 20.0784ZM22.7765 20.0157L16.9412 23.4039V16.1882L23.2157 12.549V19.2627C23.2157 19.5764 23.0902 19.8902 22.7765 20.0157Z" fill="#FCFCFC"/>
</g>
<line x1="352" y1="17.5" x2="337" y2="17.5" stroke="#A9A9A9"/>
<rect x="122.25" y="6.25" width="98.5" height="20.5" rx="10.25" fill="white" stroke="#A9A9A9" stroke-width="0.5"/>
<path d="M172.016 16.6348C172.016 18.0488 171.631 19.1309 170.861 19.8809C170.096 20.627 168.992 21 167.551 21H165.178V12.4336H167.803C169.135 12.4336 170.17 12.8027 170.908 13.541C171.646 14.2793 172.016 15.3105 172.016 16.6348ZM170.961 16.6699C170.961 15.5527 170.68 14.7109 170.117 14.1445C169.559 13.5781 168.727 13.2949 167.621 13.2949H166.174V20.1387H167.387C168.574 20.1387 169.467 19.8477 170.064 19.2656C170.662 18.6797 170.961 17.8145 170.961 16.6699ZM174.758 21H173.785V14.5781H174.758V21ZM173.703 12.8379C173.703 12.6152 173.758 12.4531 173.867 12.3516C173.977 12.2461 174.113 12.1934 174.277 12.1934C174.434 12.1934 174.568 12.2461 174.682 12.3516C174.795 12.457 174.852 12.6191 174.852 12.8379C174.852 13.0566 174.795 13.2207 174.682 13.3301C174.568 13.4355 174.434 13.4883 174.277 13.4883C174.113 13.4883 173.977 13.4355 173.867 13.3301C173.758 13.2207 173.703 13.0566 173.703 12.8379ZM177.781 17.7129C177.949 17.4746 178.205 17.1621 178.549 16.7754L180.623 14.5781H181.777L179.176 17.3145L181.959 21H180.781L178.514 17.9648L177.781 18.5977V21H176.82V11.8828H177.781V16.7168C177.781 16.9316 177.766 17.2637 177.734 17.7129H177.781ZM184.098 21H183.125V14.5781H184.098V21ZM183.043 12.8379C183.043 12.6152 183.098 12.4531 183.207 12.3516C183.316 12.2461 183.453 12.1934 183.617 12.1934C183.773 12.1934 183.908 12.2461 184.021 12.3516C184.135 12.457 184.191 12.6191 184.191 12.8379C184.191 13.0566 184.135 13.2207 184.021 13.3301C183.908 13.4355 183.773 13.4883 183.617 13.4883C183.453 13.4883 183.316 13.4355 183.207 13.3301C183.098 13.2207 183.043 13.0566 183.043 12.8379ZM189.09 14.4609C189.375 14.4609 189.631 14.4844 189.857 14.5312L189.723 15.4336C189.457 15.375 189.223 15.3457 189.02 15.3457C188.5 15.3457 188.055 15.5566 187.684 15.9785C187.316 16.4004 187.133 16.9258 187.133 17.5547V21H186.16V14.5781H186.963L187.074 15.7676H187.121C187.359 15.3496 187.646 15.0273 187.982 14.8008C188.318 14.5742 188.688 14.4609 189.09 14.4609ZM192.031 21H191.059V14.5781H192.031V21ZM190.977 12.8379C190.977 12.6152 191.031 12.4531 191.141 12.3516C191.25 12.2461 191.387 12.1934 191.551 12.1934C191.707 12.1934 191.842 12.2461 191.955 12.3516C192.068 12.457 192.125 12.6191 192.125 12.8379C192.125 13.0566 192.068 13.2207 191.955 13.3301C191.842 13.4355 191.707 13.4883 191.551 13.4883C191.387 13.4883 191.25 13.4355 191.141 13.3301C191.031 13.2207 190.977 13.0566 190.977 12.8379ZM202.279 21V16.8223C202.279 16.3105 202.17 15.9277 201.951 15.6738C201.732 15.416 201.393 15.2871 200.932 15.2871C200.326 15.2871 199.879 15.4609 199.59 15.8086C199.301 16.1562 199.156 16.6914 199.156 17.4141V21H198.184V16.8223C198.184 16.3105 198.074 15.9277 197.855 15.6738C197.637 15.416 197.295 15.2871 196.83 15.2871C196.221 15.2871 195.773 15.4707 195.488 15.8379C195.207 16.2012 195.066 16.7988 195.066 17.6309V21H194.094V14.5781H194.885L195.043 15.457H195.09C195.273 15.1445 195.531 14.9004 195.863 14.7246C196.199 14.5488 196.574 14.4609 196.988 14.4609C197.992 14.4609 198.648 14.8242 198.957 15.5508H199.004C199.195 15.2148 199.473 14.9492 199.836 14.7539C200.199 14.5586 200.613 14.4609 201.078 14.4609C201.805 14.4609 202.348 14.6484 202.707 15.0234C203.07 15.3945 203.252 15.9902 203.252 16.8105V21H202.279Z" fill="#A9A9A9"/>
<circle cx="138" cy="16" r="16" fill="#DB0A2A"/>
<g filter="url(#filter1_d)">
<path d="M129.522 15.1163H134.968C135.346 15.1163 135.669 14.7928 135.669 14.4153C135.669 14.0378 135.346 13.7143 134.968 13.7143H129.522C129.144 13.7143 128.821 14.0378 128.821 14.4153C128.821 14.7928 129.144 15.1163 129.522 15.1163Z" fill="#FCFCFC"/>
<path d="M131.355 19.7747H130.708V18.858C130.708 18.4805 130.385 18.157 130.007 18.157C129.63 18.157 129.306 18.4805 129.306 18.858V20.5297C129.306 20.9071 129.63 21.2307 130.007 21.2307H131.355C131.733 21.2307 132.056 20.9071 132.056 20.5297C132.056 20.0983 131.733 19.7747 131.355 19.7747Z" fill="#FCFCFC"/>
<path d="M133.89 16.6733C133.89 16.2958 133.566 15.9722 133.189 15.9722H127.688C127.311 15.9722 126.987 16.2958 126.987 16.6733C126.987 17.0507 127.311 17.3743 127.688 17.3743H133.135C133.566 17.4282 133.89 17.1046 133.89 16.6733Z" fill="#FCFCFC"/>
<path d="M134.375 19.2355C133.782 19.2355 133.189 19.4512 132.757 19.9365C132.326 20.3679 132.056 20.9611 132.056 21.5542C132.056 22.1474 132.326 22.7406 132.757 23.172C133.189 23.6034 133.782 23.8191 134.375 23.8191C135.615 23.8191 136.64 22.7945 136.64 21.5003C136.64 20.2061 135.615 19.2355 134.375 19.2355ZM135.184 21.5003C135.184 21.9856 134.806 22.3631 134.321 22.3631C133.836 22.3631 133.458 21.9856 133.458 21.5003C133.458 21.015 133.836 20.6375 134.321 20.6375C134.806 20.6375 135.184 21.0689 135.184 21.5003Z" fill="#FCFCFC"/>
<path d="M149.42 13.0881L146.184 10.3918C146.077 10.284 145.915 10.2301 145.699 10.2301H142.194V8.88193C142.194 8.50446 141.87 8.18091 141.493 8.18091H130.007C129.576 8.18091 129.252 8.50446 129.252 8.88193V12.1713C129.252 12.5488 129.576 12.8724 129.953 12.8724C130.331 12.8724 130.654 12.5488 130.654 12.1713V9.63688H140.684V19.7747H137.233C136.855 19.7747 136.532 20.0983 136.532 20.4758C136.532 20.8532 136.855 21.1768 137.233 21.1768H142.194C142.572 21.1768 142.895 20.8532 142.895 20.4758C142.895 20.0983 142.572 19.7747 142.194 19.7747H142.086V11.686H145.376L148.126 14.0048L148.072 19.8826C147.856 19.9904 147.694 20.2601 147.694 20.5297C147.694 20.9072 148.018 21.2307 148.395 21.2307H148.773C149.15 21.2307 149.474 20.9072 149.474 20.5297L149.528 13.6812C149.69 13.4116 149.582 13.2498 149.42 13.0881Z" fill="#FCFCFC"/>
<path d="M145.376 19.2355C144.782 19.2355 144.189 19.4512 143.758 19.9365C143.327 20.3679 143.057 20.9611 143.057 21.5542C143.057 22.1474 143.327 22.7406 143.758 23.172C144.189 23.6034 144.782 23.8191 145.376 23.8191C146.616 23.8191 147.641 22.7945 147.641 21.5003C147.641 20.2061 146.616 19.2355 145.376 19.2355ZM146.185 21.5003C146.185 21.9856 145.807 22.3631 145.322 22.3631C144.836 22.3631 144.459 21.9856 144.459 21.5003C144.459 21.015 144.836 20.6375 145.322 20.6375C145.807 20.6375 146.185 21.0689 146.185 21.5003Z" fill="#FCFCFC"/>
<path d="M145.937 13.2953C145.856 13.2161 145.696 13.1765 145.576 13.1765H143.854C143.574 13.1765 143.333 13.4142 143.333 13.6916V16.426C143.333 16.7034 143.574 16.9412 143.854 16.9412H146.577C146.858 16.9412 147.098 16.7034 147.098 16.426V14.6031C147.098 14.4446 147.018 14.3257 146.938 14.2068L145.937 13.2953ZM144.375 14.2068H145.376L146.057 14.8012V15.8712H144.415V14.2068H144.375Z" fill="#FCFCFC"/>
</g>
<circle cx="138" cy="16" r="15.5" fill="white" stroke="#BDBDBD"/>
<path d="M129.522 15.1163H134.968C135.346 15.1163 135.669 14.7928 135.669 14.4153C135.669 14.0378 135.346 13.7143 134.968 13.7143H129.522C129.144 13.7143 128.821 14.0378 128.821 14.4153C128.821 14.7928 129.144 15.1163 129.522 15.1163Z" fill="#C4C4C4"/>
<path d="M131.355 19.7747H130.708V18.858C130.708 18.4805 130.384 18.157 130.007 18.157C129.629 18.157 129.306 18.4805 129.306 18.858V20.5297C129.306 20.9072 129.629 21.2307 130.007 21.2307H131.355C131.733 21.2307 132.056 20.9072 132.056 20.5297C132.056 20.0983 131.733 19.7747 131.355 19.7747Z" fill="#C4C4C4"/>
<path d="M133.89 16.6733C133.89 16.2958 133.566 15.9722 133.189 15.9722H127.688C127.311 15.9722 126.987 16.2958 126.987 16.6733C126.987 17.0507 127.311 17.3743 127.688 17.3743H133.135C133.566 17.4282 133.89 17.1047 133.89 16.6733Z" fill="#C4C4C4"/>
<path d="M134.375 19.2355C133.782 19.2355 133.188 19.4512 132.757 19.9365C132.326 20.3679 132.056 20.9611 132.056 21.5542C132.056 22.1474 132.326 22.7406 132.757 23.172C133.188 23.6034 133.782 23.8191 134.375 23.8191C135.615 23.8191 136.64 22.7945 136.64 21.5003C136.64 20.2061 135.615 19.2355 134.375 19.2355ZM135.184 21.5003C135.184 21.9856 134.806 22.3631 134.321 22.3631C133.836 22.3631 133.458 21.9856 133.458 21.5003C133.458 21.015 133.836 20.6375 134.321 20.6375C134.806 20.6375 135.184 21.0689 135.184 21.5003Z" fill="#C4C4C4"/>
<path d="M149.42 13.0881L146.184 10.3918C146.077 10.284 145.915 10.2301 145.699 10.2301H142.194V8.88193C142.194 8.50446 141.87 8.18091 141.493 8.18091H130.007C129.576 8.18091 129.252 8.50446 129.252 8.88193V12.1713C129.252 12.5488 129.576 12.8724 129.953 12.8724C130.33 12.8724 130.654 12.5488 130.654 12.1713V9.63688H140.684V19.7747H137.233C136.855 19.7747 136.532 20.0983 136.532 20.4758C136.532 20.8532 136.855 21.1768 137.233 21.1768H142.194C142.571 21.1768 142.895 20.8532 142.895 20.4758C142.895 20.0983 142.571 19.7747 142.194 19.7747H142.086V11.686H145.376L148.126 14.0048L148.072 19.8826C147.856 19.9904 147.694 20.2601 147.694 20.5297C147.694 20.9072 148.018 21.2307 148.395 21.2307H148.773C149.15 21.2307 149.474 20.9072 149.474 20.5297L149.528 13.6812C149.69 13.4116 149.582 13.2498 149.42 13.0881Z" fill="#C4C4C4"/>
<path d="M145.376 19.2355C144.782 19.2355 144.189 19.4512 143.758 19.9365C143.326 20.3679 143.057 20.9611 143.057 21.5542C143.057 22.1474 143.326 22.7406 143.758 23.172C144.189 23.6034 144.782 23.8191 145.376 23.8191C146.616 23.8191 147.64 22.7945 147.64 21.5003C147.64 20.2061 146.616 19.2355 145.376 19.2355ZM146.184 21.5003C146.184 21.9856 145.807 22.3631 145.322 22.3631C144.836 22.3631 144.459 21.9856 144.459 21.5003C144.459 21.015 144.836 20.6375 145.322 20.6375C145.807 20.6375 146.184 21.0689 146.184 21.5003Z" fill="#C4C4C4"/>
<path d="M145.936 13.2953C145.856 13.2161 145.696 13.1765 145.576 13.1765H143.854C143.574 13.1765 143.333 13.4142 143.333 13.6916V16.426C143.333 16.7034 143.574 16.9412 143.854 16.9412H146.577C146.858 16.9412 147.098 16.7034 147.098 16.426V14.6031C147.098 14.4446 147.018 14.3257 146.938 14.2068L145.936 13.2953ZM144.375 14.2068H145.376L146.057 14.8012V15.8712H144.415V14.2068H144.375Z" fill="#C4C4C4"/>
<rect x="236.25" y="6.25" width="100.5" height="20.5" rx="10.25" fill="white" stroke="#A9A9A9" stroke-width="0.5"/>
<path d="M284.012 18.7207C284.012 19.4746 283.738 20.0625 283.191 20.4844C282.645 20.9062 281.902 21.1172 280.965 21.1172C279.949 21.1172 279.168 20.9863 278.621 20.7246V19.7637C278.973 19.9121 279.355 20.0293 279.77 20.1152C280.184 20.2012 280.594 20.2441 281 20.2441C281.664 20.2441 282.164 20.1191 282.5 19.8691C282.836 19.6152 283.004 19.2637 283.004 18.8145C283.004 18.5176 282.943 18.2754 282.822 18.0879C282.705 17.8965 282.506 17.7207 282.225 17.5605C281.947 17.4004 281.523 17.2188 280.953 17.0156C280.156 16.7305 279.586 16.3926 279.242 16.002C278.902 15.6113 278.732 15.1016 278.732 14.4727C278.732 13.8125 278.98 13.2871 279.477 12.8965C279.973 12.5059 280.629 12.3105 281.445 12.3105C282.297 12.3105 283.08 12.4668 283.795 12.7793L283.484 13.6465C282.777 13.3496 282.09 13.2012 281.422 13.2012C280.895 13.2012 280.482 13.3145 280.186 13.541C279.889 13.7676 279.74 14.082 279.74 14.4844C279.74 14.7812 279.795 15.0254 279.904 15.2168C280.014 15.4043 280.197 15.5781 280.455 15.7383C280.717 15.8945 281.115 16.0684 281.65 16.2598C282.549 16.5801 283.166 16.9238 283.502 17.291C283.842 17.6582 284.012 18.1348 284.012 18.7207ZM289.566 21L289.373 20.0859H289.326C289.006 20.4883 288.686 20.7617 288.365 20.9062C288.049 21.0469 287.652 21.1172 287.176 21.1172C286.539 21.1172 286.039 20.9531 285.676 20.625C285.316 20.2969 285.137 19.8301 285.137 19.2246C285.137 17.9277 286.174 17.248 288.248 17.1855L289.338 17.1504V16.752C289.338 16.248 289.229 15.877 289.01 15.6387C288.795 15.3965 288.449 15.2754 287.973 15.2754C287.438 15.2754 286.832 15.4395 286.156 15.7676L285.857 15.0234C286.174 14.8516 286.52 14.7168 286.895 14.6191C287.273 14.5215 287.652 14.4727 288.031 14.4727C288.797 14.4727 289.363 14.6426 289.73 14.9824C290.102 15.3223 290.287 15.8672 290.287 16.6172V21H289.566ZM287.369 20.3145C287.975 20.3145 288.449 20.1484 288.793 19.8164C289.141 19.4844 289.314 19.0195 289.314 18.4219V17.8418L288.342 17.8828C287.568 17.9102 287.01 18.0312 286.666 18.2461C286.326 18.457 286.156 18.7871 286.156 19.2363C286.156 19.5879 286.262 19.8555 286.473 20.0391C286.688 20.2227 286.986 20.3145 287.369 20.3145ZM300.482 21V16.8223C300.482 16.3105 300.373 15.9277 300.154 15.6738C299.936 15.416 299.596 15.2871 299.135 15.2871C298.529 15.2871 298.082 15.4609 297.793 15.8086C297.504 16.1562 297.359 16.6914 297.359 17.4141V21H296.387V16.8223C296.387 16.3105 296.277 15.9277 296.059 15.6738C295.84 15.416 295.498 15.2871 295.033 15.2871C294.424 15.2871 293.977 15.4707 293.691 15.8379C293.41 16.2012 293.27 16.7988 293.27 17.6309V21H292.297V14.5781H293.088L293.246 15.457H293.293C293.477 15.1445 293.734 14.9004 294.066 14.7246C294.402 14.5488 294.777 14.4609 295.191 14.4609C296.195 14.4609 296.852 14.8242 297.16 15.5508H297.207C297.398 15.2148 297.676 14.9492 298.039 14.7539C298.402 14.5586 298.816 14.4609 299.281 14.4609C300.008 14.4609 300.551 14.6484 300.91 15.0234C301.273 15.3945 301.455 15.9902 301.455 16.8105V21H300.482ZM306.453 21.1172C306.035 21.1172 305.652 21.041 305.305 20.8887C304.961 20.7324 304.672 20.4941 304.438 20.1738H304.367C304.414 20.5488 304.438 20.9043 304.438 21.2402V23.8828H303.465V14.5781H304.256L304.391 15.457H304.438C304.688 15.1055 304.979 14.8516 305.311 14.6953C305.643 14.5391 306.023 14.4609 306.453 14.4609C307.305 14.4609 307.961 14.752 308.422 15.334C308.887 15.916 309.119 16.7324 309.119 17.7832C309.119 18.8379 308.883 19.6582 308.41 20.2441C307.941 20.8262 307.289 21.1172 306.453 21.1172ZM306.312 15.2871C305.656 15.2871 305.182 15.4688 304.889 15.832C304.596 16.1953 304.445 16.7734 304.438 17.5664V17.7832C304.438 18.6855 304.588 19.332 304.889 19.7227C305.189 20.1094 305.672 20.3027 306.336 20.3027C306.891 20.3027 307.324 20.0781 307.637 19.6289C307.953 19.1797 308.111 18.5605 308.111 17.7715C308.111 16.9707 307.953 16.3574 307.637 15.9316C307.324 15.502 306.883 15.2871 306.312 15.2871ZM314.773 21L314.58 20.0859H314.533C314.213 20.4883 313.893 20.7617 313.572 20.9062C313.256 21.0469 312.859 21.1172 312.383 21.1172C311.746 21.1172 311.246 20.9531 310.883 20.625C310.523 20.2969 310.344 19.8301 310.344 19.2246C310.344 17.9277 311.381 17.248 313.455 17.1855L314.545 17.1504V16.752C314.545 16.248 314.436 15.877 314.217 15.6387C314.002 15.3965 313.656 15.2754 313.18 15.2754C312.645 15.2754 312.039 15.4395 311.363 15.7676L311.064 15.0234C311.381 14.8516 311.727 14.7168 312.102 14.6191C312.48 14.5215 312.859 14.4727 313.238 14.4727C314.004 14.4727 314.57 14.6426 314.938 14.9824C315.309 15.3223 315.494 15.8672 315.494 16.6172V21H314.773ZM312.576 20.3145C313.182 20.3145 313.656 20.1484 314 19.8164C314.348 19.4844 314.521 19.0195 314.521 18.4219V17.8418L313.549 17.8828C312.775 17.9102 312.217 18.0312 311.873 18.2461C311.533 18.457 311.363 18.7871 311.363 19.2363C311.363 19.5879 311.469 19.8555 311.68 20.0391C311.895 20.2227 312.193 20.3145 312.576 20.3145ZM318.477 21H317.504V14.5781H318.477V21ZM317.422 12.8379C317.422 12.6152 317.477 12.4531 317.586 12.3516C317.695 12.2461 317.832 12.1934 317.996 12.1934C318.152 12.1934 318.287 12.2461 318.4 12.3516C318.514 12.457 318.57 12.6191 318.57 12.8379C318.57 13.0566 318.514 13.2207 318.4 13.3301C318.287 13.4355 318.152 13.4883 317.996 13.4883C317.832 13.4883 317.695 13.4355 317.586 13.3301C317.477 13.2207 317.422 13.0566 317.422 12.8379Z" fill="#A9A9A9"/>
<circle cx="252" cy="17" r="16" fill="#DB0A2A"/>
<g filter="url(#filter2_d)">
<path d="M251.812 7.27454C247.922 7.27454 244.784 10.4118 244.784 14.302C244.784 19.0079 251.812 26.0981 251.812 26.0981C251.812 26.0981 258.839 19.0706 258.839 14.3647C258.902 10.4118 255.765 7.27454 251.812 7.27454C251.875 7.27454 251.812 7.27454 251.812 7.27454ZM251.812 9.5961C254.384 9.5961 256.518 11.7294 256.518 14.302C256.518 16.8745 254.384 19.0079 251.812 19.0079C249.239 19.0079 247.106 16.8745 247.106 14.302C247.106 11.7294 249.239 9.5961 251.812 9.5961Z" fill="white"/>
</g>
<circle cx="252" cy="17" r="15.5" fill="white" stroke="#BDBDBD"/>
<path d="M251.812 7.27454C247.921 7.27454 244.784 10.4118 244.784 14.302C244.784 19.0079 251.812 26.0981 251.812 26.0981C251.812 26.0981 258.839 19.0706 258.839 14.3647C258.902 10.4118 255.765 7.27454 251.812 7.27454C251.874 7.27454 251.812 7.27454 251.812 7.27454ZM251.812 9.5961C254.384 9.5961 256.518 11.7294 256.518 14.302C256.518 16.8745 254.384 19.0079 251.812 19.0079C249.239 19.0079 247.106 16.8745 247.106 14.302C247.106 11.7294 249.239 9.5961 251.812 9.5961Z" fill="#BDBDBD"/>
<rect x="352.25" y="6.25" width="97.5" height="20.5" rx="10.25" fill="white" stroke="#A9A9A9" stroke-width="0.5"/>
<path d="M400.012 18.7207C400.012 19.4746 399.738 20.0625 399.191 20.4844C398.645 20.9062 397.902 21.1172 396.965 21.1172C395.949 21.1172 395.168 20.9863 394.621 20.7246V19.7637C394.973 19.9121 395.355 20.0293 395.77 20.1152C396.184 20.2012 396.594 20.2441 397 20.2441C397.664 20.2441 398.164 20.1191 398.5 19.8691C398.836 19.6152 399.004 19.2637 399.004 18.8145C399.004 18.5176 398.943 18.2754 398.822 18.0879C398.705 17.8965 398.506 17.7207 398.225 17.5605C397.947 17.4004 397.523 17.2188 396.953 17.0156C396.156 16.7305 395.586 16.3926 395.242 16.002C394.902 15.6113 394.732 15.1016 394.732 14.4727C394.732 13.8125 394.98 13.2871 395.477 12.8965C395.973 12.5059 396.629 12.3105 397.445 12.3105C398.297 12.3105 399.08 12.4668 399.795 12.7793L399.484 13.6465C398.777 13.3496 398.09 13.2012 397.422 13.2012C396.895 13.2012 396.482 13.3145 396.186 13.541C395.889 13.7676 395.74 14.082 395.74 14.4844C395.74 14.7812 395.795 15.0254 395.904 15.2168C396.014 15.4043 396.197 15.5781 396.455 15.7383C396.717 15.8945 397.115 16.0684 397.65 16.2598C398.549 16.5801 399.166 16.9238 399.502 17.291C399.842 17.6582 400.012 18.1348 400.012 18.7207ZM404.33 21.1172C403.381 21.1172 402.631 20.8281 402.08 20.25C401.533 19.6719 401.26 18.8691 401.26 17.8418C401.26 16.8066 401.514 15.9844 402.021 15.375C402.533 14.7656 403.219 14.4609 404.078 14.4609C404.883 14.4609 405.52 14.7266 405.988 15.2578C406.457 15.7852 406.691 16.4824 406.691 17.3496V17.9648H402.268C402.287 18.7188 402.477 19.291 402.836 19.6816C403.199 20.0723 403.709 20.2676 404.365 20.2676C405.057 20.2676 405.74 20.123 406.416 19.834V20.7012C406.072 20.8496 405.746 20.9551 405.438 21.0176C405.133 21.084 404.764 21.1172 404.33 21.1172ZM404.066 15.2754C403.551 15.2754 403.139 15.4434 402.83 15.7793C402.525 16.1152 402.346 16.5801 402.291 17.1738H405.648C405.648 16.5605 405.512 16.0918 405.238 15.7676C404.965 15.4395 404.574 15.2754 404.066 15.2754ZM409.328 21H408.355V11.8828H409.328V21ZM414.104 21.1172C413.154 21.1172 412.404 20.8281 411.854 20.25C411.307 19.6719 411.033 18.8691 411.033 17.8418C411.033 16.8066 411.287 15.9844 411.795 15.375C412.307 14.7656 412.992 14.4609 413.852 14.4609C414.656 14.4609 415.293 14.7266 415.762 15.2578C416.23 15.7852 416.465 16.4824 416.465 17.3496V17.9648H412.041C412.061 18.7188 412.25 19.291 412.609 19.6816C412.973 20.0723 413.482 20.2676 414.139 20.2676C414.83 20.2676 415.514 20.123 416.189 19.834V20.7012C415.846 20.8496 415.52 20.9551 415.211 21.0176C414.906 21.084 414.537 21.1172 414.104 21.1172ZM413.84 15.2754C413.324 15.2754 412.912 15.4434 412.604 15.7793C412.299 16.1152 412.119 16.5801 412.064 17.1738H415.422C415.422 16.5605 415.285 16.0918 415.012 15.7676C414.738 15.4395 414.348 15.2754 413.84 15.2754ZM422.271 19.248C422.271 19.8457 422.049 20.3066 421.604 20.6309C421.158 20.9551 420.533 21.1172 419.729 21.1172C418.877 21.1172 418.213 20.9824 417.736 20.7129V19.8105C418.045 19.9668 418.375 20.0898 418.727 20.1797C419.082 20.2695 419.424 20.3145 419.752 20.3145C420.26 20.3145 420.65 20.2344 420.924 20.0742C421.197 19.9102 421.334 19.6621 421.334 19.3301C421.334 19.0801 421.225 18.8672 421.006 18.6914C420.791 18.5117 420.369 18.3008 419.74 18.0586C419.143 17.8359 418.717 17.6426 418.463 17.4785C418.213 17.3105 418.025 17.1211 417.9 16.9102C417.779 16.6992 417.719 16.4473 417.719 16.1543C417.719 15.6309 417.932 15.2188 418.357 14.918C418.783 14.6133 419.367 14.4609 420.109 14.4609C420.801 14.4609 421.477 14.6016 422.137 14.8828L421.791 15.6738C421.146 15.4082 420.562 15.2754 420.039 15.2754C419.578 15.2754 419.23 15.3477 418.996 15.4922C418.762 15.6367 418.645 15.8359 418.645 16.0898C418.645 16.2617 418.688 16.4082 418.773 16.5293C418.863 16.6504 419.006 16.7656 419.201 16.875C419.396 16.9844 419.771 17.1426 420.326 17.3496C421.088 17.627 421.602 17.9062 421.867 18.1875C422.137 18.4688 422.271 18.8223 422.271 19.248ZM427.809 21L427.615 20.0859H427.568C427.248 20.4883 426.928 20.7617 426.607 20.9062C426.291 21.0469 425.895 21.1172 425.418 21.1172C424.781 21.1172 424.281 20.9531 423.918 20.625C423.559 20.2969 423.379 19.8301 423.379 19.2246C423.379 17.9277 424.416 17.248 426.49 17.1855L427.58 17.1504V16.752C427.58 16.248 427.471 15.877 427.252 15.6387C427.037 15.3965 426.691 15.2754 426.215 15.2754C425.68 15.2754 425.074 15.4395 424.398 15.7676L424.1 15.0234C424.416 14.8516 424.762 14.7168 425.137 14.6191C425.516 14.5215 425.895 14.4727 426.273 14.4727C427.039 14.4727 427.605 14.6426 427.973 14.9824C428.344 15.3223 428.529 15.8672 428.529 16.6172V21H427.809ZM425.611 20.3145C426.217 20.3145 426.691 20.1484 427.035 19.8164C427.383 19.4844 427.557 19.0195 427.557 18.4219V17.8418L426.584 17.8828C425.811 17.9102 425.252 18.0312 424.908 18.2461C424.568 18.457 424.398 18.7871 424.398 19.2363C424.398 19.5879 424.504 19.8555 424.715 20.0391C424.93 20.2227 425.229 20.3145 425.611 20.3145ZM431.512 21H430.539V14.5781H431.512V21ZM430.457 12.8379C430.457 12.6152 430.512 12.4531 430.621 12.3516C430.73 12.2461 430.867 12.1934 431.031 12.1934C431.188 12.1934 431.322 12.2461 431.436 12.3516C431.549 12.457 431.605 12.6191 431.605 12.8379C431.605 13.0566 431.549 13.2207 431.436 13.3301C431.322 13.4355 431.188 13.4883 431.031 13.4883C430.867 13.4883 430.73 13.4355 430.621 13.3301C430.512 13.2207 430.457 13.0566 430.457 12.8379Z" fill="#A9A9A9"/>
<circle cx="368" cy="16" r="16" fill="#DB0A2A"/>
<g filter="url(#filter3_d)">
<path d="M357.331 13.1697L357.341 13.1606L357.35 13.1511C357.957 12.5121 358.88 12.5417 359.385 13.1316L359.393 13.1416L359.402 13.1511L366.861 20.9979C367.015 21.159 367.216 21.216 367.383 21.216C367.549 21.216 367.75 21.1591 367.903 20.9985C367.903 20.9983 367.904 20.9981 367.904 20.9979L382.901 5.30521L382.902 5.30425C383.509 4.66524 384.432 4.69488 384.937 5.2848C385.522 5.96873 385.527 6.99348 384.973 7.51837L384.963 7.52787L384.953 7.53792L370.036 23.3141C370.036 23.3142 370.035 23.3143 370.035 23.3145C369.34 24.046 368.441 24.4108 367.462 24.4108C366.49 24.4108 365.589 24.0514 364.809 23.2306L357.35 15.3838C356.729 14.7312 356.756 13.714 357.331 13.1697Z" fill="white" stroke="#DB0A2A"/>
</g>
<line x1="221" y1="16.5" x2="236" y2="16.5" stroke="#A9A9A9"/>
<defs>
<filter id="filter0_d" x="4.90196" y="5.64703" width="22.1961" height="24.0784" filterUnits="userSpaceOnUse" color-interpolation-filters="sRGB">
<feFlood flood-opacity="0" result="BackgroundImageFix"/>
<feColorMatrix in="SourceAlpha" type="matrix" values="0 0 0 0 0 0 0 0 0 0 0 0 0 0 0 0 0 0 127 0"/>
<feOffset dy="2"/>
<feGaussianBlur stdDeviation="1"/>
<feColorMatrix type="matrix" values="0 0 0 0 0 0 0 0 0 0 0 0 0 0 0 0 0 0 0.25 0"/>
<feBlend mode="normal" in2="BackgroundImageFix" result="effect1_dropShadow"/>
<feBlend mode="normal" in="SourceGraphic" in2="effect1_dropShadow" result="shape"/>
</filter>
<filter id="filter1_d" x="124.987" y="8.18091" width="26.6206" height="19.6382" filterUnits="userSpaceOnUse" color-interpolation-filters="sRGB">
<feFlood flood-opacity="0" result="BackgroundImageFix"/>
<feColorMatrix in="SourceAlpha" type="matrix" values="0 0 0 0 0 0 0 0 0 0 0 0 0 0 0 0 0 0 127 0"/>
<feOffset dy="2"/>
<feGaussianBlur stdDeviation="1"/>
<feColorMatrix type="matrix" values="0 0 0 0 0 0 0 0 0 0 0 0 0 0 0 0 0 0 0.25 0"/>
<feBlend mode="normal" in2="BackgroundImageFix" result="effect1_dropShadow"/>
<feBlend mode="normal" in="SourceGraphic" in2="effect1_dropShadow" result="shape"/>
</filter>
<filter id="filter2_d" x="242.784" y="7.27454" width="18.0558" height="22.8235" filterUnits="userSpaceOnUse" color-interpolation-filters="sRGB">
<feFlood flood-opacity="0" result="BackgroundImageFix"/>
<feColorMatrix in="SourceAlpha" type="matrix" values="0 0 0 0 0 0 0 0 0 0 0 0 0 0 0 0 0 0 127 0"/>
<feOffset dy="2"/>
<feGaussianBlur stdDeviation="1"/>
<feColorMatrix type="matrix" values="0 0 0 0 0 0 0 0 0 0 0 0 0 0 0 0 0 0 0.25 0"/>
<feBlend mode="normal" in2="BackgroundImageFix" result="effect1_dropShadow"/>
<feBlend mode="normal" in="SourceGraphic" in2="effect1_dropShadow" result="shape"/>
</filter>
<filter id="filter3_d" x="354.392" y="4.33368" width="33.4902" height="24.5771" filterUnits="userSpaceOnUse" color-interpolation-filters="sRGB">
<feFlood flood-opacity="0" result="BackgroundImageFix"/>
<feColorMatrix in="SourceAlpha" type="matrix" values="0 0 0 0 0 0 0 0 0 0 0 0 0 0 0 0 0 0 127 0"/>
<feOffset dy="2"/>
<feGaussianBlur stdDeviation="1"/>
<feColorMatrix type="matrix" values="0 0 0 0 0 0 0 0 0 0 0 0 0 0 0 0 0 0 0.25 0"/>
<feBlend mode="normal" in2="BackgroundImageFix" result="effect1_dropShadow"/>
<feBlend mode="normal" in="SourceGraphic" in2="effect1_dropShadow" result="shape"/>
</filter>
</defs>
</svg>
