<svg width="26" height="22" viewBox="0 0 26 22" fill="none" xmlns="http://www.w3.org/2000/svg">
<path d="M22.7 1H5.90556C4.63889 1.00565 3.61111 2.05085 3.61111 3.34463V3.37288H3.3C2.03333 3.37288 1.00556 4.41243 1 5.70056V18.6554C1.00556 19.9435 2.02778 20.9944 3.3 21H20.0944C21.3611 20.9944 22.3889 19.9492 22.3889 18.6554V18.6271H22.7C23.9667 18.6271 24.9944 17.5876 25 16.2994V3.34463C24.9944 2.05085 23.9722 1.00565 22.7 1ZM20.0944 19.8701H3.3C2.64444 19.8644 2.11667 19.322 2.11111 18.6554V5.70056C2.11667 5.03955 2.64444 4.50282 3.3 4.50282H20.0944C20.7444 4.50282 21.2778 5.0339 21.2778 5.70056V8.9322C21.1778 8.9548 21.0778 8.9661 20.9833 8.9661H17.7778C16.0333 8.9661 14.6167 10.4068 14.6167 12.1808C14.6167 13.9548 16.0333 15.3955 17.7778 15.4011H20.9778C21.0778 15.3955 21.1778 15.3842 21.2722 15.3729L21.2778 18.6554C21.2778 19.322 20.75 19.8644 20.0944 19.8701ZM23.8889 16.2994C23.8833 16.9605 23.3556 17.4972 22.7 17.4972H22.3889V14.9661C22.6278 14.8023 22.8444 14.5989 23.0278 14.3729L23.8889 13.2429V16.2994ZM22.15 13.6893C21.8722 14.0565 21.4389 14.2712 20.9833 14.2768H17.7778C16.6444 14.2712 15.7278 13.339 15.7278 12.1864C15.7278 11.0339 16.6444 10.1017 17.7778 10.096H20.9778C21.3611 10.096 21.7389 10.0113 22.0833 9.84181C22.45 9.66667 22.7722 9.40113 23.0222 9.07345L23.8833 7.9435L23.8889 11.3955L22.15 13.6893ZM23.8889 6.09605L22.3889 8.06215V5.70056C22.3889 4.41243 21.3611 3.37288 20.0944 3.37288H4.72222V3.34463C4.72222 2.67797 5.25 2.13559 5.90556 2.12994H22.7C23.3556 2.13559 23.8833 2.67797 23.8889 3.34463V6.09605Z" fill="white" stroke="white" stroke-width="0.3"/>
</svg>
