<svg width="81" height="40" viewBox="0 0 81 40" fill="none" xmlns="http://www.w3.org/2000/svg">
<path d="M4.33007 10.4906C4.93204 9.50408 5.80764 8.62719 7.06632 7.91472C8.325 7.20224 9.6384 6.8186 11.116 6.8186C12.5388 6.8186 13.8522 7.14744 14.9467 7.85991C16.0412 8.57238 16.9716 9.44928 17.6283 10.6002C18.285 11.7511 18.5586 12.9568 18.5586 14.2722V24.0276C18.5586 24.9593 17.7924 25.7266 16.8621 25.7266C15.9318 25.7266 15.1656 24.9593 15.1656 24.0276V14.7106C15.1656 13.2857 14.6731 12.0799 13.6881 11.1483C12.703 10.1617 11.3896 9.7233 9.69312 9.7233C8.7628 9.7233 7.8872 9.94253 7.06632 10.381C6.19072 10.8194 5.53402 11.4223 5.04149 12.2444C4.54897 13.0116 4.27534 13.9433 4.27534 14.875V24.0824C4.27534 25.0141 3.50919 25.7814 2.57886 25.7814C1.64854 25.7814 0.882385 25.0141 0.882385 24.0824L0.991835 8.682C0.991835 7.7503 1.75799 7.03783 2.68831 7.03783C3.61864 7.03783 4.38479 7.80511 4.38479 8.7368L4.33007 10.4906Z" fill="white"/>
<path d="M39.0805 24.5757C37.7124 25.3977 36.0706 25.8362 34.2647 25.8362C32.6777 25.8362 31.1454 25.4525 29.7772 24.7401C28.4091 24.0276 27.2599 22.9315 26.3843 21.671C25.5087 20.4104 25.1256 18.9855 25.1256 17.3961C25.1256 16.7932 25.1256 16.3548 25.1803 16.0808C25.2898 14.2174 25.7276 12.5732 26.6032 11.2031C27.4788 9.83292 28.5733 8.79162 29.9414 8.02434C31.3095 7.25706 32.7324 6.92822 34.3194 6.92822C37.1651 6.92822 39.3541 7.85992 40.9959 9.72331C42.3093 11.2579 43.1302 13.2857 43.2943 15.9164C43.3491 16.9029 42.5829 17.7797 41.5979 17.7797H28.1902C28.1902 18.3826 28.4638 19.0951 28.9564 19.9172C29.4489 20.7393 30.1603 21.4517 31.0359 22.0546C31.9115 22.6575 32.8966 22.9315 34.0458 22.9315C35.3045 22.9315 36.3443 22.6575 37.2199 22.1094C37.8218 21.7258 38.3144 21.3421 38.7522 20.8489C39.1352 20.4104 39.7372 20.1912 40.3392 20.3556L40.4486 20.4104C41.4337 20.6844 41.8168 21.8902 41.2148 22.7123C40.6128 23.4795 39.9014 24.0824 39.0805 24.5757ZM40.0108 15.0395C40.0108 14.2722 39.7919 13.5049 39.3541 12.7376C38.9163 11.9155 38.2596 11.2579 37.384 10.7098C36.5084 10.1618 35.4687 9.88773 34.2647 9.88773C32.9513 9.88773 31.8568 10.2714 30.8717 10.9838C29.9414 11.6963 29.23 12.5184 28.7922 13.3953C28.3544 14.2722 28.2449 14.8202 28.4091 15.0943H40.0108V15.0395Z" fill="white"/>
<path d="M53.4185 25.0689C52.4334 24.6852 51.5578 24.1372 50.7917 23.5343C50.5181 23.3151 50.4086 22.9862 50.4086 22.6574C50.4086 21.6709 51.4484 21.1228 52.324 21.6161C52.7071 21.8353 53.0901 22.0545 53.4732 22.219C54.6772 22.767 55.8264 23.041 56.9209 23.041C58.1248 23.041 59.1099 22.8218 59.9855 22.3286C60.8611 21.8353 61.2989 21.068 61.2989 19.9719C61.2989 19.3143 61.0253 18.821 60.5328 18.547C59.9855 18.2729 59.1646 17.9989 57.9607 17.7249L56.8662 17.4509C56.6473 17.3961 55.9358 17.2316 54.6772 16.9576C53.4185 16.6836 52.4334 16.1355 51.6126 15.3682C50.7917 14.601 50.3539 13.6145 50.3539 12.4087C50.3539 10.4357 51.0653 9.01079 52.4882 8.24351C53.911 7.42142 55.4433 7.03778 57.1398 7.03778C58.289 7.03778 59.3835 7.2022 60.5328 7.53103C61.2989 7.75025 61.9556 8.07909 62.3934 8.40792C62.7218 8.62715 62.8859 9.01078 62.8859 9.39442V9.44923C62.8859 10.3261 62.0651 10.929 61.2442 10.6002C60.9706 10.4905 60.6969 10.3809 60.4233 10.3261C59.2741 9.99729 58.1796 9.83287 57.1945 9.83287C56.2642 9.83287 55.4433 10.0521 54.7319 10.5453C54.0205 11.0386 53.6374 11.6963 53.6374 12.4635C53.6374 13.0116 53.911 13.45 54.4035 13.7241C54.8961 13.9981 55.7169 14.2173 56.8114 14.4914L57.8512 14.7654C58.1248 14.875 58.891 15.0942 60.2044 15.423C61.4631 15.7519 62.5576 16.3547 63.3785 17.122C64.1993 17.8893 64.6371 18.8758 64.6371 20.0815C64.6371 21.9449 63.9257 23.3699 62.5576 24.3564C61.1895 25.3429 59.3288 25.8361 57.0303 25.8361C55.7717 25.7813 54.5677 25.5621 53.4185 25.0689Z" fill="white"/>
<path d="M76.7861 7.0378H79.6318C80.398 7.0378 81 7.64066 81 8.40794C81 9.17522 80.398 9.77809 79.6318 9.77809H76.7861V19.9171C76.7861 20.794 77.1145 21.5065 77.7165 22.0546C78.0995 22.3834 78.5921 22.6574 79.2488 22.767C79.9602 22.9314 80.4527 23.4795 80.4527 24.192C80.4527 25.0689 79.6866 25.7813 78.811 25.6717C77.0598 25.4525 75.8558 24.9045 75.0897 23.9728C74.1046 22.767 73.6668 21.3969 73.6668 19.9171V9.77809H71.4778C70.7117 9.77809 70.1097 9.17522 70.1097 8.40794C70.1097 7.64066 70.7117 7.0378 71.4778 7.0378H73.6668V4.57155L76.7861 6.27052V7.0378ZM76.7861 0.461121V4.02349L73.6668 2.26971V0.461121H76.7861Z" fill="white"/>
<path d="M25.071 4.24274C25.071 4.24274 25.673 10.1617 21.4591 11.5867C21.4591 11.5867 20.7477 5.72249 25.071 4.24274Z" fill="#2D8378"/>
<path d="M24.469 5.99652C24.469 5.99652 24.7974 10.6002 21.4591 11.5867C21.4591 11.5867 21.0213 7.03783 24.469 5.99652Z" fill="#22625A"/>
<path d="M26.5485 6.6542C26.5485 6.6542 25.3446 11.6415 21.4591 11.5867C21.4591 11.5867 22.5536 6.59939 26.5485 6.6542Z" fill="#3CAFA0"/>
<path d="M21.678 0.46106C21.678 0.46106 25.8371 7.36657 21.4591 11.5866C21.4591 11.5866 17.1905 4.79071 21.678 0.46106Z" fill="#63BFB3"/>
<path d="M1.375 30.9851C3.94708 37.233 20.5835 39.48 40.6676 39.48C60.7517 39.48 77.2787 37.233 79.9602 31.0399C68.7416 31.862 55.3887 32.1908 41.0507 32.1908C26.3296 32.2456 12.7031 31.862 1.375 30.9851Z" fill="#F1BC44"/>
</svg>
