<svg width="87" height="78" viewBox="0 0 87 78" fill="none" xmlns="http://www.w3.org/2000/svg">
<path d="M83.1758 18.2035C80.2957 15.7583 76.4518 15.9883 72.9419 16.3497C68.9666 16.7604 65.0023 17.204 61.0133 17.4751C57.0818 17.7407 53.1448 17.9242 49.2051 18.0036C41.6296 18.1597 34.0595 17.9242 26.5114 17.267C24.3649 17.0808 22.224 16.8481 20.0857 16.5825C20.0803 16.5359 20.0721 16.4894 20.0666 16.4428C19.6258 13.2774 19.1741 10.0573 18.2268 6.99597C17.5533 4.81909 16.376 2.8421 14.3254 1.71669C12.9811 0.977373 11.4589 0.687123 9.95037 0.503662C8.5842 0.336631 7.18518 0.068286 5.8108 0.00804527C4.36523 -0.0576719 2.87039 0.270914 1.79717 1.30048C0.751324 2.30267 0.296848 3.71833 0.116152 5.12303C-0.0645431 6.5469 -0.0097869 8.01732 0.113415 9.44393C0.236616 10.8623 0.417312 12.2205 1.20033 13.4445C2.44055 15.3831 4.57331 16.5277 6.75808 17.0726C7.2591 17.1958 7.76012 17.3245 8.26114 17.4505C10.9551 18.1213 13.6738 18.6991 16.4034 19.2166C16.8414 24.3864 17.1207 29.5726 17.8106 34.7177C18.3199 38.5238 18.9988 42.3545 20.2254 46.0018C21.3753 49.4246 23.0727 52.8583 25.8707 55.2324C27.497 56.6124 29.4737 57.4859 31.4477 58.2444C35.464 59.786 39.7049 60.7417 43.9184 61.5138C46.9683 62.0724 50.0483 62.4585 53.1393 62.6803C57.6786 63.0062 62.2508 63.1294 66.7654 62.4832C69.4403 62.0998 72.0686 61.4317 74.2478 59.8079C83.2771 53.0883 86.0834 28.0145 86.0834 28.0145C86.4229 24.4822 86.0533 20.6487 83.1758 18.2035ZM7.35766 14.4959C5.6301 14.1071 3.65067 13.1953 2.958 11.399C2.61304 10.5091 2.59387 9.45763 2.53364 8.51842C2.46246 7.42313 2.47615 6.31142 2.70065 5.2353C2.86491 4.43848 3.16334 3.50748 3.92718 3.08854C4.71841 2.6559 5.74235 2.82841 6.58012 2.99544C8.53218 3.38153 10.7662 3.41165 12.5458 4.38098C13.3672 4.8273 13.9667 5.52007 14.3637 6.3607C14.5143 6.68381 14.7498 7.23146 14.7799 7.51076C14.8291 7.97625 15.0235 8.45818 15.1194 8.91272C15.311 9.81086 15.4616 10.7199 15.5903 11.629C15.7983 13.094 15.9626 14.5644 16.1132 16.0376C13.181 15.5967 10.2625 15.0874 7.35766 14.4959ZM72.1069 52.2176C71.3074 53.2006 70.2041 54.3041 68.9639 54.7258C66.6696 55.5774 64.1973 55.8156 61.7662 55.9334C56.0058 56.2154 50.2318 55.78 44.5317 54.9613C41.7719 54.5642 39.0204 54.0467 36.3264 53.3321C34.9931 52.9788 33.668 52.5763 32.373 52.0944C31.9761 51.9465 31.5873 51.7877 31.1985 51.6207C31.141 51.596 30.7906 51.4399 30.9466 51.5194C30.7605 51.4263 30.5716 51.3359 30.3909 51.2373C28.0199 49.923 26.6182 47.2423 25.6024 44.8381C24.3896 41.963 23.612 38.9071 22.9741 35.8568C21.8763 30.6049 21.2356 25.2736 20.543 19.9532C22.8783 20.342 25.2219 20.6898 27.5654 21.0102C34.785 21.9932 42.0512 22.6093 49.3338 22.8886C57.1174 23.1898 64.8873 23.0529 72.6627 22.5764C74.2478 22.4778 75.8988 22.2396 77.4757 22.5408C78.1273 22.664 78.8611 22.894 79.1704 23.5348C79.4962 24.2111 79.5072 25.0326 79.4908 25.7664C79.4771 26.2648 79.4935 27.4203 79.4579 28.1514C79.447 28.2856 79.436 28.417 79.4278 28.5567C78.3053 43.7784 72.2575 52.0314 72.1069 52.2176Z" fill="white"/>
<path d="M83.5035 22.2011C83.3775 22.2011 83.2598 22.1245 83.2132 22.0012C82.192 19.2356 78.6575 18.3238 78.6219 18.3156C78.4577 18.2745 78.3564 18.1075 78.3974 17.9405C78.4385 17.7762 78.6028 17.6749 78.7725 17.7159C78.9313 17.757 82.6602 18.7181 83.7909 21.7849C83.8512 21.9437 83.769 22.1217 83.6102 22.182C83.5746 22.1929 83.539 22.2011 83.5035 22.2011Z" fill="#DB0A2A"/>
<path d="M28.8956 56.0017C28.8436 56.0017 28.7888 55.988 28.7395 55.9606C26.322 54.5504 24.0305 51.2372 23.9347 51.0948C23.8388 50.9552 23.8744 50.7635 24.0141 50.6649C24.1564 50.5691 24.3481 50.6047 24.4439 50.7443C24.4658 50.7772 26.7546 54.0849 29.0516 55.4267C29.1995 55.5115 29.2488 55.7005 29.1612 55.8483C29.1037 55.9469 29.0024 56.0017 28.8956 56.0017Z" fill="#DB0A2A"/>
<path d="M1.46872 3.38964C1.42765 3.38964 1.38932 3.38142 1.35099 3.36499C1.19494 3.29927 1.11828 3.12129 1.18399 2.96247C1.2141 2.89128 1.93141 1.19085 3.55219 0.980007C3.7192 0.955363 3.87525 1.07584 3.89716 1.24561C3.91906 1.41538 3.79859 1.56872 3.63159 1.59063C2.36946 1.75218 1.75893 3.18153 1.75345 3.19522C1.70417 3.3157 1.58918 3.38964 1.46872 3.38964Z" fill="#DB0A2A"/>
<g filter="url(#filter0_i)">
<path d="M43.2252 69.3997C43.8521 74.3778 39.666 78.5646 34.6887 77.9375C31.2883 77.5076 28.5587 74.7803 28.1316 71.3795C27.5047 66.4014 31.6908 62.2147 36.6681 62.8417C40.0685 63.2689 42.7953 65.9989 43.2252 69.3997Z" fill="#FBB829"/>
<path d="M66.6389 65.8783C61.9244 64.6215 57.741 68.8055 58.9977 73.5207C59.548 75.5826 61.1852 77.2227 63.2468 77.7704C67.9613 79.0272 72.1446 74.8432 70.888 70.128C70.3377 68.0662 68.7005 66.4287 66.6389 65.8783Z" fill="#FBB829"/>
<path d="M41.7298 69.1066C41.6039 69.1066 41.4861 69.0299 41.4396 68.9039C40.4047 66.0863 37.9106 64.7692 37.8832 64.7583C37.7326 64.6789 37.6724 64.4927 37.7518 64.3421C37.8312 64.1915 38.0173 64.1312 38.1679 64.2106C38.2802 64.2681 40.9002 65.6509 42.02 68.6931C42.0775 68.8519 41.9954 69.0299 41.8366 69.0901C41.801 69.1011 41.7654 69.1066 41.7298 69.1066Z" fill="white"/>
<path d="M69.9216 71.1548C69.782 71.1548 69.6561 71.0617 69.6232 70.9221C69.0127 68.4741 66.6719 67.2994 66.65 67.2885C66.4966 67.2145 66.4337 67.0283 66.5103 66.875C66.5842 66.7216 66.7704 66.6614 66.9237 66.7353C67.0305 66.7874 69.5438 68.0497 70.2228 70.7715C70.2639 70.9358 70.1626 71.1028 69.9983 71.1466C69.9737 71.1521 69.9463 71.1548 69.9216 71.1548Z" fill="white"/>
</g>
<path d="M40.2165 48.8414C40.0933 47.8064 39.94 46.7741 39.8031 45.7418C39.647 44.5671 39.4992 43.3924 39.3459 42.2204C39.1843 40.9882 39.0173 39.7533 38.8585 38.5211C38.6915 37.2369 38.5492 35.9472 38.363 34.6657C38.1878 33.4636 37.9797 32.267 37.7579 31.0759C37.454 29.4467 36.9996 27.8612 36.2713 26.3662C35.8497 25.4982 35.3158 24.7095 34.5629 24.088C33.9524 23.5841 33.246 23.3076 32.463 23.2747C31.4637 23.2336 30.6451 23.6553 29.9935 24.3892C28.9778 25.531 28.2933 26.8618 27.7841 28.2939C27.7184 28.4773 27.6362 28.6526 27.5349 28.8935C27.5076 28.795 27.4966 28.7703 27.4911 28.7429C27.3953 28.083 27.3241 27.4204 27.2009 26.7687C27.0586 26.0102 26.7519 25.312 26.2591 24.7068C25.8293 24.1756 25.1092 23.9784 24.4002 24.192C23.7458 24.3892 23.5049 24.8793 23.4282 25.5118C23.3242 26.3579 23.3269 27.2041 23.4529 28.0392C23.7349 29.882 24.036 31.7221 24.3755 33.5567C24.704 35.342 25.1448 37.1082 25.6678 38.8469C26.4617 41.4756 27.3351 44.0797 28.4603 46.5906C28.9175 47.612 29.3939 48.6251 30.1988 49.4356C30.6588 49.8984 31.1625 50.2899 31.8169 50.4488C32.129 50.5254 32.3727 50.3255 32.3672 50.0024C32.3644 49.6793 32.3261 49.348 32.244 49.0386C32.0113 48.1541 31.7457 47.2752 31.4966 46.3935C31.1133 45.0298 30.7929 43.6525 30.73 42.2341C30.6588 40.6213 30.6341 39.003 30.7656 37.3902C30.8888 35.8732 31.1023 34.3727 31.4829 32.8968C31.7731 31.7741 32.1098 30.6706 32.7642 29.6931C32.7724 29.6821 32.7806 29.6712 32.7861 29.6602C32.8709 29.5507 33.1721 29.2112 33.3528 29.7451C33.3555 29.7506 33.3555 29.7533 33.3583 29.7588C33.5882 30.4461 33.8429 31.1279 34.0044 31.8289C34.2782 33.0173 34.4835 34.2221 34.7053 35.4242C34.9188 36.5879 35.1159 37.7571 35.3158 38.9236C35.5321 40.1777 35.7292 41.4346 35.9565 42.6859C36.233 44.2056 36.5451 45.7199 36.8189 47.2423C36.9968 48.2253 37.2487 49.1755 37.81 50.0189C38.0673 50.405 38.3411 50.7719 38.7654 50.9909C39.3459 51.2921 39.7976 51.1333 40.0358 50.5282C40.2576 49.9833 40.2849 49.411 40.2165 48.8414Z" fill="white"/>
<path d="M50.4775 46.0157C50.1955 45.7638 49.8177 45.7665 49.5549 45.9801C49.3386 46.1554 49.1442 46.3607 48.9498 46.5606C48.9088 46.6017 48.8677 46.6455 48.8294 46.692C48.416 47.1575 47.7425 47.341 47.1867 47.0617C46.9649 46.9494 46.7651 46.7906 46.5844 46.5962C46.0067 45.9719 45.6699 45.1997 45.3058 44.4467C45.2292 44.2906 45.3222 44.1702 45.4619 44.1373C45.4756 44.1346 45.4892 44.1318 45.5002 44.1291C45.8561 44.0469 48.5967 43.3405 50.1381 40.9719C50.7951 39.904 51.2742 38.7321 51.6274 37.4916C51.9779 36.2649 52.0983 35.0053 52.0983 33.3405C52.0846 32.6286 51.9998 31.5333 51.7369 30.4517C51.3619 28.9101 50.702 27.5191 49.6261 26.3471C48.98 25.6434 48.1915 25.145 47.2524 24.9506C46.7705 24.852 46.2668 24.8329 45.774 24.8219C45.4701 24.8137 45.1634 24.863 44.8787 24.9671C43.8219 25.3559 42.9978 26.0514 42.3736 26.9933C41.4181 28.4364 41.002 30.082 40.7419 31.7715C40.4572 33.6253 40.3723 35.5064 40.4626 37.3794C40.5119 38.3925 40.594 39.4029 40.7282 40.4078C40.9144 41.7934 41.1909 43.1652 41.5578 44.5179C42.1026 46.5332 42.746 48.5075 43.8904 50.2791C44.6925 51.5223 45.6344 52.6422 46.8801 53.4664C47.4988 53.8771 48.1778 54.0989 48.9362 54.0332C49.9957 53.9401 50.702 53.3377 51.2359 52.4779C51.6274 51.8508 51.7588 51.1499 51.7999 50.4242C51.8766 49.151 51.6986 47.9242 51.1018 46.7851C50.9484 46.4949 50.7212 46.2348 50.4775 46.0157ZM44.3914 36.1362V36.1335C44.3969 36.0596 44.4023 35.9856 44.4133 35.9117C44.5529 34.8301 44.7172 33.754 45.2018 32.7545C45.3441 32.4588 45.5467 32.1822 45.7712 31.9413C46.1162 31.5744 46.6035 31.5141 47.0635 31.725C47.1374 31.7578 47.2086 31.7989 47.2825 31.8318C48.4105 32.3575 48.4625 33.2748 48.1641 34.1319C47.8794 34.9533 47.4057 35.6406 46.8144 36.2348C46.8144 36.2348 46.8089 36.2403 46.8034 36.2458C46.7979 36.2512 46.7924 36.2567 46.787 36.2622C46.5981 36.4511 45.2921 37.7244 44.9088 37.6669C44.4954 37.6094 44.312 36.7961 44.3914 36.1362Z" fill="white"/>
<path d="M46.8137 36.24C46.8112 36.2425 46.8086 36.245 46.8036 36.2501C46.8061 36.245 46.8137 36.24 46.8137 36.24Z" fill="white"/>
<path d="M65.4449 29.8739C65.3025 29.1045 64.9521 28.4199 64.5167 27.7737C63.9938 27.0015 63.334 26.3444 62.5428 25.8789C61.7406 25.4051 60.8098 25.2107 59.8789 25.1998C58.4799 25.1834 57.341 25.7967 56.4457 26.8455C55.0795 28.4446 54.3157 30.323 54.0173 32.3903C53.8147 33.7978 53.8311 35.2107 54.0474 36.6209C54.4115 38.9867 55.3533 41.0185 57.2999 42.5163C58.0035 43.0584 58.6441 43.6773 59.1917 44.3892C59.6654 45.0053 59.9446 45.7008 60.0131 46.4675C60.0952 47.4095 59.5996 48.0639 58.8878 48.565C58.0884 49.1236 56.9686 48.9921 56.3636 48.2282C56.098 47.8941 55.9009 47.508 55.6901 47.1329C55.5696 46.9166 55.4601 46.692 55.3314 46.4812C55.3314 46.4812 55.1753 46.1636 54.8824 45.939C54.7756 45.8487 54.6798 45.7884 54.5758 45.7693C54.239 45.6515 53.7982 45.709 53.2671 46.2402C52.3609 47.1466 52.9057 49.2386 53.3218 50.4324C53.4012 50.6844 53.4971 50.9335 53.6066 51.1745C53.6422 51.2566 53.6641 51.3059 53.6641 51.3059L53.6668 51.3032C53.842 51.6728 54.0474 52.0343 54.2856 52.382C54.9645 53.3733 55.7996 54.2084 56.9412 54.6876C57.4778 54.9149 58.0884 54.9259 58.6332 54.7205C59.6188 54.3481 60.3881 53.6854 60.9603 52.8092C61.5408 51.9193 62.0007 50.9664 62.3073 49.945C62.6222 48.8936 62.9014 47.8311 62.9644 46.7358C63.0137 45.8651 62.9891 44.9889 62.948 44.1154C62.8878 42.7956 62.5318 41.5442 61.9432 40.3668C61.2478 38.9812 60.2157 37.8613 59.0904 36.818C59.0165 36.7496 58.9426 36.6784 58.8686 36.6099C57.3136 35.1231 57.497 32.5272 59.3122 31.3717C59.3998 31.3142 59.4901 31.2622 59.586 31.2102C60.0705 30.9418 60.5853 30.898 61.1082 31.1089C61.8173 31.3936 62.3566 31.8536 62.6742 32.5711C62.8029 32.8586 62.9589 33.1433 63.1506 33.3925C63.3723 33.6855 63.7748 33.8033 64.1088 33.6527C64.6181 33.4226 64.9603 33.0283 65.1793 32.5327C65.538 31.6784 65.6146 30.783 65.4449 29.8739Z" fill="white"/>
<path d="M68.8041 36.473C68.4181 36.3388 68.0403 36.2293 67.6816 36.0759C67.1149 35.8322 66.7864 35.3914 66.6248 34.7862C66.3237 33.6581 66.4907 32.6203 67.1067 31.6373C67.4188 31.1389 67.8623 30.9445 68.4236 30.9938C68.9109 31.0349 69.3955 31.0924 69.8773 31.1608C70.0471 31.1855 70.0882 31.1307 70.1265 30.9774C70.5645 29.2331 71.0026 27.4889 71.4598 25.7501C71.5748 25.3148 71.7062 24.8794 71.9636 24.5015C72.2811 24.0387 72.9848 23.7293 73.5241 23.8827C73.8006 23.9621 74.0388 24.1236 74.2168 24.3974C74.6959 25.1395 74.8629 25.95 74.6603 26.8208C74.2797 28.4418 73.8937 30.0628 73.4995 31.6811C73.4529 31.8755 73.5022 31.933 73.6774 31.9933C74.2934 32.2041 74.9094 32.4177 75.5118 32.6641C76.5028 33.0666 76.8341 33.8772 76.793 34.8821C76.7602 35.6707 76.5466 36.399 76.01 37.0042C75.8348 37.2041 75.6925 37.4396 75.4953 37.6093C75.0573 37.99 74.5261 37.9817 73.9977 37.864C73.4721 37.7463 72.9492 37.5984 72.4262 37.4642C72.3332 37.4396 72.2428 37.4177 72.1196 37.3875C71.9444 37.9461 71.7527 38.4883 71.6022 39.0414C71.0902 40.9226 70.581 42.8065 70.0964 44.6931C69.8417 45.6816 69.6556 46.6865 69.62 47.7106C69.6063 48.1296 69.6036 48.554 69.6665 48.9675C69.7377 49.4384 70.0088 49.5233 70.392 49.2331C70.7562 48.9565 71.1121 48.6635 71.4625 48.3705C71.6843 48.1843 71.9334 48.0693 72.2209 48.031C72.6453 47.9762 72.9245 48.2008 72.9574 48.6307C72.9875 48.9948 72.9382 49.3535 72.7466 49.6602C72.4591 50.123 72.1716 50.5994 71.8075 50.9992C71.0902 51.7878 70.3236 52.5326 69.4502 53.1542C69.2449 53.2993 69.0286 53.4362 68.7986 53.5375C68.4044 53.71 67.9362 53.5868 67.6898 53.2363C67.479 52.9379 67.2983 52.6011 67.1806 52.2561C66.8657 51.3251 66.7152 50.3612 66.6878 49.3755C66.6549 48.1652 66.7343 46.9576 66.9287 45.7665C67.2271 43.9675 67.5995 42.1794 67.9609 40.3914C68.221 39.1071 68.5139 37.8284 68.7932 36.5469C68.8041 36.5277 68.8014 36.5058 68.8041 36.473Z" fill="white"/>
<defs>
<filter id="filter0_i" x="28.0692" y="54.7793" width="43.0447" height="23.2206" filterUnits="userSpaceOnUse" color-interpolation-filters="sRGB">
<feFlood flood-opacity="0" result="BackgroundImageFix"/>
<feBlend mode="normal" in="SourceGraphic" in2="BackgroundImageFix" result="shape"/>
<feColorMatrix in="SourceAlpha" type="matrix" values="0 0 0 0 0 0 0 0 0 0 0 0 0 0 0 0 0 0 127 0" result="hardAlpha"/>
<feOffset dy="-8"/>
<feGaussianBlur stdDeviation="4"/>
<feComposite in2="hardAlpha" operator="arithmetic" k2="-1" k3="1"/>
<feColorMatrix type="matrix" values="0 0 0 0 0.95 0 0 0 0 0.752377 0 0 0 0 0.4275 0 0 0 1 0"/>
<feBlend mode="normal" in2="shape" result="effect1_innerShadow"/>
</filter>
</defs>
</svg>
