<svg width="82" height="74" viewBox="0 0 82 74" fill="none" xmlns="http://www.w3.org/2000/svg">
<path d="M79.0276 17.27C76.2951 14.9501 72.6484 15.1684 69.3185 15.5113C65.5471 15.9009 61.786 16.3218 58.0016 16.579C54.2717 16.8309 50.5366 17.005 46.7989 17.0803C39.6119 17.2284 32.4301 17.005 25.269 16.3815C23.2326 16.2049 21.2015 15.9841 19.1729 15.7321C19.1677 15.6879 19.1599 15.6438 19.1547 15.5996C18.7365 12.5965 18.308 9.54154 17.4093 6.6372C16.7703 4.57196 15.6534 2.69635 13.7079 1.62866C12.4326 0.927252 10.9885 0.651886 9.55728 0.477833C8.26117 0.319368 6.9339 0.0647842 5.63 0.0076327C4.25856 -0.0547144 2.84038 0.257021 1.82219 1.23379C0.829983 2.18458 0.398812 3.52764 0.227383 4.86031C0.0559543 6.21116 0.107902 7.60618 0.224786 8.95963C0.341669 10.3053 0.513099 11.5938 1.25596 12.755C2.43258 14.5942 4.45597 15.6801 6.5287 16.1971C7.00403 16.314 7.47935 16.4361 7.95468 16.5556C10.5105 17.192 13.0898 17.7402 15.6794 18.2312C16.095 23.1358 16.3599 28.056 17.0144 32.9373C17.4976 36.5482 18.1417 40.1825 19.3054 43.6428C20.3963 46.89 22.0067 50.1477 24.6612 52.3999C26.2041 53.7092 28.0794 54.5379 29.9521 55.2575C33.7625 56.7201 37.7859 57.6267 41.7833 58.3593C44.6769 58.8892 47.5989 59.2555 50.5314 59.4659C54.8379 59.7751 59.1756 59.892 63.4587 59.2789C65.9964 58.9152 68.4899 58.2813 70.5575 56.7409C79.1237 50.3659 81.7861 26.5779 81.7861 26.5779C82.1081 23.2267 81.7575 19.5898 79.0276 17.27ZM7.09753 13.7526C5.45857 13.3837 3.58064 12.5186 2.9235 10.8145C2.59622 9.97017 2.57804 8.97262 2.5209 8.08158C2.45336 7.04246 2.46635 5.98775 2.67934 4.96682C2.83518 4.21086 3.1183 3.32761 3.84298 2.93015C4.59363 2.5197 5.56506 2.68336 6.35987 2.84183C8.21182 3.20811 10.3313 3.23669 12.0196 4.15631C12.7988 4.57975 13.3677 5.23699 13.7443 6.03451C13.8872 6.34105 14.1105 6.86061 14.1391 7.12559C14.1859 7.56721 14.3703 8.02442 14.4612 8.45566C14.643 9.30773 14.7859 10.1702 14.9079 11.0327C15.1053 12.4225 15.2612 13.8175 15.404 15.2151C12.6222 14.7969 9.85338 14.3137 7.09753 13.7526ZM68.5263 49.5398C67.7678 50.4724 66.7211 51.5193 65.5445 51.9193C63.3678 52.7273 61.0224 52.9533 58.7159 53.065C53.2509 53.3325 47.773 52.9195 42.3652 52.1428C39.747 51.7661 37.1366 51.2751 34.5807 50.5971C33.3158 50.262 32.0586 49.8801 30.8301 49.4229C30.4534 49.2826 30.0846 49.1319 29.7158 48.9734C29.6612 48.9501 29.3288 48.802 29.4768 48.8773C29.3002 48.789 29.121 48.7033 28.9495 48.6098C26.7002 47.3628 25.3703 44.8196 24.4067 42.5387C23.256 39.811 22.5184 36.9119 21.9132 34.018C20.8716 29.0354 20.2638 23.9775 19.6067 18.93C21.8223 19.2988 24.0456 19.6288 26.269 19.9327C33.1184 20.8653 40.0119 21.4498 46.921 21.7148C54.3055 22.0006 61.6769 21.8707 69.0536 21.4186C70.5574 21.3251 72.1237 21.0991 73.6198 21.3849C74.238 21.5018 74.9341 21.72 75.2276 22.3279C75.5367 22.9695 75.5471 23.7489 75.5315 24.4451C75.5185 24.9179 75.5341 26.0141 75.5003 26.7078C75.4899 26.8351 75.4795 26.9597 75.4717 27.0922C74.4068 41.5334 68.6691 49.3631 68.5263 49.5398Z" fill="white"/>
<path d="M79.3392 21.0627C79.2197 21.0627 79.108 20.9899 79.0638 20.873C78.095 18.2493 74.7418 17.3842 74.708 17.3764C74.5521 17.3375 74.456 17.179 74.495 17.0205C74.534 16.8647 74.6898 16.7685 74.8508 16.8075C75.0015 16.8465 78.5392 17.7583 79.6119 20.6678C79.669 20.8185 79.5911 20.9873 79.4405 21.0445C79.4067 21.0549 79.3729 21.0627 79.3392 21.0627Z" fill="#DB0A2A"/>
<path d="M27.531 53.1298C27.4816 53.1298 27.4297 53.1168 27.3829 53.0908C25.0894 51.753 22.9154 48.6096 22.8245 48.4745C22.7336 48.3421 22.7673 48.1602 22.8998 48.0667C23.0349 47.9758 23.2167 48.0095 23.3076 48.142C23.3284 48.1732 25.4998 51.3113 27.679 52.5842C27.8193 52.6648 27.8661 52.844 27.7829 52.9843C27.7284 53.0778 27.6323 53.1298 27.531 53.1298Z" fill="#DB0A2A"/>
<path d="M1.51126 3.21488C1.47229 3.21488 1.43593 3.20708 1.39957 3.1915C1.25151 3.12915 1.17879 2.96029 1.24113 2.80962C1.2697 2.74208 1.95022 1.12885 3.48789 0.928817C3.64633 0.905437 3.79438 1.01974 3.81516 1.1808C3.83594 1.34187 3.72165 1.48734 3.56321 1.50813C2.3658 1.66139 1.78658 3.01744 1.78139 3.03043C1.73463 3.14474 1.62554 3.21488 1.51126 3.21488Z" fill="#DB0A2A"/>
<g filter="url(#filter0_i)">
<path d="M41.1248 65.8415C41.7196 70.5643 37.7482 74.5363 33.0261 73.9414C29.8001 73.5336 27.2105 70.9462 26.8053 67.7197C26.2105 62.9969 30.1819 59.0249 34.904 59.6198C38.13 60.025 40.717 62.615 41.1248 65.8415Z" fill="#FBB829"/>
<path d="M63.3387 62.5015C58.866 61.3091 54.8971 65.2785 56.0894 69.7519C56.6114 71.7081 58.1647 73.2642 60.1205 73.7837C64.5933 74.9761 68.5621 71.0067 67.3699 66.5333C66.8478 64.5771 65.2946 63.0237 63.3387 62.5015Z" fill="#FBB829"/>
<path d="M39.7077 65.5629C39.5882 65.5629 39.4765 65.4902 39.4324 65.3707C38.4506 62.6975 36.0843 61.448 36.0584 61.4376C35.9155 61.3623 35.8584 61.1856 35.9337 61.0428C36.009 60.8999 36.1856 60.8427 36.3285 60.9181C36.435 60.9726 38.9207 62.2845 39.983 65.1707C40.0376 65.3213 39.9597 65.4902 39.809 65.5473C39.7752 65.5577 39.7415 65.5629 39.7077 65.5629Z" fill="white"/>
<path d="M66.4529 67.5059C66.3204 67.5059 66.201 67.4176 66.1698 67.2851C65.5906 64.9627 63.3698 63.8482 63.349 63.8378C63.2036 63.7677 63.1438 63.591 63.2165 63.4456C63.2867 63.3001 63.4633 63.2429 63.6087 63.3131C63.71 63.3624 66.0945 64.56 66.7386 67.1422C66.7776 67.2981 66.6815 67.4565 66.5256 67.4981C66.5023 67.5033 66.4763 67.5059 66.4529 67.5059Z" fill="white"/>
</g>
<path d="M38.2712 46.3363C38.1543 45.3544 38.0088 44.375 37.879 43.3956C37.7309 42.2812 37.5907 41.1667 37.4452 40.0549C37.292 38.8859 37.1335 37.7143 36.9829 36.5452C36.8244 35.3269 36.6894 34.1033 36.5127 32.8876C36.3465 31.7471 36.1491 30.6119 35.9387 29.4818C35.6504 27.9362 35.2192 26.432 34.5283 25.0136C34.1283 24.1901 33.6218 23.442 32.9075 22.8523C32.3283 22.3743 31.6582 22.1119 30.9153 22.0807C29.9673 22.0418 29.1906 22.4418 28.5724 23.138C27.6088 24.2213 26.9595 25.4838 26.4763 26.8425C26.414 27.0165 26.3361 27.1828 26.24 27.4114C26.214 27.3179 26.2036 27.2945 26.1984 27.2685C26.1075 26.6425 26.04 26.0138 25.9231 25.3955C25.788 24.6759 25.4971 24.0135 25.0296 23.4394C24.6218 22.9354 23.9387 22.7484 23.2659 22.951C22.6452 23.138 22.4166 23.603 22.3439 24.2031C22.2452 25.0058 22.2478 25.8086 22.3672 26.6009C22.6348 28.3492 22.9205 30.0949 23.2426 31.8354C23.5543 33.5292 23.9724 35.2048 24.4685 36.8544C25.2218 39.3483 26.0504 41.8188 27.1179 44.2009C27.5517 45.1699 28.0036 46.1311 28.7673 46.9001C29.2036 47.3391 29.6815 47.7106 30.3023 47.8612C30.5984 47.934 30.8296 47.7443 30.8244 47.4378C30.8218 47.1313 30.7854 46.8169 30.7075 46.5234C30.4867 45.6843 30.2348 44.8504 29.9984 44.0139C29.6348 42.7202 29.3309 41.4135 29.2711 40.0679C29.2036 38.5378 29.1802 37.0025 29.3049 35.4724C29.4218 34.0332 29.6244 32.6096 29.9854 31.2094C30.2608 30.1443 30.5802 29.0974 31.201 28.17C31.2088 28.1596 31.2166 28.1492 31.2218 28.1388C31.3023 28.0349 31.588 27.7127 31.7595 28.2193C31.7621 28.2245 31.7621 28.2271 31.7647 28.2323C31.9828 28.8844 32.2244 29.5312 32.3777 30.1962C32.6374 31.3237 32.8322 32.4667 33.0426 33.6071C33.2452 34.7112 33.4322 35.8205 33.6218 36.9271C33.827 38.1169 34.014 39.3093 34.2296 40.4965C34.4919 41.9383 34.788 43.3748 35.0478 44.8192C35.2166 45.7518 35.4556 46.6533 35.9881 47.4534C36.2322 47.8197 36.4919 48.1678 36.8945 48.3756C37.4452 48.6614 37.8738 48.5107 38.0997 47.9366C38.3101 47.4196 38.3361 46.8767 38.2712 46.3363Z" fill="white"/>
<path d="M48.0067 43.6546C47.7392 43.4156 47.3808 43.4182 47.1314 43.6209C46.9262 43.7871 46.7418 43.982 46.5574 44.1716C46.5184 44.2106 46.4795 44.2521 46.4431 44.2963C46.0509 44.7379 45.4119 44.912 44.8847 44.647C44.6743 44.5405 44.4847 44.3898 44.3132 44.2054C43.7652 43.6131 43.4457 42.8805 43.1002 42.1661C43.0275 42.018 43.1158 41.9037 43.2483 41.8725C43.2613 41.8699 43.2743 41.8674 43.2846 41.8648C43.6223 41.7868 46.2223 41.1166 47.6847 38.8695C48.308 37.8564 48.7626 36.7445 49.0977 35.5677C49.4301 34.4039 49.5444 33.2089 49.5444 31.6294C49.5314 30.954 49.4509 29.9149 49.2015 28.8888C48.8457 27.4262 48.2197 26.1065 47.1989 24.9947C46.586 24.327 45.8379 23.8542 44.947 23.6698C44.4898 23.5763 44.0119 23.5581 43.5444 23.5477C43.2561 23.5399 42.9652 23.5867 42.695 23.6854C41.6924 24.0543 40.9106 24.7141 40.3184 25.6078C39.4119 26.9768 39.0171 28.5381 38.7704 30.1409C38.5002 31.8996 38.4197 33.6843 38.5054 35.4612C38.5522 36.4224 38.6301 37.381 38.7574 38.3344C38.934 39.6488 39.1963 40.9503 39.5444 42.2336C40.0613 44.1456 40.6717 46.0186 41.7574 47.6994C42.5184 48.8788 43.4119 49.9413 44.5937 50.7232C45.1808 51.1129 45.8249 51.3233 46.5444 51.261C47.5496 51.1726 48.2197 50.6011 48.7262 49.7854C49.0977 49.1905 49.2223 48.5255 49.2613 47.8371C49.334 46.6291 49.1652 45.4653 48.5989 44.3846C48.4535 44.1092 48.2379 43.8625 48.0067 43.6546ZM42.2327 34.2818V34.2792C42.2379 34.2091 42.2431 34.1389 42.2535 34.0688C42.3859 33.0426 42.5418 32.0217 43.0015 31.0735C43.1366 30.793 43.3288 30.5306 43.5418 30.302C43.8691 29.9539 44.3314 29.8967 44.7678 30.0967C44.8379 30.1279 44.9054 30.1669 44.9756 30.1981C46.0457 30.6968 46.095 31.5671 45.8119 32.3802C45.5418 33.1595 45.0924 33.8116 44.5314 34.3753C44.5314 34.3753 44.5262 34.3805 44.521 34.3857C44.5158 34.3909 44.5106 34.3961 44.5054 34.4013C44.3262 34.5805 43.0872 35.7885 42.7236 35.734C42.3314 35.6794 42.1574 34.9079 42.2327 34.2818Z" fill="white"/>
<path d="M44.5315 34.3809C44.529 34.3834 44.5265 34.3858 44.5215 34.3908C44.524 34.3858 44.5315 34.3809 44.5315 34.3809Z" fill="white"/>
<path d="M62.2057 28.341C62.0706 27.611 61.7381 26.9616 61.3251 26.3485C60.829 25.6159 60.2031 24.9924 59.4524 24.5508C58.6914 24.1014 57.8082 23.9169 56.9251 23.9066C55.5978 23.891 54.5173 24.4729 53.668 25.4678C52.3719 26.9849 51.6472 28.767 51.3641 30.7284C51.1719 32.0636 51.1874 33.4041 51.3926 34.742C51.7381 36.9864 52.6316 38.914 54.4784 40.335C55.1459 40.8494 55.7537 41.4365 56.2732 42.1119C56.7225 42.6964 56.9875 43.3562 57.0524 44.0836C57.1303 44.9773 56.6602 45.5981 55.9849 46.0735C55.2264 46.6035 54.1641 46.4788 53.59 45.754C53.3381 45.4371 53.1511 45.0708 52.9511 44.7149C52.8368 44.5097 52.7329 44.2966 52.6108 44.0966C52.6108 44.0966 52.4628 43.7953 52.1849 43.5822C52.0836 43.4965 51.9926 43.4394 51.8939 43.4212C51.5745 43.3095 51.1563 43.364 50.6524 43.868C49.7926 44.7279 50.3095 46.7126 50.7043 47.8452C50.7796 48.0842 50.8706 48.3206 50.9745 48.5492C51.0082 48.6272 51.029 48.6739 51.029 48.6739L51.0316 48.6713C51.1978 49.022 51.3926 49.3649 51.6186 49.6949C52.2628 50.6353 53.055 51.4276 54.1381 51.8822C54.6472 52.0978 55.2264 52.1082 55.7433 51.9134C56.6784 51.5601 57.4082 50.9314 57.9511 50.1001C58.5017 49.2558 58.9381 48.3518 59.229 47.3828C59.5277 46.3853 59.7927 45.3773 59.8524 44.3382C59.8992 43.5121 59.8758 42.6808 59.8368 41.8521C59.7797 40.6 59.442 39.4128 58.8836 38.2957C58.2238 36.9812 57.2446 35.9188 56.1771 34.929C56.1069 34.864 56.0368 34.7965 55.9667 34.7316C54.4914 33.321 54.6654 30.8583 56.3875 29.762C56.4706 29.7074 56.5563 29.6581 56.6472 29.6087C57.1069 29.3541 57.5953 29.3126 58.0914 29.5126C58.7641 29.7828 59.2758 30.2192 59.5771 30.8998C59.6992 31.1726 59.8472 31.4428 60.029 31.6792C60.2394 31.9571 60.6212 32.0688 60.9381 31.9259C61.4212 31.7077 61.7459 31.3336 61.9537 30.8634C62.294 30.0529 62.3667 29.2035 62.2057 28.341Z" fill="white"/>
<path d="M65.3935 34.6014C65.0273 34.4741 64.6688 34.3702 64.3286 34.2247C63.7909 33.9935 63.4792 33.5753 63.326 33.0012C63.0402 31.9309 63.1987 30.9463 63.7831 30.0137C64.0792 29.5409 64.5 29.3565 65.0325 29.4032C65.4948 29.4422 65.9545 29.4967 66.4117 29.5617C66.5727 29.5851 66.6117 29.5331 66.648 29.3876C67.0636 27.7328 67.4792 26.078 67.913 24.4285C68.0221 24.0154 68.1468 23.6024 68.3909 23.2439C68.6922 22.8048 69.3597 22.5113 69.8714 22.6568C70.1338 22.7321 70.3597 22.8854 70.5286 23.1451C70.9831 23.8491 71.1416 24.6181 70.9494 25.4442C70.5883 26.9821 70.2221 28.52 69.8481 30.0553C69.8039 30.2397 69.8506 30.2943 70.0169 30.3514C70.6013 30.5515 71.1857 30.7541 71.7571 30.9879C72.6974 31.3698 73.0117 32.1387 72.9727 33.0921C72.9416 33.8403 72.739 34.5313 72.2299 35.1054C72.0636 35.295 71.9286 35.5184 71.7416 35.6795C71.326 36.0406 70.8221 36.0328 70.3208 35.9211C69.8221 35.8094 69.326 35.6691 68.8299 35.5418C68.7416 35.5184 68.6558 35.4977 68.539 35.4691C68.3727 35.999 68.1909 36.5134 68.048 37.0381C67.5623 38.8228 67.0792 40.6101 66.6195 42.4C66.3779 43.3378 66.2013 44.2912 66.1675 45.2628C66.1545 45.6602 66.1519 46.0629 66.2117 46.4551C66.2792 46.902 66.5364 46.9825 66.9 46.7071C67.2454 46.4448 67.5831 46.1668 67.9156 45.8888C68.126 45.7122 68.3623 45.6031 68.6351 45.5667C69.0377 45.5147 69.3026 45.7278 69.3338 46.1356C69.3623 46.4811 69.3156 46.8214 69.1338 47.1124C68.861 47.5514 68.5883 48.0034 68.2429 48.3827C67.5623 49.1309 66.8351 49.8375 66.0065 50.4272C65.8117 50.5649 65.6065 50.6947 65.3883 50.7909C65.0143 50.9545 64.5701 50.8376 64.3363 50.5051C64.1363 50.2219 63.9649 49.9024 63.8532 49.5751C63.5545 48.6918 63.4117 47.7774 63.3857 46.8422C63.3545 45.694 63.4299 44.5484 63.6143 43.4183C63.8974 41.7116 64.2506 40.0152 64.5935 38.3189C64.8402 37.1005 65.1182 35.8873 65.3831 34.6716C65.3935 34.6534 65.3909 34.6326 65.3935 34.6014Z" fill="white"/>
<defs>
<filter id="filter0_i" x="26.7461" y="51.5605" width="40.8382" height="22.4401" filterUnits="userSpaceOnUse" color-interpolation-filters="sRGB">
<feFlood flood-opacity="0" result="BackgroundImageFix"/>
<feBlend mode="normal" in="SourceGraphic" in2="BackgroundImageFix" result="shape"/>
<feColorMatrix in="SourceAlpha" type="matrix" values="0 0 0 0 0 0 0 0 0 0 0 0 0 0 0 0 0 0 127 0" result="hardAlpha"/>
<feOffset dy="-8"/>
<feGaussianBlur stdDeviation="4"/>
<feComposite in2="hardAlpha" operator="arithmetic" k2="-1" k3="1"/>
<feColorMatrix type="matrix" values="0 0 0 0 0.95 0 0 0 0 0.752377 0 0 0 0 0.4275 0 0 0 1 0"/>
<feBlend mode="normal" in2="shape" result="effect1_innerShadow"/>
</filter>
</defs>
</svg>
